<?xml version="1.0" encoding="utf-8"?>
<!-- Generator: Adobe Illustrator 25.1.0, SVG Export Plug-In . SVG Version: 6.00 Build 0)  -->
<svg version="1.1" id="Layer_1" xmlns="http://www.w3.org/2000/svg" xmlns:xlink="http://www.w3.org/1999/xlink" x="0px" y="0px"
	 viewBox="0 0 1920 358" style="enable-background:new 0 0 1920 358;" xml:space="preserve">
<style type="text/css">
	.st0{fill:none;}
	.st1{fill:#D9DADD;}
	.st2{display:none;fill:url(#New_Pattern);}
	.st3{opacity:0.65;fill:#D9DADD;}
	.st4{opacity:0.64;}
	.st5{opacity:0.65;}
</style>
<pattern  width="437.04" height="315.41" patternUnits="userSpaceOnUse" id="New_Pattern" viewBox="0 -315.41 437.04 315.41" style="overflow:visible;">
	<g>
		<rect y="-315.41" class="st0" width="437.04" height="315.41"/>
		<g>
			<g>
				<polygon class="st1" points="18.21,-31.54 0,0 36.42,0 				"/>
				<polygon class="st1" points="54.63,-31.54 36.42,0 72.84,0 				"/>
				<polygon class="st1" points="91.05,-31.54 72.84,0 109.26,0 				"/>
				<polygon class="st1" points="72.84,-63.08 54.63,-31.54 91.05,-31.54 				"/>
				<polygon class="st1" points="36.42,-63.08 18.21,-31.54 54.63,-31.54 				"/>
			</g>
			<polygon class="st1" points="127.47,-31.54 109.26,0 145.68,0 			"/>
			<polygon class="st1" points="163.89,-31.54 145.68,0 182.1,0 			"/>
			<polygon class="st1" points="200.31,-31.54 182.1,0 218.52,0 			"/>
			<polygon class="st1" points="182.1,-63.08 163.89,-31.54 200.31,-31.54 			"/>
			<polygon class="st1" points="218.52,-63.08 200.31,-31.54 236.73,-31.54 			"/>
			<polygon class="st1" points="145.68,-63.08 127.47,-31.54 163.89,-31.54 			"/>
			<polygon class="st1" points="109.26,-63.08 91.05,-31.54 127.47,-31.54 			"/>
			<g>
				<polygon class="st1" points="236.73,-31.54 218.52,0 254.94,0 				"/>
				<polygon class="st1" points="273.15,-31.54 254.94,0 291.36,0 				"/>
				<polygon class="st1" points="309.57,-31.54 291.36,0 327.78,0 				"/>
				<polygon class="st1" points="291.36,-63.08 273.15,-31.54 309.57,-31.54 				"/>
				<polygon class="st1" points="254.94,-63.08 236.73,-31.54 273.15,-31.54 				"/>
			</g>
			<polygon class="st1" points="345.99,-31.54 327.78,0 364.2,0 			"/>
			<polygon class="st1" points="382.41,-31.54 364.2,0 400.62,0 			"/>
			<polygon class="st1" points="418.83,-31.54 400.62,0 437.04,0 			"/>
			<polygon class="st1" points="400.62,-63.08 382.41,-31.54 418.83,-31.54 			"/>
			<polygon class="st1" points="364.2,-63.08 345.99,-31.54 382.41,-31.54 			"/>
			<polygon class="st1" points="327.78,-63.08 309.57,-31.54 345.99,-31.54 			"/>
		</g>
		<g>
			<g>
				<polygon class="st1" points="18.21,-94.62 0,-63.08 36.42,-63.08 				"/>
				<polygon class="st1" points="54.63,-94.62 36.42,-63.08 72.84,-63.08 				"/>
				<polygon class="st1" points="91.05,-94.62 72.84,-63.08 109.26,-63.08 				"/>
				<polygon class="st1" points="72.84,-126.16 54.63,-94.62 91.05,-94.62 				"/>
				<polygon class="st1" points="36.42,-126.16 18.21,-94.62 54.63,-94.62 				"/>
			</g>
			<polygon class="st1" points="127.47,-94.62 109.26,-63.08 145.68,-63.08 			"/>
			<polygon class="st1" points="163.89,-94.62 145.68,-63.08 182.1,-63.08 			"/>
			<polygon class="st1" points="200.31,-94.62 182.1,-63.08 218.52,-63.08 			"/>
			<polygon class="st1" points="182.1,-126.16 163.89,-94.62 200.31,-94.62 			"/>
			<polygon class="st1" points="218.52,-126.16 200.31,-94.62 236.73,-94.62 			"/>
			<polygon class="st1" points="145.68,-126.16 127.47,-94.62 163.89,-94.62 			"/>
			<polygon class="st1" points="109.26,-126.16 91.05,-94.62 127.47,-94.62 			"/>
			<g>
				<polygon class="st1" points="236.73,-94.62 218.52,-63.08 254.94,-63.08 				"/>
				<polygon class="st1" points="273.15,-94.62 254.94,-63.08 291.36,-63.08 				"/>
				<polygon class="st1" points="309.57,-94.62 291.36,-63.08 327.78,-63.08 				"/>
				<polygon class="st1" points="291.36,-126.16 273.15,-94.62 309.57,-94.62 				"/>
				<polygon class="st1" points="254.94,-126.16 236.73,-94.62 273.15,-94.62 				"/>
			</g>
			<polygon class="st1" points="345.99,-94.62 327.78,-63.08 364.2,-63.08 			"/>
			<polygon class="st1" points="382.41,-94.62 364.2,-63.08 400.62,-63.08 			"/>
			<polygon class="st1" points="418.83,-94.62 400.62,-63.08 437.04,-63.08 			"/>
			<polygon class="st1" points="400.62,-126.16 382.41,-94.62 418.83,-94.62 			"/>
			<polygon class="st1" points="364.2,-126.16 345.99,-94.62 382.41,-94.62 			"/>
			<polygon class="st1" points="327.78,-126.16 309.57,-94.62 345.99,-94.62 			"/>
		</g>
		<g>
			<g>
				<polygon class="st1" points="18.21,-157.7 0,-126.16 36.42,-126.16 				"/>
				<polygon class="st1" points="54.63,-157.7 36.42,-126.16 72.84,-126.16 				"/>
				<polygon class="st1" points="91.05,-157.7 72.84,-126.16 109.26,-126.16 				"/>
				<polygon class="st1" points="72.84,-189.24 54.63,-157.7 91.05,-157.7 				"/>
				<polygon class="st1" points="36.42,-189.24 18.21,-157.7 54.63,-157.7 				"/>
			</g>
			<polygon class="st1" points="127.47,-157.7 109.26,-126.16 145.68,-126.16 			"/>
			<polygon class="st1" points="163.89,-157.7 145.68,-126.16 182.1,-126.16 			"/>
			<polygon class="st1" points="200.31,-157.7 182.1,-126.16 218.52,-126.16 			"/>
			<polygon class="st1" points="182.1,-189.24 163.89,-157.7 200.31,-157.7 			"/>
			<polygon class="st1" points="218.52,-189.24 200.31,-157.7 236.73,-157.7 			"/>
			<polygon class="st1" points="145.68,-189.24 127.47,-157.7 163.89,-157.7 			"/>
			<polygon class="st1" points="109.26,-189.24 91.05,-157.7 127.47,-157.7 			"/>
			<g>
				<polygon class="st1" points="236.73,-157.7 218.52,-126.16 254.94,-126.16 				"/>
				<polygon class="st1" points="273.15,-157.7 254.94,-126.16 291.36,-126.16 				"/>
				<polygon class="st1" points="309.57,-157.7 291.36,-126.16 327.78,-126.16 				"/>
				<polygon class="st1" points="291.36,-189.24 273.15,-157.7 309.57,-157.7 				"/>
				<polygon class="st1" points="254.94,-189.24 236.73,-157.7 273.15,-157.7 				"/>
			</g>
			<polygon class="st1" points="345.99,-157.7 327.78,-126.16 364.2,-126.16 			"/>
			<polygon class="st1" points="382.41,-157.7 364.2,-126.16 400.62,-126.16 			"/>
			<polygon class="st1" points="418.83,-157.7 400.62,-126.16 437.04,-126.16 			"/>
			<polygon class="st1" points="400.62,-189.24 382.41,-157.7 418.83,-157.7 			"/>
			<polygon class="st1" points="364.2,-189.24 345.99,-157.7 382.41,-157.7 			"/>
			<polygon class="st1" points="327.78,-189.24 309.57,-157.7 345.99,-157.7 			"/>
		</g>
		<g>
			<g>
				<polygon class="st1" points="18.21,-220.79 0,-189.24 36.42,-189.24 				"/>
				<polygon class="st1" points="54.63,-220.79 36.42,-189.24 72.84,-189.24 				"/>
				<polygon class="st1" points="91.05,-220.79 72.84,-189.24 109.26,-189.24 				"/>
				<polygon class="st1" points="72.84,-252.33 54.63,-220.79 91.05,-220.79 				"/>
				<polygon class="st1" points="36.42,-252.33 18.21,-220.79 54.63,-220.79 				"/>
			</g>
			<polygon class="st1" points="127.47,-220.79 109.26,-189.24 145.68,-189.24 			"/>
			<polygon class="st1" points="163.89,-220.79 145.68,-189.24 182.1,-189.24 			"/>
			<polygon class="st1" points="200.31,-220.79 182.1,-189.24 218.52,-189.24 			"/>
			<polygon class="st1" points="182.1,-252.33 163.89,-220.79 200.31,-220.79 			"/>
			<polygon class="st1" points="218.52,-252.33 200.31,-220.79 236.73,-220.79 			"/>
			<polygon class="st1" points="145.68,-252.33 127.47,-220.79 163.89,-220.79 			"/>
			<polygon class="st1" points="109.26,-252.33 91.05,-220.79 127.47,-220.79 			"/>
			<g>
				<polygon class="st1" points="236.73,-220.79 218.52,-189.24 254.94,-189.24 				"/>
				<polygon class="st1" points="273.15,-220.79 254.94,-189.24 291.36,-189.24 				"/>
				<polygon class="st1" points="309.57,-220.79 291.36,-189.24 327.78,-189.24 				"/>
				<polygon class="st1" points="291.36,-252.33 273.15,-220.79 309.57,-220.79 				"/>
				<polygon class="st1" points="254.94,-252.33 236.73,-220.79 273.15,-220.79 				"/>
			</g>
			<polygon class="st1" points="345.99,-220.79 327.78,-189.24 364.2,-189.24 			"/>
			<polygon class="st1" points="382.41,-220.79 364.2,-189.24 400.62,-189.24 			"/>
			<polygon class="st1" points="418.83,-220.79 400.62,-189.24 437.04,-189.24 			"/>
			<polygon class="st1" points="400.62,-252.33 382.41,-220.79 418.83,-220.79 			"/>
			<polygon class="st1" points="364.2,-252.33 345.99,-220.79 382.41,-220.79 			"/>
			<polygon class="st1" points="327.78,-252.33 309.57,-220.79 345.99,-220.79 			"/>
		</g>
		<g>
			<g>
				<polygon class="st1" points="18.21,-283.87 0,-252.33 36.42,-252.33 				"/>
				<polygon class="st1" points="54.63,-283.87 36.42,-252.33 72.84,-252.33 				"/>
				<polygon class="st1" points="91.05,-283.87 72.84,-252.33 109.26,-252.33 				"/>
				<polygon class="st1" points="72.84,-315.41 54.63,-283.87 91.05,-283.87 				"/>
				<polygon class="st1" points="36.42,-315.41 18.21,-283.87 54.63,-283.87 				"/>
			</g>
			<polygon class="st1" points="127.47,-283.87 109.26,-252.33 145.68,-252.33 			"/>
			<polygon class="st1" points="163.89,-283.87 145.68,-252.33 182.1,-252.33 			"/>
			<polygon class="st1" points="200.31,-283.87 182.1,-252.33 218.52,-252.33 			"/>
			<polygon class="st1" points="182.1,-315.41 163.89,-283.87 200.31,-283.87 			"/>
			<polygon class="st1" points="218.52,-315.41 200.31,-283.87 236.73,-283.87 			"/>
			<polygon class="st1" points="145.68,-315.41 127.47,-283.87 163.89,-283.87 			"/>
			<polygon class="st1" points="109.26,-315.41 91.05,-283.87 127.47,-283.87 			"/>
			<g>
				<polygon class="st1" points="236.73,-283.87 218.52,-252.33 254.94,-252.33 				"/>
				<polygon class="st1" points="273.15,-283.87 254.94,-252.33 291.36,-252.33 				"/>
				<polygon class="st1" points="309.57,-283.87 291.36,-252.33 327.78,-252.33 				"/>
				<polygon class="st1" points="291.36,-315.41 273.15,-283.87 309.57,-283.87 				"/>
				<polygon class="st1" points="254.94,-315.41 236.73,-283.87 273.15,-283.87 				"/>
			</g>
			<polygon class="st1" points="345.99,-283.87 327.78,-252.33 364.2,-252.33 			"/>
			<polygon class="st1" points="382.41,-283.87 364.2,-252.33 400.62,-252.33 			"/>
			<polygon class="st1" points="418.83,-283.87 400.62,-252.33 437.04,-252.33 			"/>
			<polygon class="st1" points="400.62,-315.41 382.41,-283.87 418.83,-283.87 			"/>
			<polygon class="st1" points="364.2,-315.41 345.99,-283.87 382.41,-283.87 			"/>
			<polygon class="st1" points="327.78,-315.41 309.57,-283.87 345.99,-283.87 			"/>
		</g>
	</g>
</pattern>
<rect x="-84.32" y="-5" class="st2" width="2176.19" height="368"/>
<polygon class="st3" points="2133.34,393.6 2114.45,426.31 2152.23,426.31 "/>
<polygon class="st3" points="2133.34,262.74 2114.45,295.45 2152.23,295.45 "/>
<polygon class="st3" points="2133.34,131.89 2114.45,164.6 2152.23,164.6 "/>
<polygon class="st3" points="2133.34,1.03 2114.45,33.74 2152.23,33.74 "/>
<g class="st4">
	<g class="st5">
		<polygon class="st1" points="-95.37,393.6 -114.26,426.31 -76.49,426.31 		"/>
		<polygon class="st1" points="-57.6,393.6 -76.49,426.31 -38.71,426.31 		"/>
		<polygon class="st1" points="-19.82,393.6 -38.71,426.31 -0.94,426.31 		"/>
		<polygon class="st1" points="-38.71,360.88 -57.6,393.6 -19.82,393.6 		"/>
		<polygon class="st1" points="-76.49,360.88 -95.37,393.6 -57.6,393.6 		"/>
	</g>
	<polygon class="st3" points="17.95,393.6 -0.94,426.31 36.84,426.31 	"/>
	<polygon class="st3" points="55.73,393.6 36.84,426.31 74.61,426.31 	"/>
	<polygon class="st3" points="93.5,393.6 74.61,426.31 112.39,426.31 	"/>
	<polygon class="st3" points="74.61,360.88 55.73,393.6 93.5,393.6 	"/>
	<polygon class="st3" points="112.39,360.88 93.5,393.6 131.28,393.6 	"/>
	<polygon class="st3" points="36.84,360.88 17.95,393.6 55.73,393.6 	"/>
	<polygon class="st3" points="-0.94,360.88 -19.82,393.6 17.95,393.6 	"/>
	<g class="st5">
		<polygon class="st1" points="131.28,393.6 112.39,426.31 150.16,426.31 		"/>
		<polygon class="st1" points="169.05,393.6 150.16,426.31 187.94,426.31 		"/>
		<polygon class="st1" points="206.83,393.6 187.94,426.31 225.71,426.31 		"/>
		<polygon class="st1" points="187.94,360.88 169.05,393.6 206.83,393.6 		"/>
		<polygon class="st1" points="150.16,360.88 131.28,393.6 169.05,393.6 		"/>
	</g>
	<polygon class="st3" points="244.6,393.6 225.71,426.31 263.49,426.31 	"/>
	<polygon class="st3" points="282.37,393.6 263.49,426.31 301.26,426.31 	"/>
	<polygon class="st3" points="320.15,393.6 301.26,426.31 339.04,426.31 	"/>
	<polygon class="st3" points="301.26,360.88 282.37,393.6 320.15,393.6 	"/>
	<polygon class="st3" points="339.04,360.88 320.15,393.6 357.92,393.6 	"/>
	<polygon class="st3" points="263.49,360.88 244.6,393.6 282.37,393.6 	"/>
	<polygon class="st3" points="225.71,360.88 206.83,393.6 244.6,393.6 	"/>
	<g class="st5">
		<polygon class="st1" points="357.92,393.6 339.04,426.31 376.81,426.31 		"/>
		<polygon class="st1" points="395.7,393.6 376.81,426.31 414.59,426.31 		"/>
		<polygon class="st1" points="433.47,393.6 414.59,426.31 452.36,426.31 		"/>
		<polygon class="st1" points="414.59,360.88 395.7,393.6 433.47,393.6 		"/>
		<polygon class="st1" points="376.81,360.88 357.92,393.6 395.7,393.6 		"/>
	</g>
	<polygon class="st3" points="471.25,393.6 452.36,426.31 490.14,426.31 	"/>
	<polygon class="st3" points="509.02,393.6 490.14,426.31 527.91,426.31 	"/>
	<polygon class="st3" points="546.8,393.6 527.91,426.31 565.69,426.31 	"/>
	<polygon class="st3" points="527.91,360.88 509.02,393.6 546.8,393.6 	"/>
	<polygon class="st3" points="565.69,360.88 546.8,393.6 584.57,393.6 	"/>
	<polygon class="st3" points="490.14,360.88 471.25,393.6 509.02,393.6 	"/>
	<polygon class="st3" points="452.36,360.88 433.47,393.6 471.25,393.6 	"/>
	<g class="st5">
		<polygon class="st1" points="584.57,393.6 565.69,426.31 603.46,426.31 		"/>
		<polygon class="st1" points="622.35,393.6 603.46,426.31 641.23,426.31 		"/>
		<polygon class="st1" points="660.12,393.6 641.23,426.31 679.01,426.31 		"/>
		<polygon class="st1" points="641.23,360.88 622.35,393.6 660.12,393.6 		"/>
		<polygon class="st1" points="603.46,360.88 584.57,393.6 622.35,393.6 		"/>
	</g>
	<polygon class="st3" points="697.9,393.6 679.01,426.31 716.78,426.31 	"/>
	<polygon class="st3" points="735.67,393.6 716.78,426.31 754.56,426.31 	"/>
	<polygon class="st3" points="773.45,393.6 754.56,426.31 792.33,426.31 	"/>
	<polygon class="st3" points="754.56,360.88 735.67,393.6 773.45,393.6 	"/>
	<polygon class="st3" points="716.78,360.88 697.9,393.6 735.67,393.6 	"/>
	<polygon class="st3" points="679.01,360.88 660.12,393.6 697.9,393.6 	"/>
	<g class="st5">
		<polygon class="st1" points="811.22,393.6 792.33,426.31 830.11,426.31 		"/>
		<polygon class="st1" points="849,393.6 830.11,426.31 867.88,426.31 		"/>
		<polygon class="st1" points="886.77,393.6 867.88,426.31 905.66,426.31 		"/>
		<polygon class="st1" points="867.88,360.88 849,393.6 886.77,393.6 		"/>
		<polygon class="st1" points="830.11,360.88 811.22,393.6 849,393.6 		"/>
	</g>
	<polygon class="st3" points="924.55,393.6 905.66,426.31 943.43,426.31 	"/>
	<polygon class="st3" points="962.32,393.6 943.43,426.31 981.21,426.31 	"/>
	<polygon class="st3" points="1000.1,393.6 981.21,426.31 1018.98,426.31 	"/>
	<polygon class="st3" points="981.21,360.88 962.32,393.6 1000.1,393.6 	"/>
	<polygon class="st3" points="1018.98,360.88 1000.1,393.6 1037.87,393.6 	"/>
	<polygon class="st3" points="943.43,360.88 924.55,393.6 962.32,393.6 	"/>
	<polygon class="st3" points="792.33,360.88 773.45,393.6 811.22,393.6 	"/>
	<polygon class="st3" points="905.66,360.88 886.77,393.6 924.55,393.6 	"/>
	<g class="st5">
		<polygon class="st1" points="1037.87,393.6 1018.98,426.31 1056.76,426.31 		"/>
		<polygon class="st1" points="1075.64,393.6 1056.76,426.31 1094.53,426.31 		"/>
		<polygon class="st1" points="1113.42,393.6 1094.53,426.31 1132.31,426.31 		"/>
		<polygon class="st1" points="1094.53,360.88 1075.64,393.6 1113.42,393.6 		"/>
		<polygon class="st1" points="1056.76,360.88 1037.87,393.6 1075.64,393.6 		"/>
	</g>
	<polygon class="st3" points="1151.19,393.6 1132.31,426.31 1170.08,426.31 	"/>
	<polygon class="st3" points="1188.97,393.6 1170.08,426.31 1207.86,426.31 	"/>
	<polygon class="st3" points="1226.74,393.6 1207.86,426.31 1245.63,426.31 	"/>
	<polygon class="st3" points="1207.86,360.88 1188.97,393.6 1226.74,393.6 	"/>
	<polygon class="st3" points="1245.63,360.88 1226.74,393.6 1264.52,393.6 	"/>
	<polygon class="st3" points="1170.08,360.88 1151.19,393.6 1188.97,393.6 	"/>
	<polygon class="st3" points="1132.31,360.88 1113.42,393.6 1151.19,393.6 	"/>
	<g class="st5">
		<polygon class="st1" points="1264.52,393.6 1245.63,426.31 1283.41,426.31 		"/>
		<polygon class="st1" points="1302.29,393.6 1283.41,426.31 1321.18,426.31 		"/>
		<polygon class="st1" points="1340.07,393.6 1321.18,426.31 1358.96,426.31 		"/>
		<polygon class="st1" points="1321.18,360.88 1302.29,393.6 1340.07,393.6 		"/>
		<polygon class="st1" points="1283.41,360.88 1264.52,393.6 1302.29,393.6 		"/>
	</g>
	<polygon class="st3" points="1377.84,393.6 1358.96,426.31 1396.73,426.31 	"/>
	<polygon class="st3" points="1415.62,393.6 1396.73,426.31 1434.51,426.31 	"/>
	<polygon class="st3" points="1453.39,393.6 1434.51,426.31 1472.28,426.31 	"/>
	<polygon class="st3" points="1434.51,360.88 1415.62,393.6 1453.39,393.6 	"/>
	<polygon class="st3" points="1472.28,360.88 1453.39,393.6 1491.17,393.6 	"/>
	<polygon class="st3" points="1396.73,360.88 1377.84,393.6 1415.62,393.6 	"/>
	<polygon class="st3" points="1358.96,360.88 1340.07,393.6 1377.84,393.6 	"/>
	<g class="st5">
		<polygon class="st1" points="1491.17,393.6 1472.28,426.31 1510.05,426.31 		"/>
		<polygon class="st1" points="1528.94,393.6 1510.05,426.31 1547.83,426.31 		"/>
		<polygon class="st1" points="1566.72,393.6 1547.83,426.31 1585.6,426.31 		"/>
		<polygon class="st1" points="1547.83,360.88 1528.94,393.6 1566.72,393.6 		"/>
		<polygon class="st1" points="1510.05,360.88 1491.17,393.6 1528.94,393.6 		"/>
	</g>
	<polygon class="st3" points="1604.49,393.6 1585.6,426.31 1623.38,426.31 	"/>
	<polygon class="st3" points="1642.27,393.6 1623.38,426.31 1661.15,426.31 	"/>
	<polygon class="st3" points="1680.04,393.6 1661.15,426.31 1698.93,426.31 	"/>
	<polygon class="st3" points="1661.15,360.88 1642.27,393.6 1680.04,393.6 	"/>
	<polygon class="st3" points="1623.38,360.88 1604.49,393.6 1642.27,393.6 	"/>
	<polygon class="st3" points="1585.6,360.88 1566.72,393.6 1604.49,393.6 	"/>
	<g class="st5">
		<polygon class="st1" points="1717.82,393.6 1698.93,426.31 1736.7,426.31 		"/>
		<polygon class="st1" points="1755.59,393.6 1736.7,426.31 1774.48,426.31 		"/>
		<polygon class="st1" points="1793.37,393.6 1774.48,426.31 1812.25,426.31 		"/>
		<polygon class="st1" points="1774.48,360.88 1755.59,393.6 1793.37,393.6 		"/>
		<polygon class="st1" points="1736.7,360.88 1717.82,393.6 1755.59,393.6 		"/>
	</g>
	<polygon class="st3" points="1831.14,393.6 1812.25,426.31 1850.03,426.31 	"/>
	<polygon class="st3" points="1868.92,393.6 1850.03,426.31 1887.8,426.31 	"/>
	<polygon class="st3" points="1906.69,393.6 1887.8,426.31 1925.58,426.31 	"/>
	<polygon class="st3" points="1887.8,360.88 1868.92,393.6 1906.69,393.6 	"/>
	<polygon class="st3" points="1698.93,360.88 1680.04,393.6 1717.82,393.6 	"/>
	<polygon class="st3" points="1925.58,360.88 1906.69,393.6 1944.46,393.6 	"/>
	<polygon class="st3" points="1850.03,360.88 1831.14,393.6 1868.92,393.6 	"/>
	<polygon class="st3" points="1812.25,360.88 1793.37,393.6 1831.14,393.6 	"/>
	<g class="st5">
		<polygon class="st1" points="1944.46,393.6 1925.58,426.31 1963.35,426.31 		"/>
		<polygon class="st1" points="1982.24,393.6 1963.35,426.31 2001.13,426.31 		"/>
		<polygon class="st1" points="2020.01,393.6 2001.13,426.31 2038.9,426.31 		"/>
		<polygon class="st1" points="2001.13,360.88 1982.24,393.6 2020.01,393.6 		"/>
		<polygon class="st1" points="1963.35,360.88 1944.46,393.6 1982.24,393.6 		"/>
	</g>
	<polygon class="st3" points="2057.79,393.6 2038.9,426.31 2076.68,426.31 	"/>
	<polygon class="st3" points="2095.56,393.6 2076.68,426.31 2114.45,426.31 	"/>
	<polygon class="st3" points="2114.45,360.88 2095.56,393.6 2133.34,393.6 	"/>
	<polygon class="st3" points="2076.68,360.88 2057.79,393.6 2095.56,393.6 	"/>
	<polygon class="st3" points="2038.9,360.88 2020.01,393.6 2057.79,393.6 	"/>
	<g class="st5">
		<polygon class="st1" points="-95.37,328.17 -114.26,360.88 -76.49,360.88 		"/>
		<polygon class="st1" points="-57.6,328.17 -76.49,360.88 -38.71,360.88 		"/>
		<polygon class="st1" points="-19.82,328.17 -38.71,360.88 -0.94,360.88 		"/>
		<polygon class="st1" points="-38.71,295.45 -57.6,328.17 -19.82,328.17 		"/>
		<polygon class="st1" points="-76.49,295.45 -95.37,328.17 -57.6,328.17 		"/>
	</g>
	<polygon class="st3" points="17.95,328.17 -0.94,360.88 36.84,360.88 	"/>
	<polygon class="st3" points="55.73,328.17 36.84,360.88 74.61,360.88 	"/>
	<polygon class="st3" points="93.5,328.17 74.61,360.88 112.39,360.88 	"/>
	<polygon class="st3" points="74.61,295.45 55.73,328.17 93.5,328.17 	"/>
	<polygon class="st3" points="112.39,295.45 93.5,328.17 131.28,328.17 	"/>
	<polygon class="st3" points="36.84,295.45 17.95,328.17 55.73,328.17 	"/>
	<polygon class="st3" points="-0.94,295.45 -19.82,328.17 17.95,328.17 	"/>
	<g class="st5">
		<polygon class="st1" points="131.28,328.17 112.39,360.88 150.16,360.88 		"/>
		<polygon class="st1" points="169.05,328.17 150.16,360.88 187.94,360.88 		"/>
		<polygon class="st1" points="206.83,328.17 187.94,360.88 225.71,360.88 		"/>
		<polygon class="st1" points="187.94,295.45 169.05,328.17 206.83,328.17 		"/>
		<polygon class="st1" points="150.16,295.45 131.28,328.17 169.05,328.17 		"/>
	</g>
	<polygon class="st3" points="244.6,328.17 225.71,360.88 263.49,360.88 	"/>
	<polygon class="st3" points="282.37,328.17 263.49,360.88 301.26,360.88 	"/>
	<polygon class="st3" points="320.15,328.17 301.26,360.88 339.04,360.88 	"/>
	<polygon class="st3" points="301.26,295.45 282.37,328.17 320.15,328.17 	"/>
	<polygon class="st3" points="339.04,295.45 320.15,328.17 357.92,328.17 	"/>
	<polygon class="st3" points="263.49,295.45 244.6,328.17 282.37,328.17 	"/>
	<polygon class="st3" points="225.71,295.45 206.83,328.17 244.6,328.17 	"/>
	<g class="st5">
		<polygon class="st1" points="357.92,328.17 339.04,360.88 376.81,360.88 		"/>
		<polygon class="st1" points="395.7,328.17 376.81,360.88 414.59,360.88 		"/>
		<polygon class="st1" points="433.47,328.17 414.59,360.88 452.36,360.88 		"/>
		<polygon class="st1" points="414.59,295.45 395.7,328.17 433.47,328.17 		"/>
		<polygon class="st1" points="376.81,295.45 357.92,328.17 395.7,328.17 		"/>
	</g>
	<polygon class="st3" points="471.25,328.17 452.36,360.88 490.14,360.88 	"/>
	<polygon class="st3" points="509.02,328.17 490.14,360.88 527.91,360.88 	"/>
	<polygon class="st3" points="546.8,328.17 527.91,360.88 565.69,360.88 	"/>
	<polygon class="st3" points="527.91,295.45 509.02,328.17 546.8,328.17 	"/>
	<polygon class="st3" points="565.69,295.45 546.8,328.17 584.57,328.17 	"/>
	<polygon class="st3" points="490.14,295.45 471.25,328.17 509.02,328.17 	"/>
	<polygon class="st3" points="452.36,295.45 433.47,328.17 471.25,328.17 	"/>
	<g class="st5">
		<polygon class="st1" points="584.57,328.17 565.69,360.88 603.46,360.88 		"/>
		<polygon class="st1" points="622.35,328.17 603.46,360.88 641.23,360.88 		"/>
		<polygon class="st1" points="660.12,328.17 641.23,360.88 679.01,360.88 		"/>
		<polygon class="st1" points="641.23,295.45 622.35,328.17 660.12,328.17 		"/>
		<polygon class="st1" points="603.46,295.45 584.57,328.17 622.35,328.17 		"/>
	</g>
	<polygon class="st3" points="697.9,328.17 679.01,360.88 716.78,360.88 	"/>
	<polygon class="st3" points="735.67,328.17 716.78,360.88 754.56,360.88 	"/>
	<polygon class="st3" points="773.45,328.17 754.56,360.88 792.33,360.88 	"/>
	<polygon class="st3" points="754.56,295.45 735.67,328.17 773.45,328.17 	"/>
	<polygon class="st3" points="716.78,295.45 697.9,328.17 735.67,328.17 	"/>
	<polygon class="st3" points="679.01,295.45 660.12,328.17 697.9,328.17 	"/>
	<g class="st5">
		<polygon class="st1" points="811.22,328.17 792.33,360.88 830.11,360.88 		"/>
		<polygon class="st1" points="849,328.17 830.11,360.88 867.88,360.88 		"/>
		<polygon class="st1" points="886.77,328.17 867.88,360.88 905.66,360.88 		"/>
		<polygon class="st1" points="867.88,295.45 849,328.17 886.77,328.17 		"/>
		<polygon class="st1" points="830.11,295.45 811.22,328.17 849,328.17 		"/>
	</g>
	<polygon class="st3" points="924.55,328.17 905.66,360.88 943.43,360.88 	"/>
	<polygon class="st3" points="962.32,328.17 943.43,360.88 981.21,360.88 	"/>
	<polygon class="st3" points="1000.1,328.17 981.21,360.88 1018.98,360.88 	"/>
	<polygon class="st3" points="981.21,295.45 962.32,328.17 1000.1,328.17 	"/>
	<polygon class="st3" points="1018.98,295.45 1000.1,328.17 1037.87,328.17 	"/>
	<polygon class="st3" points="943.43,295.45 924.55,328.17 962.32,328.17 	"/>
	<polygon class="st3" points="792.33,295.45 773.45,328.17 811.22,328.17 	"/>
	<polygon class="st3" points="905.66,295.45 886.77,328.17 924.55,328.17 	"/>
	<g class="st5">
		<polygon class="st1" points="1037.87,328.17 1018.98,360.88 1056.76,360.88 		"/>
		<polygon class="st1" points="1075.64,328.17 1056.76,360.88 1094.53,360.88 		"/>
		<polygon class="st1" points="1113.42,328.17 1094.53,360.88 1132.31,360.88 		"/>
		<polygon class="st1" points="1094.53,295.45 1075.64,328.17 1113.42,328.17 		"/>
		<polygon class="st1" points="1056.76,295.45 1037.87,328.17 1075.64,328.17 		"/>
	</g>
	<polygon class="st3" points="1151.19,328.17 1132.31,360.88 1170.08,360.88 	"/>
	<polygon class="st3" points="1188.97,328.17 1170.08,360.88 1207.86,360.88 	"/>
	<polygon class="st3" points="1226.74,328.17 1207.86,360.88 1245.63,360.88 	"/>
	<polygon class="st3" points="1207.86,295.45 1188.97,328.17 1226.74,328.17 	"/>
	<polygon class="st3" points="1245.63,295.45 1226.74,328.17 1264.52,328.17 	"/>
	<polygon class="st3" points="1170.08,295.45 1151.19,328.17 1188.97,328.17 	"/>
	<polygon class="st3" points="1132.31,295.45 1113.42,328.17 1151.19,328.17 	"/>
	<g class="st5">
		<polygon class="st1" points="1264.52,328.17 1245.63,360.88 1283.41,360.88 		"/>
		<polygon class="st1" points="1302.29,328.17 1283.41,360.88 1321.18,360.88 		"/>
		<polygon class="st1" points="1340.07,328.17 1321.18,360.88 1358.96,360.88 		"/>
		<polygon class="st1" points="1321.18,295.45 1302.29,328.17 1340.07,328.17 		"/>
		<polygon class="st1" points="1283.41,295.45 1264.52,328.17 1302.29,328.17 		"/>
	</g>
	<polygon class="st3" points="1377.84,328.17 1358.96,360.88 1396.73,360.88 	"/>
	<polygon class="st3" points="1415.62,328.17 1396.73,360.88 1434.51,360.88 	"/>
	<polygon class="st3" points="1453.39,328.17 1434.51,360.88 1472.28,360.88 	"/>
	<polygon class="st3" points="1434.51,295.45 1415.62,328.17 1453.39,328.17 	"/>
	<polygon class="st3" points="1472.28,295.45 1453.39,328.17 1491.17,328.17 	"/>
	<polygon class="st3" points="1396.73,295.45 1377.84,328.17 1415.62,328.17 	"/>
	<polygon class="st3" points="1358.96,295.45 1340.07,328.17 1377.84,328.17 	"/>
	<g class="st5">
		<polygon class="st1" points="1491.17,328.17 1472.28,360.88 1510.05,360.88 		"/>
		<polygon class="st1" points="1528.94,328.17 1510.05,360.88 1547.83,360.88 		"/>
		<polygon class="st1" points="1566.72,328.17 1547.83,360.88 1585.6,360.88 		"/>
		<polygon class="st1" points="1547.83,295.45 1528.94,328.17 1566.72,328.17 		"/>
		<polygon class="st1" points="1510.05,295.45 1491.17,328.17 1528.94,328.17 		"/>
	</g>
	<polygon class="st3" points="1604.49,328.17 1585.6,360.88 1623.38,360.88 	"/>
	<polygon class="st3" points="1642.27,328.17 1623.38,360.88 1661.15,360.88 	"/>
	<polygon class="st3" points="1680.04,328.17 1661.15,360.88 1698.93,360.88 	"/>
	<polygon class="st3" points="1661.15,295.45 1642.27,328.17 1680.04,328.17 	"/>
	<polygon class="st3" points="1623.38,295.45 1604.49,328.17 1642.27,328.17 	"/>
	<polygon class="st3" points="1585.6,295.45 1566.72,328.17 1604.49,328.17 	"/>
	<g class="st5">
		<polygon class="st1" points="1717.82,328.17 1698.93,360.88 1736.7,360.88 		"/>
		<polygon class="st1" points="1755.59,328.17 1736.7,360.88 1774.48,360.88 		"/>
		<polygon class="st1" points="1793.37,328.17 1774.48,360.88 1812.25,360.88 		"/>
		<polygon class="st1" points="1774.48,295.45 1755.59,328.17 1793.37,328.17 		"/>
		<polygon class="st1" points="1736.7,295.45 1717.82,328.17 1755.59,328.17 		"/>
	</g>
	<polygon class="st3" points="1831.14,328.17 1812.25,360.88 1850.03,360.88 	"/>
	<polygon class="st3" points="1868.92,328.17 1850.03,360.88 1887.8,360.88 	"/>
	<polygon class="st3" points="1906.69,328.17 1887.8,360.88 1925.58,360.88 	"/>
	<polygon class="st3" points="1887.8,295.45 1868.92,328.17 1906.69,328.17 	"/>
	<polygon class="st3" points="1698.93,295.45 1680.04,328.17 1717.82,328.17 	"/>
	<polygon class="st3" points="1925.58,295.45 1906.69,328.17 1944.46,328.17 	"/>
	<polygon class="st3" points="1850.03,295.45 1831.14,328.17 1868.92,328.17 	"/>
	<polygon class="st3" points="1812.25,295.45 1793.37,328.17 1831.14,328.17 	"/>
	<g class="st5">
		<polygon class="st1" points="1944.46,328.17 1925.58,360.88 1963.35,360.88 		"/>
		<polygon class="st1" points="1982.24,328.17 1963.35,360.88 2001.13,360.88 		"/>
		<polygon class="st1" points="2020.01,328.17 2001.13,360.88 2038.9,360.88 		"/>
		<polygon class="st1" points="2001.13,295.45 1982.24,328.17 2020.01,328.17 		"/>
		<polygon class="st1" points="1963.35,295.45 1944.46,328.17 1982.24,328.17 		"/>
	</g>
	<polygon class="st3" points="2038.9,295.45 2020.01,328.17 2057.79,328.17 	"/>
	<g class="st5">
		<polygon class="st1" points="-95.37,262.74 -114.26,295.45 -76.49,295.45 		"/>
		<polygon class="st1" points="-57.6,262.74 -76.49,295.45 -38.71,295.45 		"/>
		<polygon class="st1" points="-19.82,262.74 -38.71,295.45 -0.94,295.45 		"/>
		<polygon class="st1" points="-38.71,230.03 -57.6,262.74 -19.82,262.74 		"/>
		<polygon class="st1" points="-76.49,230.03 -95.37,262.74 -57.6,262.74 		"/>
	</g>
	<polygon class="st3" points="17.95,262.74 -0.94,295.45 36.84,295.45 	"/>
	<polygon class="st3" points="55.73,262.74 36.84,295.45 74.61,295.45 	"/>
	<polygon class="st3" points="93.5,262.74 74.61,295.45 112.39,295.45 	"/>
	<polygon class="st3" points="74.61,230.03 55.73,262.74 93.5,262.74 	"/>
	<polygon class="st3" points="112.39,230.03 93.5,262.74 131.28,262.74 	"/>
	<polygon class="st3" points="36.84,230.03 17.95,262.74 55.73,262.74 	"/>
	<polygon class="st3" points="-0.94,230.03 -19.82,262.74 17.95,262.74 	"/>
	<g class="st5">
		<polygon class="st1" points="131.28,262.74 112.39,295.45 150.16,295.45 		"/>
		<polygon class="st1" points="169.05,262.74 150.16,295.45 187.94,295.45 		"/>
		<polygon class="st1" points="206.83,262.74 187.94,295.45 225.71,295.45 		"/>
		<polygon class="st1" points="187.94,230.03 169.05,262.74 206.83,262.74 		"/>
		<polygon class="st1" points="150.16,230.03 131.28,262.74 169.05,262.74 		"/>
	</g>
	<polygon class="st3" points="244.6,262.74 225.71,295.45 263.49,295.45 	"/>
	<polygon class="st3" points="282.37,262.74 263.49,295.45 301.26,295.45 	"/>
	<polygon class="st3" points="320.15,262.74 301.26,295.45 339.04,295.45 	"/>
	<polygon class="st3" points="301.26,230.03 282.37,262.74 320.15,262.74 	"/>
	<polygon class="st3" points="339.04,230.03 320.15,262.74 357.92,262.74 	"/>
	<polygon class="st3" points="263.49,230.03 244.6,262.74 282.37,262.74 	"/>
	<polygon class="st3" points="225.71,230.03 206.83,262.74 244.6,262.74 	"/>
	<g class="st5">
		<polygon class="st1" points="357.92,262.74 339.04,295.45 376.81,295.45 		"/>
		<polygon class="st1" points="395.7,262.74 376.81,295.45 414.59,295.45 		"/>
		<polygon class="st1" points="433.47,262.74 414.59,295.45 452.36,295.45 		"/>
		<polygon class="st1" points="414.59,230.03 395.7,262.74 433.47,262.74 		"/>
		<polygon class="st1" points="376.81,230.03 357.92,262.74 395.7,262.74 		"/>
	</g>
	<polygon class="st3" points="471.25,262.74 452.36,295.45 490.14,295.45 	"/>
	<polygon class="st3" points="509.02,262.74 490.14,295.45 527.91,295.45 	"/>
	<polygon class="st3" points="546.8,262.74 527.91,295.45 565.69,295.45 	"/>
	<polygon class="st3" points="527.91,230.03 509.02,262.74 546.8,262.74 	"/>
	<polygon class="st3" points="565.69,230.03 546.8,262.74 584.57,262.74 	"/>
	<polygon class="st3" points="490.14,230.03 471.25,262.74 509.02,262.74 	"/>
	<polygon class="st3" points="452.36,230.03 433.47,262.74 471.25,262.74 	"/>
	<g class="st5">
		<polygon class="st1" points="584.57,262.74 565.69,295.45 603.46,295.45 		"/>
		<polygon class="st1" points="622.35,262.74 603.46,295.45 641.23,295.45 		"/>
		<polygon class="st1" points="660.12,262.74 641.23,295.45 679.01,295.45 		"/>
		<polygon class="st1" points="641.23,230.03 622.35,262.74 660.12,262.74 		"/>
		<polygon class="st1" points="603.46,230.03 584.57,262.74 622.35,262.74 		"/>
	</g>
	<polygon class="st3" points="697.9,262.74 679.01,295.45 716.78,295.45 	"/>
	<polygon class="st3" points="735.67,262.74 716.78,295.45 754.56,295.45 	"/>
	<polygon class="st3" points="773.45,262.74 754.56,295.45 792.33,295.45 	"/>
	<polygon class="st3" points="754.56,230.03 735.67,262.74 773.45,262.74 	"/>
	<polygon class="st3" points="716.78,230.03 697.9,262.74 735.67,262.74 	"/>
	<polygon class="st3" points="679.01,230.03 660.12,262.74 697.9,262.74 	"/>
	<g class="st5">
		<polygon class="st1" points="811.22,262.74 792.33,295.45 830.11,295.45 		"/>
		<polygon class="st1" points="849,262.74 830.11,295.45 867.88,295.45 		"/>
		<polygon class="st1" points="886.77,262.74 867.88,295.45 905.66,295.45 		"/>
		<polygon class="st1" points="867.88,230.03 849,262.74 886.77,262.74 		"/>
		<polygon class="st1" points="830.11,230.03 811.22,262.74 849,262.74 		"/>
	</g>
	<polygon class="st3" points="924.55,262.74 905.66,295.45 943.43,295.45 	"/>
	<polygon class="st3" points="962.32,262.74 943.43,295.45 981.21,295.45 	"/>
	<polygon class="st3" points="1000.1,262.74 981.21,295.45 1018.98,295.45 	"/>
	<polygon class="st3" points="981.21,230.03 962.32,262.74 1000.1,262.74 	"/>
	<polygon class="st3" points="1018.98,230.03 1000.1,262.74 1037.87,262.74 	"/>
	<polygon class="st3" points="943.43,230.03 924.55,262.74 962.32,262.74 	"/>
	<polygon class="st3" points="792.33,230.03 773.45,262.74 811.22,262.74 	"/>
	<polygon class="st3" points="905.66,230.03 886.77,262.74 924.55,262.74 	"/>
	<g class="st5">
		<polygon class="st1" points="1037.87,262.74 1018.98,295.45 1056.76,295.45 		"/>
		<polygon class="st1" points="1075.64,262.74 1056.76,295.45 1094.53,295.45 		"/>
		<polygon class="st1" points="1113.42,262.74 1094.53,295.45 1132.31,295.45 		"/>
		<polygon class="st1" points="1094.53,230.03 1075.64,262.74 1113.42,262.74 		"/>
		<polygon class="st1" points="1056.76,230.03 1037.87,262.74 1075.64,262.74 		"/>
	</g>
	<polygon class="st3" points="1151.19,262.74 1132.31,295.45 1170.08,295.45 	"/>
	<polygon class="st3" points="1188.97,262.74 1170.08,295.45 1207.86,295.45 	"/>
	<polygon class="st3" points="1226.74,262.74 1207.86,295.45 1245.63,295.45 	"/>
	<polygon class="st3" points="1207.86,230.03 1188.97,262.74 1226.74,262.74 	"/>
	<polygon class="st3" points="1245.63,230.03 1226.74,262.74 1264.52,262.74 	"/>
	<polygon class="st3" points="1170.08,230.03 1151.19,262.74 1188.97,262.74 	"/>
	<polygon class="st3" points="1132.31,230.03 1113.42,262.74 1151.19,262.74 	"/>
	<g class="st5">
		<polygon class="st1" points="1264.52,262.74 1245.63,295.45 1283.41,295.45 		"/>
		<polygon class="st1" points="1302.29,262.74 1283.41,295.45 1321.18,295.45 		"/>
		<polygon class="st1" points="1340.07,262.74 1321.18,295.45 1358.96,295.45 		"/>
		<polygon class="st1" points="1321.18,230.03 1302.29,262.74 1340.07,262.74 		"/>
		<polygon class="st1" points="1283.41,230.03 1264.52,262.74 1302.29,262.74 		"/>
	</g>
	<polygon class="st3" points="1377.84,262.74 1358.96,295.45 1396.73,295.45 	"/>
	<polygon class="st3" points="1415.62,262.74 1396.73,295.45 1434.51,295.45 	"/>
	<polygon class="st3" points="1453.39,262.74 1434.51,295.45 1472.28,295.45 	"/>
	<polygon class="st3" points="1434.51,230.03 1415.62,262.74 1453.39,262.74 	"/>
	<polygon class="st3" points="1472.28,230.03 1453.39,262.74 1491.17,262.74 	"/>
	<polygon class="st3" points="1396.73,230.03 1377.84,262.74 1415.62,262.74 	"/>
	<polygon class="st3" points="1358.96,230.03 1340.07,262.74 1377.84,262.74 	"/>
	<g class="st5">
		<polygon class="st1" points="1491.17,262.74 1472.28,295.45 1510.05,295.45 		"/>
		<polygon class="st1" points="1528.94,262.74 1510.05,295.45 1547.83,295.45 		"/>
		<polygon class="st1" points="1566.72,262.74 1547.83,295.45 1585.6,295.45 		"/>
		<polygon class="st1" points="1547.83,230.03 1528.94,262.74 1566.72,262.74 		"/>
		<polygon class="st1" points="1510.05,230.03 1491.17,262.74 1528.94,262.74 		"/>
	</g>
	<polygon class="st3" points="1604.49,262.74 1585.6,295.45 1623.38,295.45 	"/>
	<polygon class="st3" points="1642.27,262.74 1623.38,295.45 1661.15,295.45 	"/>
	<polygon class="st3" points="1680.04,262.74 1661.15,295.45 1698.93,295.45 	"/>
	<polygon class="st3" points="1661.15,230.03 1642.27,262.74 1680.04,262.74 	"/>
	<polygon class="st3" points="1623.38,230.03 1604.49,262.74 1642.27,262.74 	"/>
	<polygon class="st3" points="1585.6,230.03 1566.72,262.74 1604.49,262.74 	"/>
	<g class="st5">
		<polygon class="st1" points="1717.82,262.74 1698.93,295.45 1736.7,295.45 		"/>
		<polygon class="st1" points="1755.59,262.74 1736.7,295.45 1774.48,295.45 		"/>
		<polygon class="st1" points="1793.37,262.74 1774.48,295.45 1812.25,295.45 		"/>
		<polygon class="st1" points="1774.48,230.03 1755.59,262.74 1793.37,262.74 		"/>
		<polygon class="st1" points="1736.7,230.03 1717.82,262.74 1755.59,262.74 		"/>
	</g>
	<polygon class="st3" points="1831.14,262.74 1812.25,295.45 1850.03,295.45 	"/>
	<polygon class="st3" points="1868.92,262.74 1850.03,295.45 1887.8,295.45 	"/>
	<polygon class="st3" points="1906.69,262.74 1887.8,295.45 1925.58,295.45 	"/>
	<polygon class="st3" points="1887.8,230.03 1868.92,262.74 1906.69,262.74 	"/>
	<polygon class="st3" points="1698.93,230.03 1680.04,262.74 1717.82,262.74 	"/>
	<polygon class="st3" points="1925.58,230.03 1906.69,262.74 1944.46,262.74 	"/>
	<polygon class="st3" points="1850.03,230.03 1831.14,262.74 1868.92,262.74 	"/>
	<polygon class="st3" points="1812.25,230.03 1793.37,262.74 1831.14,262.74 	"/>
	<g class="st5">
		<polygon class="st1" points="1944.46,262.74 1925.58,295.45 1963.35,295.45 		"/>
		<polygon class="st1" points="1982.24,262.74 1963.35,295.45 2001.13,295.45 		"/>
		<polygon class="st1" points="2020.01,262.74 2001.13,295.45 2038.9,295.45 		"/>
		<polygon class="st1" points="2001.13,230.03 1982.24,262.74 2020.01,262.74 		"/>
		<polygon class="st1" points="1963.35,230.03 1944.46,262.74 1982.24,262.74 		"/>
	</g>
	<polygon class="st3" points="2057.79,262.74 2038.9,295.45 2076.68,295.45 	"/>
	<polygon class="st3" points="2095.56,262.74 2076.68,295.45 2114.45,295.45 	"/>
	<polygon class="st3" points="2114.45,230.03 2095.56,262.74 2133.34,262.74 	"/>
	<polygon class="st3" points="2076.68,230.03 2057.79,262.74 2095.56,262.74 	"/>
	<polygon class="st3" points="2038.9,230.03 2020.01,262.74 2057.79,262.74 	"/>
	<g class="st5">
		<polygon class="st1" points="-95.37,197.31 -114.26,230.03 -76.49,230.03 		"/>
		<polygon class="st1" points="-57.6,197.31 -76.49,230.03 -38.71,230.03 		"/>
		<polygon class="st1" points="-19.82,197.31 -38.71,230.03 -0.94,230.03 		"/>
		<polygon class="st1" points="-38.71,164.6 -57.6,197.31 -19.82,197.31 		"/>
		<polygon class="st1" points="-76.49,164.6 -95.37,197.31 -57.6,197.31 		"/>
	</g>
	<polygon class="st3" points="17.95,197.31 -0.94,230.03 36.84,230.03 	"/>
	<polygon class="st3" points="55.73,197.31 36.84,230.03 74.61,230.03 	"/>
	<polygon class="st3" points="93.5,197.31 74.61,230.03 112.39,230.03 	"/>
	<polygon class="st3" points="74.61,164.6 55.73,197.31 93.5,197.31 	"/>
	<polygon class="st3" points="112.39,164.6 93.5,197.31 131.28,197.31 	"/>
	<polygon class="st3" points="36.84,164.6 17.95,197.31 55.73,197.31 	"/>
	<polygon class="st3" points="-0.94,164.6 -19.82,197.31 17.95,197.31 	"/>
	<g class="st5">
		<polygon class="st1" points="131.28,197.31 112.39,230.03 150.16,230.03 		"/>
		<polygon class="st1" points="169.05,197.31 150.16,230.03 187.94,230.03 		"/>
		<polygon class="st1" points="206.83,197.31 187.94,230.03 225.71,230.03 		"/>
		<polygon class="st1" points="187.94,164.6 169.05,197.31 206.83,197.31 		"/>
		<polygon class="st1" points="150.16,164.6 131.28,197.31 169.05,197.31 		"/>
	</g>
	<polygon class="st3" points="244.6,197.31 225.71,230.03 263.49,230.03 	"/>
	<polygon class="st3" points="282.37,197.31 263.49,230.03 301.26,230.03 	"/>
	<polygon class="st3" points="320.15,197.31 301.26,230.03 339.04,230.03 	"/>
	<polygon class="st3" points="301.26,164.6 282.37,197.31 320.15,197.31 	"/>
	<polygon class="st3" points="339.04,164.6 320.15,197.31 357.92,197.31 	"/>
	<polygon class="st3" points="263.49,164.6 244.6,197.31 282.37,197.31 	"/>
	<polygon class="st3" points="225.71,164.6 206.83,197.31 244.6,197.31 	"/>
	<g class="st5">
		<polygon class="st1" points="357.92,197.31 339.04,230.03 376.81,230.03 		"/>
		<polygon class="st1" points="395.7,197.31 376.81,230.03 414.59,230.03 		"/>
		<polygon class="st1" points="433.47,197.31 414.59,230.03 452.36,230.03 		"/>
		<polygon class="st1" points="414.59,164.6 395.7,197.31 433.47,197.31 		"/>
		<polygon class="st1" points="376.81,164.6 357.92,197.31 395.7,197.31 		"/>
	</g>
	<polygon class="st3" points="471.25,197.31 452.36,230.03 490.14,230.03 	"/>
	<polygon class="st3" points="509.02,197.31 490.14,230.03 527.91,230.03 	"/>
	<polygon class="st3" points="546.8,197.31 527.91,230.03 565.69,230.03 	"/>
	<polygon class="st3" points="527.91,164.6 509.02,197.31 546.8,197.31 	"/>
	<polygon class="st3" points="565.69,164.6 546.8,197.31 584.57,197.31 	"/>
	<polygon class="st3" points="490.14,164.6 471.25,197.31 509.02,197.31 	"/>
	<polygon class="st3" points="452.36,164.6 433.47,197.31 471.25,197.31 	"/>
	<g class="st5">
		<polygon class="st1" points="584.57,197.31 565.69,230.03 603.46,230.03 		"/>
		<polygon class="st1" points="622.35,197.31 603.46,230.03 641.23,230.03 		"/>
		<polygon class="st1" points="660.12,197.31 641.23,230.03 679.01,230.03 		"/>
		<polygon class="st1" points="641.23,164.6 622.35,197.31 660.12,197.31 		"/>
		<polygon class="st1" points="603.46,164.6 584.57,197.31 622.35,197.31 		"/>
	</g>
	<polygon class="st3" points="697.9,197.31 679.01,230.03 716.78,230.03 	"/>
	<polygon class="st3" points="735.67,197.31 716.78,230.03 754.56,230.03 	"/>
	<polygon class="st3" points="773.45,197.31 754.56,230.03 792.33,230.03 	"/>
	<polygon class="st3" points="754.56,164.6 735.67,197.31 773.45,197.31 	"/>
	<polygon class="st3" points="716.78,164.6 697.9,197.31 735.67,197.31 	"/>
	<polygon class="st3" points="679.01,164.6 660.12,197.31 697.9,197.31 	"/>
	<g class="st5">
		<polygon class="st1" points="811.22,197.31 792.33,230.03 830.11,230.03 		"/>
		<polygon class="st1" points="849,197.31 830.11,230.03 867.88,230.03 		"/>
		<polygon class="st1" points="886.77,197.31 867.88,230.03 905.66,230.03 		"/>
		<polygon class="st1" points="867.88,164.6 849,197.31 886.77,197.31 		"/>
		<polygon class="st1" points="830.11,164.6 811.22,197.31 849,197.31 		"/>
	</g>
	<polygon class="st3" points="924.55,197.31 905.66,230.03 943.43,230.03 	"/>
	<polygon class="st3" points="962.32,197.31 943.43,230.03 981.21,230.03 	"/>
	<polygon class="st3" points="1000.1,197.31 981.21,230.03 1018.98,230.03 	"/>
	<polygon class="st3" points="981.21,164.6 962.32,197.31 1000.1,197.31 	"/>
	<polygon class="st3" points="1018.98,164.6 1000.1,197.31 1037.87,197.31 	"/>
	<polygon class="st3" points="943.43,164.6 924.55,197.31 962.32,197.31 	"/>
	<polygon class="st3" points="792.33,164.6 773.45,197.31 811.22,197.31 	"/>
	<polygon class="st3" points="905.66,164.6 886.77,197.31 924.55,197.31 	"/>
	<g class="st5">
		<polygon class="st1" points="1037.87,197.31 1018.98,230.03 1056.76,230.03 		"/>
		<polygon class="st1" points="1075.64,197.31 1056.76,230.03 1094.53,230.03 		"/>
		<polygon class="st1" points="1113.42,197.31 1094.53,230.03 1132.31,230.03 		"/>
		<polygon class="st1" points="1094.53,164.6 1075.64,197.31 1113.42,197.31 		"/>
		<polygon class="st1" points="1056.76,164.6 1037.87,197.31 1075.64,197.31 		"/>
	</g>
	<polygon class="st3" points="1151.19,197.31 1132.31,230.03 1170.08,230.03 	"/>
	<polygon class="st3" points="1188.97,197.31 1170.08,230.03 1207.86,230.03 	"/>
	<polygon class="st3" points="1226.74,197.31 1207.86,230.03 1245.63,230.03 	"/>
	<polygon class="st3" points="1207.86,164.6 1188.97,197.31 1226.74,197.31 	"/>
	<polygon class="st3" points="1245.63,164.6 1226.74,197.31 1264.52,197.31 	"/>
	<polygon class="st3" points="1170.08,164.6 1151.19,197.31 1188.97,197.31 	"/>
	<polygon class="st3" points="1132.31,164.6 1113.42,197.31 1151.19,197.31 	"/>
	<g class="st5">
		<polygon class="st1" points="1264.52,197.31 1245.63,230.03 1283.41,230.03 		"/>
		<polygon class="st1" points="1302.29,197.31 1283.41,230.03 1321.18,230.03 		"/>
		<polygon class="st1" points="1340.07,197.31 1321.18,230.03 1358.96,230.03 		"/>
		<polygon class="st1" points="1321.18,164.6 1302.29,197.31 1340.07,197.31 		"/>
		<polygon class="st1" points="1283.41,164.6 1264.52,197.31 1302.29,197.31 		"/>
	</g>
	<polygon class="st3" points="1377.84,197.31 1358.96,230.03 1396.73,230.03 	"/>
	<polygon class="st3" points="1415.62,197.31 1396.73,230.03 1434.51,230.03 	"/>
	<polygon class="st3" points="1453.39,197.31 1434.51,230.03 1472.28,230.03 	"/>
	<polygon class="st3" points="1434.51,164.6 1415.62,197.31 1453.39,197.31 	"/>
	<polygon class="st3" points="1472.28,164.6 1453.39,197.31 1491.17,197.31 	"/>
	<polygon class="st3" points="1396.73,164.6 1377.84,197.31 1415.62,197.31 	"/>
	<polygon class="st3" points="1358.96,164.6 1340.07,197.31 1377.84,197.31 	"/>
	<g class="st5">
		<polygon class="st1" points="1491.17,197.31 1472.28,230.03 1510.05,230.03 		"/>
		<polygon class="st1" points="1528.94,197.31 1510.05,230.03 1547.83,230.03 		"/>
		<polygon class="st1" points="1566.72,197.31 1547.83,230.03 1585.6,230.03 		"/>
		<polygon class="st1" points="1547.83,164.6 1528.94,197.31 1566.72,197.31 		"/>
		<polygon class="st1" points="1510.05,164.6 1491.17,197.31 1528.94,197.31 		"/>
	</g>
	<polygon class="st3" points="1604.49,197.31 1585.6,230.03 1623.38,230.03 	"/>
	<polygon class="st3" points="1642.27,197.31 1623.38,230.03 1661.15,230.03 	"/>
	<polygon class="st3" points="1680.04,197.31 1661.15,230.03 1698.93,230.03 	"/>
	<polygon class="st3" points="1661.15,164.6 1642.27,197.31 1680.04,197.31 	"/>
	<polygon class="st3" points="1623.38,164.6 1604.49,197.31 1642.27,197.31 	"/>
	<polygon class="st3" points="1585.6,164.6 1566.72,197.31 1604.49,197.31 	"/>
	<g class="st5">
		<polygon class="st1" points="1717.82,197.31 1698.93,230.03 1736.7,230.03 		"/>
		<polygon class="st1" points="1755.59,197.31 1736.7,230.03 1774.48,230.03 		"/>
		<polygon class="st1" points="1793.37,197.31 1774.48,230.03 1812.25,230.03 		"/>
		<polygon class="st1" points="1774.48,164.6 1755.59,197.31 1793.37,197.31 		"/>
		<polygon class="st1" points="1736.7,164.6 1717.82,197.31 1755.59,197.31 		"/>
	</g>
	<polygon class="st3" points="1831.14,197.31 1812.25,230.03 1850.03,230.03 	"/>
	<polygon class="st3" points="1868.92,197.31 1850.03,230.03 1887.8,230.03 	"/>
	<polygon class="st3" points="1906.69,197.31 1887.8,230.03 1925.58,230.03 	"/>
	<polygon class="st3" points="1887.8,164.6 1868.92,197.31 1906.69,197.31 	"/>
	<polygon class="st3" points="1698.93,164.6 1680.04,197.31 1717.82,197.31 	"/>
	<polygon class="st3" points="1925.58,164.6 1906.69,197.31 1944.46,197.31 	"/>
	<polygon class="st3" points="1850.03,164.6 1831.14,197.31 1868.92,197.31 	"/>
	<polygon class="st3" points="1812.25,164.6 1793.37,197.31 1831.14,197.31 	"/>
	<g class="st5">
		<polygon class="st1" points="1944.46,197.31 1925.58,230.03 1963.35,230.03 		"/>
		<polygon class="st1" points="1982.24,197.31 1963.35,230.03 2001.13,230.03 		"/>
		<polygon class="st1" points="2020.01,197.31 2001.13,230.03 2038.9,230.03 		"/>
		<polygon class="st1" points="2001.13,164.6 1982.24,197.31 2020.01,197.31 		"/>
		<polygon class="st1" points="1963.35,164.6 1944.46,197.31 1982.24,197.31 		"/>
	</g>
	<polygon class="st3" points="2038.9,164.6 2020.01,197.31 2057.79,197.31 	"/>
	<g class="st5">
		<polygon class="st1" points="-95.37,131.89 -114.26,164.6 -76.49,164.6 		"/>
		<polygon class="st1" points="-57.6,131.89 -76.49,164.6 -38.71,164.6 		"/>
		<polygon class="st1" points="-19.82,131.89 -38.71,164.6 -0.94,164.6 		"/>
		<polygon class="st1" points="-38.71,99.17 -57.6,131.89 -19.82,131.89 		"/>
		<polygon class="st1" points="-76.49,99.17 -95.37,131.89 -57.6,131.89 		"/>
	</g>
	<polygon class="st3" points="17.95,131.89 -0.94,164.6 36.84,164.6 	"/>
	<polygon class="st3" points="55.73,131.89 36.84,164.6 74.61,164.6 	"/>
	<polygon class="st3" points="93.5,131.89 74.61,164.6 112.39,164.6 	"/>
	<polygon class="st3" points="74.61,99.17 55.73,131.89 93.5,131.89 	"/>
	<polygon class="st3" points="112.39,99.17 93.5,131.89 131.28,131.89 	"/>
	<polygon class="st3" points="36.84,99.17 17.95,131.89 55.73,131.89 	"/>
	<polygon class="st3" points="-0.94,99.17 -19.82,131.89 17.95,131.89 	"/>
	<g class="st5">
		<polygon class="st1" points="131.28,131.89 112.39,164.6 150.16,164.6 		"/>
		<polygon class="st1" points="169.05,131.89 150.16,164.6 187.94,164.6 		"/>
		<polygon class="st1" points="206.83,131.89 187.94,164.6 225.71,164.6 		"/>
		<polygon class="st1" points="187.94,99.17 169.05,131.89 206.83,131.89 		"/>
		<polygon class="st1" points="150.16,99.17 131.28,131.89 169.05,131.89 		"/>
	</g>
	<polygon class="st3" points="244.6,131.89 225.71,164.6 263.49,164.6 	"/>
	<polygon class="st3" points="282.37,131.89 263.49,164.6 301.26,164.6 	"/>
	<polygon class="st3" points="320.15,131.89 301.26,164.6 339.04,164.6 	"/>
	<polygon class="st3" points="301.26,99.17 282.37,131.89 320.15,131.89 	"/>
	<polygon class="st3" points="339.04,99.17 320.15,131.89 357.92,131.89 	"/>
	<polygon class="st3" points="263.49,99.17 244.6,131.89 282.37,131.89 	"/>
	<polygon class="st3" points="225.71,99.17 206.83,131.89 244.6,131.89 	"/>
	<g class="st5">
		<polygon class="st1" points="357.92,131.89 339.04,164.6 376.81,164.6 		"/>
		<polygon class="st1" points="395.7,131.89 376.81,164.6 414.59,164.6 		"/>
		<polygon class="st1" points="433.47,131.89 414.59,164.6 452.36,164.6 		"/>
		<polygon class="st1" points="414.59,99.17 395.7,131.89 433.47,131.89 		"/>
		<polygon class="st1" points="376.81,99.17 357.92,131.89 395.7,131.89 		"/>
	</g>
	<polygon class="st3" points="471.25,131.89 452.36,164.6 490.14,164.6 	"/>
	<polygon class="st3" points="509.02,131.89 490.14,164.6 527.91,164.6 	"/>
	<polygon class="st3" points="546.8,131.89 527.91,164.6 565.69,164.6 	"/>
	<polygon class="st3" points="527.91,99.17 509.02,131.89 546.8,131.89 	"/>
	<polygon class="st3" points="565.69,99.17 546.8,131.89 584.57,131.89 	"/>
	<polygon class="st3" points="490.14,99.17 471.25,131.89 509.02,131.89 	"/>
	<polygon class="st3" points="452.36,99.17 433.47,131.89 471.25,131.89 	"/>
	<g class="st5">
		<polygon class="st1" points="584.57,131.89 565.69,164.6 603.46,164.6 		"/>
		<polygon class="st1" points="622.35,131.89 603.46,164.6 641.23,164.6 		"/>
		<polygon class="st1" points="660.12,131.89 641.23,164.6 679.01,164.6 		"/>
		<polygon class="st1" points="641.23,99.17 622.35,131.89 660.12,131.89 		"/>
		<polygon class="st1" points="603.46,99.17 584.57,131.89 622.35,131.89 		"/>
	</g>
	<polygon class="st3" points="697.9,131.89 679.01,164.6 716.78,164.6 	"/>
	<polygon class="st3" points="735.67,131.89 716.78,164.6 754.56,164.6 	"/>
	<polygon class="st3" points="773.45,131.89 754.56,164.6 792.33,164.6 	"/>
	<polygon class="st3" points="754.56,99.17 735.67,131.89 773.45,131.89 	"/>
	<polygon class="st3" points="716.78,99.17 697.9,131.89 735.67,131.89 	"/>
	<polygon class="st3" points="679.01,99.17 660.12,131.89 697.9,131.89 	"/>
	<g class="st5">
		<polygon class="st1" points="811.22,131.89 792.33,164.6 830.11,164.6 		"/>
		<polygon class="st1" points="849,131.89 830.11,164.6 867.88,164.6 		"/>
		<polygon class="st1" points="886.77,131.89 867.88,164.6 905.66,164.6 		"/>
		<polygon class="st1" points="867.88,99.17 849,131.89 886.77,131.89 		"/>
		<polygon class="st1" points="830.11,99.17 811.22,131.89 849,131.89 		"/>
	</g>
	<polygon class="st3" points="924.55,131.89 905.66,164.6 943.43,164.6 	"/>
	<polygon class="st3" points="962.32,131.89 943.43,164.6 981.21,164.6 	"/>
	<polygon class="st3" points="1000.1,131.89 981.21,164.6 1018.98,164.6 	"/>
	<polygon class="st3" points="981.21,99.17 962.32,131.89 1000.1,131.89 	"/>
	<polygon class="st3" points="1018.98,99.17 1000.1,131.89 1037.87,131.89 	"/>
	<polygon class="st3" points="943.43,99.17 924.55,131.89 962.32,131.89 	"/>
	<polygon class="st3" points="792.33,99.17 773.45,131.89 811.22,131.89 	"/>
	<polygon class="st3" points="905.66,99.17 886.77,131.89 924.55,131.89 	"/>
	<g class="st5">
		<polygon class="st1" points="1037.87,131.89 1018.98,164.6 1056.76,164.6 		"/>
		<polygon class="st1" points="1075.64,131.89 1056.76,164.6 1094.53,164.6 		"/>
		<polygon class="st1" points="1113.42,131.89 1094.53,164.6 1132.31,164.6 		"/>
		<polygon class="st1" points="1094.53,99.17 1075.64,131.89 1113.42,131.89 		"/>
		<polygon class="st1" points="1056.76,99.17 1037.87,131.89 1075.64,131.89 		"/>
	</g>
	<polygon class="st3" points="1151.19,131.89 1132.31,164.6 1170.08,164.6 	"/>
	<polygon class="st3" points="1188.97,131.89 1170.08,164.6 1207.86,164.6 	"/>
	<polygon class="st3" points="1226.74,131.89 1207.86,164.6 1245.63,164.6 	"/>
	<polygon class="st3" points="1207.86,99.17 1188.97,131.89 1226.74,131.89 	"/>
	<polygon class="st3" points="1245.63,99.17 1226.74,131.89 1264.52,131.89 	"/>
	<polygon class="st3" points="1170.08,99.17 1151.19,131.89 1188.97,131.89 	"/>
	<polygon class="st3" points="1132.31,99.17 1113.42,131.89 1151.19,131.89 	"/>
	<g class="st5">
		<polygon class="st1" points="1264.52,131.89 1245.63,164.6 1283.41,164.6 		"/>
		<polygon class="st1" points="1302.29,131.89 1283.41,164.6 1321.18,164.6 		"/>
		<polygon class="st1" points="1340.07,131.89 1321.18,164.6 1358.96,164.6 		"/>
		<polygon class="st1" points="1321.18,99.17 1302.29,131.89 1340.07,131.89 		"/>
		<polygon class="st1" points="1283.41,99.17 1264.52,131.89 1302.29,131.89 		"/>
	</g>
	<polygon class="st3" points="1377.84,131.89 1358.96,164.6 1396.73,164.6 	"/>
	<polygon class="st3" points="1415.62,131.89 1396.73,164.6 1434.51,164.6 	"/>
	<polygon class="st3" points="1453.39,131.89 1434.51,164.6 1472.28,164.6 	"/>
	<polygon class="st3" points="1434.51,99.17 1415.62,131.89 1453.39,131.89 	"/>
	<polygon class="st3" points="1472.28,99.17 1453.39,131.89 1491.17,131.89 	"/>
	<polygon class="st3" points="1396.73,99.17 1377.84,131.89 1415.62,131.89 	"/>
	<polygon class="st3" points="1358.96,99.17 1340.07,131.89 1377.84,131.89 	"/>
	<g class="st5">
		<polygon class="st1" points="1491.17,131.89 1472.28,164.6 1510.05,164.6 		"/>
		<polygon class="st1" points="1528.94,131.89 1510.05,164.6 1547.83,164.6 		"/>
		<polygon class="st1" points="1566.72,131.89 1547.83,164.6 1585.6,164.6 		"/>
		<polygon class="st1" points="1547.83,99.17 1528.94,131.89 1566.72,131.89 		"/>
		<polygon class="st1" points="1510.05,99.17 1491.17,131.89 1528.94,131.89 		"/>
	</g>
	<polygon class="st3" points="1604.49,131.89 1585.6,164.6 1623.38,164.6 	"/>
	<polygon class="st3" points="1642.27,131.89 1623.38,164.6 1661.15,164.6 	"/>
	<polygon class="st3" points="1680.04,131.89 1661.15,164.6 1698.93,164.6 	"/>
	<polygon class="st3" points="1661.15,99.17 1642.27,131.89 1680.04,131.89 	"/>
	<polygon class="st3" points="1623.38,99.17 1604.49,131.89 1642.27,131.89 	"/>
	<polygon class="st3" points="1585.6,99.17 1566.72,131.89 1604.49,131.89 	"/>
	<g class="st5">
		<polygon class="st1" points="1717.82,131.89 1698.93,164.6 1736.7,164.6 		"/>
		<polygon class="st1" points="1755.59,131.89 1736.7,164.6 1774.48,164.6 		"/>
		<polygon class="st1" points="1793.37,131.89 1774.48,164.6 1812.25,164.6 		"/>
		<polygon class="st1" points="1774.48,99.17 1755.59,131.89 1793.37,131.89 		"/>
		<polygon class="st1" points="1736.7,99.17 1717.82,131.89 1755.59,131.89 		"/>
	</g>
	<polygon class="st3" points="1831.14,131.89 1812.25,164.6 1850.03,164.6 	"/>
	<polygon class="st3" points="1868.92,131.89 1850.03,164.6 1887.8,164.6 	"/>
	<polygon class="st3" points="1906.69,131.89 1887.8,164.6 1925.58,164.6 	"/>
	<polygon class="st3" points="1887.8,99.17 1868.92,131.89 1906.69,131.89 	"/>
	<polygon class="st3" points="1698.93,99.17 1680.04,131.89 1717.82,131.89 	"/>
	<polygon class="st3" points="1925.58,99.17 1906.69,131.89 1944.46,131.89 	"/>
	<polygon class="st3" points="1850.03,99.17 1831.14,131.89 1868.92,131.89 	"/>
	<polygon class="st3" points="1812.25,99.17 1793.37,131.89 1831.14,131.89 	"/>
	<g class="st5">
		<polygon class="st1" points="1944.46,131.89 1925.58,164.6 1963.35,164.6 		"/>
		<polygon class="st1" points="1982.24,131.89 1963.35,164.6 2001.13,164.6 		"/>
		<polygon class="st1" points="2020.01,131.89 2001.13,164.6 2038.9,164.6 		"/>
		<polygon class="st1" points="2001.13,99.17 1982.24,131.89 2020.01,131.89 		"/>
		<polygon class="st1" points="1963.35,99.17 1944.46,131.89 1982.24,131.89 		"/>
	</g>
	<polygon class="st3" points="2057.79,131.89 2038.9,164.6 2076.68,164.6 	"/>
	<polygon class="st3" points="2095.56,131.89 2076.68,164.6 2114.45,164.6 	"/>
	<polygon class="st3" points="2114.45,99.17 2095.56,131.89 2133.34,131.89 	"/>
	<polygon class="st3" points="2076.68,99.17 2057.79,131.89 2095.56,131.89 	"/>
	<polygon class="st3" points="2038.9,99.17 2020.01,131.89 2057.79,131.89 	"/>
	<g class="st5">
		<polygon class="st1" points="-95.37,66.46 -114.26,99.17 -76.49,99.17 		"/>
		<polygon class="st1" points="-57.6,66.46 -76.49,99.17 -38.71,99.17 		"/>
		<polygon class="st1" points="-19.82,66.46 -38.71,99.17 -0.94,99.17 		"/>
		<polygon class="st1" points="-38.71,33.74 -57.6,66.46 -19.82,66.46 		"/>
		<polygon class="st1" points="-76.49,33.74 -95.37,66.46 -57.6,66.46 		"/>
	</g>
	<polygon class="st3" points="17.95,66.46 -0.94,99.17 36.84,99.17 	"/>
	<polygon class="st3" points="55.73,66.46 36.84,99.17 74.61,99.17 	"/>
	<polygon class="st3" points="93.5,66.46 74.61,99.17 112.39,99.17 	"/>
	<polygon class="st3" points="74.61,33.74 55.73,66.46 93.5,66.46 	"/>
	<polygon class="st3" points="112.39,33.74 93.5,66.46 131.28,66.46 	"/>
	<polygon class="st3" points="36.84,33.74 17.95,66.46 55.73,66.46 	"/>
	<polygon class="st3" points="-0.94,33.74 -19.82,66.46 17.95,66.46 	"/>
	<g class="st5">
		<polygon class="st1" points="131.28,66.46 112.39,99.17 150.16,99.17 		"/>
		<polygon class="st1" points="169.05,66.46 150.16,99.17 187.94,99.17 		"/>
		<polygon class="st1" points="206.83,66.46 187.94,99.17 225.71,99.17 		"/>
		<polygon class="st1" points="187.94,33.74 169.05,66.46 206.83,66.46 		"/>
		<polygon class="st1" points="150.16,33.74 131.28,66.46 169.05,66.46 		"/>
	</g>
	<polygon class="st3" points="244.6,66.46 225.71,99.17 263.49,99.17 	"/>
	<polygon class="st3" points="282.37,66.46 263.49,99.17 301.26,99.17 	"/>
	<polygon class="st3" points="320.15,66.46 301.26,99.17 339.04,99.17 	"/>
	<polygon class="st3" points="301.26,33.74 282.37,66.46 320.15,66.46 	"/>
	<polygon class="st3" points="339.04,33.74 320.15,66.46 357.92,66.46 	"/>
	<polygon class="st3" points="263.49,33.74 244.6,66.46 282.37,66.46 	"/>
	<polygon class="st3" points="225.71,33.74 206.83,66.46 244.6,66.46 	"/>
	<g class="st5">
		<polygon class="st1" points="357.92,66.46 339.04,99.17 376.81,99.17 		"/>
		<polygon class="st1" points="395.7,66.46 376.81,99.17 414.59,99.17 		"/>
		<polygon class="st1" points="433.47,66.46 414.59,99.17 452.36,99.17 		"/>
		<polygon class="st1" points="414.59,33.74 395.7,66.46 433.47,66.46 		"/>
		<polygon class="st1" points="376.81,33.74 357.92,66.46 395.7,66.46 		"/>
	</g>
	<polygon class="st3" points="471.25,66.46 452.36,99.17 490.14,99.17 	"/>
	<polygon class="st3" points="509.02,66.46 490.14,99.17 527.91,99.17 	"/>
	<polygon class="st3" points="546.8,66.46 527.91,99.17 565.69,99.17 	"/>
	<polygon class="st3" points="527.91,33.74 509.02,66.46 546.8,66.46 	"/>
	<polygon class="st3" points="565.69,33.74 546.8,66.46 584.57,66.46 	"/>
	<polygon class="st3" points="490.14,33.74 471.25,66.46 509.02,66.46 	"/>
	<polygon class="st3" points="452.36,33.74 433.47,66.46 471.25,66.46 	"/>
	<g class="st5">
		<polygon class="st1" points="584.57,66.46 565.69,99.17 603.46,99.17 		"/>
		<polygon class="st1" points="622.35,66.46 603.46,99.17 641.23,99.17 		"/>
		<polygon class="st1" points="660.12,66.46 641.23,99.17 679.01,99.17 		"/>
		<polygon class="st1" points="641.23,33.74 622.35,66.46 660.12,66.46 		"/>
		<polygon class="st1" points="603.46,33.74 584.57,66.46 622.35,66.46 		"/>
	</g>
	<polygon class="st3" points="697.9,66.46 679.01,99.17 716.78,99.17 	"/>
	<polygon class="st3" points="735.67,66.46 716.78,99.17 754.56,99.17 	"/>
	<polygon class="st3" points="773.45,66.46 754.56,99.17 792.33,99.17 	"/>
	<polygon class="st3" points="754.56,33.74 735.67,66.46 773.45,66.46 	"/>
	<polygon class="st3" points="716.78,33.74 697.9,66.46 735.67,66.46 	"/>
	<polygon class="st3" points="679.01,33.74 660.12,66.46 697.9,66.46 	"/>
	<g class="st5">
		<polygon class="st1" points="811.22,66.46 792.33,99.17 830.11,99.17 		"/>
		<polygon class="st1" points="849,66.46 830.11,99.17 867.88,99.17 		"/>
		<polygon class="st1" points="886.77,66.46 867.88,99.17 905.66,99.17 		"/>
		<polygon class="st1" points="867.88,33.74 849,66.46 886.77,66.46 		"/>
		<polygon class="st1" points="830.11,33.74 811.22,66.46 849,66.46 		"/>
	</g>
	<polygon class="st3" points="924.55,66.46 905.66,99.17 943.43,99.17 	"/>
	<polygon class="st3" points="962.32,66.46 943.43,99.17 981.21,99.17 	"/>
	<polygon class="st3" points="1000.1,66.46 981.21,99.17 1018.98,99.17 	"/>
	<polygon class="st3" points="981.21,33.74 962.32,66.46 1000.1,66.46 	"/>
	<polygon class="st3" points="1018.98,33.74 1000.1,66.46 1037.87,66.46 	"/>
	<polygon class="st3" points="943.43,33.74 924.55,66.46 962.32,66.46 	"/>
	<polygon class="st3" points="792.33,33.74 773.45,66.46 811.22,66.46 	"/>
	<polygon class="st3" points="905.66,33.74 886.77,66.46 924.55,66.46 	"/>
	<g class="st5">
		<polygon class="st1" points="1037.87,66.46 1018.98,99.17 1056.76,99.17 		"/>
		<polygon class="st1" points="1075.64,66.46 1056.76,99.17 1094.53,99.17 		"/>
		<polygon class="st1" points="1113.42,66.46 1094.53,99.17 1132.31,99.17 		"/>
		<polygon class="st1" points="1094.53,33.74 1075.64,66.46 1113.42,66.46 		"/>
		<polygon class="st1" points="1056.76,33.74 1037.87,66.46 1075.64,66.46 		"/>
	</g>
	<polygon class="st3" points="1151.19,66.46 1132.31,99.17 1170.08,99.17 	"/>
	<polygon class="st3" points="1188.97,66.46 1170.08,99.17 1207.86,99.17 	"/>
	<polygon class="st3" points="1226.74,66.46 1207.86,99.17 1245.63,99.17 	"/>
	<polygon class="st3" points="1207.86,33.74 1188.97,66.46 1226.74,66.46 	"/>
	<polygon class="st3" points="1245.63,33.74 1226.74,66.46 1264.52,66.46 	"/>
	<polygon class="st3" points="1170.08,33.74 1151.19,66.46 1188.97,66.46 	"/>
	<polygon class="st3" points="1132.31,33.74 1113.42,66.46 1151.19,66.46 	"/>
	<g class="st5">
		<polygon class="st1" points="1264.52,66.46 1245.63,99.17 1283.41,99.17 		"/>
		<polygon class="st1" points="1302.29,66.46 1283.41,99.17 1321.18,99.17 		"/>
		<polygon class="st1" points="1340.07,66.46 1321.18,99.17 1358.96,99.17 		"/>
		<polygon class="st1" points="1321.18,33.74 1302.29,66.46 1340.07,66.46 		"/>
		<polygon class="st1" points="1283.41,33.74 1264.52,66.46 1302.29,66.46 		"/>
	</g>
	<polygon class="st3" points="1377.84,66.46 1358.96,99.17 1396.73,99.17 	"/>
	<polygon class="st3" points="1415.62,66.46 1396.73,99.17 1434.51,99.17 	"/>
	<polygon class="st3" points="1453.39,66.46 1434.51,99.17 1472.28,99.17 	"/>
	<polygon class="st3" points="1434.51,33.74 1415.62,66.46 1453.39,66.46 	"/>
	<polygon class="st3" points="1472.28,33.74 1453.39,66.46 1491.17,66.46 	"/>
	<polygon class="st3" points="1396.73,33.74 1377.84,66.46 1415.62,66.46 	"/>
	<polygon class="st3" points="1358.96,33.74 1340.07,66.46 1377.84,66.46 	"/>
	<g class="st5">
		<polygon class="st1" points="1491.17,66.46 1472.28,99.17 1510.05,99.17 		"/>
		<polygon class="st1" points="1528.94,66.46 1510.05,99.17 1547.83,99.17 		"/>
		<polygon class="st1" points="1566.72,66.46 1547.83,99.17 1585.6,99.17 		"/>
		<polygon class="st1" points="1547.83,33.74 1528.94,66.46 1566.72,66.46 		"/>
		<polygon class="st1" points="1510.05,33.74 1491.17,66.46 1528.94,66.46 		"/>
	</g>
	<polygon class="st3" points="1604.49,66.46 1585.6,99.17 1623.38,99.17 	"/>
	<polygon class="st3" points="1642.27,66.46 1623.38,99.17 1661.15,99.17 	"/>
	<polygon class="st3" points="1680.04,66.46 1661.15,99.17 1698.93,99.17 	"/>
	<polygon class="st3" points="1661.15,33.74 1642.27,66.46 1680.04,66.46 	"/>
	<polygon class="st3" points="1623.38,33.74 1604.49,66.46 1642.27,66.46 	"/>
	<polygon class="st3" points="1585.6,33.74 1566.72,66.46 1604.49,66.46 	"/>
	<g class="st5">
		<polygon class="st1" points="1717.82,66.46 1698.93,99.17 1736.7,99.17 		"/>
		<polygon class="st1" points="1755.59,66.46 1736.7,99.17 1774.48,99.17 		"/>
		<polygon class="st1" points="1793.37,66.46 1774.48,99.17 1812.25,99.17 		"/>
		<polygon class="st1" points="1774.48,33.74 1755.59,66.46 1793.37,66.46 		"/>
		<polygon class="st1" points="1736.7,33.74 1717.82,66.46 1755.59,66.46 		"/>
	</g>
	<polygon class="st3" points="1831.14,66.46 1812.25,99.17 1850.03,99.17 	"/>
	<polygon class="st3" points="1868.92,66.46 1850.03,99.17 1887.8,99.17 	"/>
	<polygon class="st3" points="1906.69,66.46 1887.8,99.17 1925.58,99.17 	"/>
	<polygon class="st3" points="1887.8,33.74 1868.92,66.46 1906.69,66.46 	"/>
	<polygon class="st3" points="1698.93,33.74 1680.04,66.46 1717.82,66.46 	"/>
	<polygon class="st3" points="1925.58,33.74 1906.69,66.46 1944.46,66.46 	"/>
	<polygon class="st3" points="1850.03,33.74 1831.14,66.46 1868.92,66.46 	"/>
	<polygon class="st3" points="1812.25,33.74 1793.37,66.46 1831.14,66.46 	"/>
	<g class="st5">
		<polygon class="st1" points="1944.46,66.46 1925.58,99.17 1963.35,99.17 		"/>
		<polygon class="st1" points="1982.24,66.46 1963.35,99.17 2001.13,99.17 		"/>
		<polygon class="st1" points="2020.01,66.46 2001.13,99.17 2038.9,99.17 		"/>
		<polygon class="st1" points="2001.13,33.74 1982.24,66.46 2020.01,66.46 		"/>
		<polygon class="st1" points="1963.35,33.74 1944.46,66.46 1982.24,66.46 		"/>
	</g>
	<polygon class="st3" points="2038.9,33.74 2020.01,66.46 2057.79,66.46 	"/>
	<g class="st5">
		<polygon class="st1" points="-95.37,1.03 -114.26,33.74 -76.49,33.74 		"/>
		<polygon class="st1" points="-57.6,1.03 -76.49,33.74 -38.71,33.74 		"/>
		<polygon class="st1" points="-19.82,1.03 -38.71,33.74 -0.94,33.74 		"/>
		<polygon class="st1" points="-38.71,-31.68 -57.6,1.03 -19.82,1.03 		"/>
		<polygon class="st1" points="-76.49,-31.68 -95.37,1.03 -57.6,1.03 		"/>
	</g>
	<polygon class="st3" points="17.95,1.03 -0.94,33.74 36.84,33.74 	"/>
	<polygon class="st3" points="55.73,1.03 36.84,33.74 74.61,33.74 	"/>
	<polygon class="st3" points="93.5,1.03 74.61,33.74 112.39,33.74 	"/>
	<polygon class="st3" points="74.61,-31.68 55.73,1.03 93.5,1.03 	"/>
	<polygon class="st3" points="112.39,-31.68 93.5,1.03 131.28,1.03 	"/>
	<polygon class="st3" points="36.84,-31.68 17.95,1.03 55.73,1.03 	"/>
	<polygon class="st3" points="-0.94,-31.68 -19.82,1.03 17.95,1.03 	"/>
	<g class="st5">
		<polygon class="st1" points="131.28,1.03 112.39,33.74 150.16,33.74 		"/>
		<polygon class="st1" points="169.05,1.03 150.16,33.74 187.94,33.74 		"/>
		<polygon class="st1" points="206.83,1.03 187.94,33.74 225.71,33.74 		"/>
		<polygon class="st1" points="187.94,-31.68 169.05,1.03 206.83,1.03 		"/>
		<polygon class="st1" points="150.16,-31.68 131.28,1.03 169.05,1.03 		"/>
	</g>
	<polygon class="st3" points="244.6,1.03 225.71,33.74 263.49,33.74 	"/>
	<polygon class="st3" points="282.37,1.03 263.49,33.74 301.26,33.74 	"/>
	<polygon class="st3" points="320.15,1.03 301.26,33.74 339.04,33.74 	"/>
	<polygon class="st3" points="301.26,-31.68 282.37,1.03 320.15,1.03 	"/>
	<polygon class="st3" points="339.04,-31.68 320.15,1.03 357.92,1.03 	"/>
	<polygon class="st3" points="263.49,-31.68 244.6,1.03 282.37,1.03 	"/>
	<polygon class="st3" points="225.71,-31.68 206.83,1.03 244.6,1.03 	"/>
	<g class="st5">
		<polygon class="st1" points="357.92,1.03 339.04,33.74 376.81,33.74 		"/>
		<polygon class="st1" points="395.7,1.03 376.81,33.74 414.59,33.74 		"/>
		<polygon class="st1" points="433.47,1.03 414.59,33.74 452.36,33.74 		"/>
		<polygon class="st1" points="414.59,-31.68 395.7,1.03 433.47,1.03 		"/>
		<polygon class="st1" points="376.81,-31.68 357.92,1.03 395.7,1.03 		"/>
	</g>
	<polygon class="st3" points="471.25,1.03 452.36,33.74 490.14,33.74 	"/>
	<polygon class="st3" points="509.02,1.03 490.14,33.74 527.91,33.74 	"/>
	<polygon class="st3" points="546.8,1.03 527.91,33.74 565.69,33.74 	"/>
	<polygon class="st3" points="527.91,-31.68 509.02,1.03 546.8,1.03 	"/>
	<polygon class="st3" points="565.69,-31.68 546.8,1.03 584.57,1.03 	"/>
	<polygon class="st3" points="490.14,-31.68 471.25,1.03 509.02,1.03 	"/>
	<polygon class="st3" points="452.36,-31.68 433.47,1.03 471.25,1.03 	"/>
	<g class="st5">
		<polygon class="st1" points="584.57,1.03 565.69,33.74 603.46,33.74 		"/>
		<polygon class="st1" points="622.35,1.03 603.46,33.74 641.23,33.74 		"/>
		<polygon class="st1" points="660.12,1.03 641.23,33.74 679.01,33.74 		"/>
		<polygon class="st1" points="641.23,-31.68 622.35,1.03 660.12,1.03 		"/>
		<polygon class="st1" points="603.46,-31.68 584.57,1.03 622.35,1.03 		"/>
	</g>
	<polygon class="st3" points="697.9,1.03 679.01,33.74 716.78,33.74 	"/>
	<polygon class="st3" points="735.67,1.03 716.78,33.74 754.56,33.74 	"/>
	<polygon class="st3" points="773.45,1.03 754.56,33.74 792.33,33.74 	"/>
	<polygon class="st3" points="754.56,-31.68 735.67,1.03 773.45,1.03 	"/>
	<polygon class="st3" points="716.78,-31.68 697.9,1.03 735.67,1.03 	"/>
	<polygon class="st3" points="679.01,-31.68 660.12,1.03 697.9,1.03 	"/>
	<g class="st5">
		<polygon class="st1" points="811.22,1.03 792.33,33.74 830.11,33.74 		"/>
		<polygon class="st1" points="849,1.03 830.11,33.74 867.88,33.74 		"/>
		<polygon class="st1" points="886.77,1.03 867.88,33.74 905.66,33.74 		"/>
		<polygon class="st1" points="867.88,-31.68 849,1.03 886.77,1.03 		"/>
		<polygon class="st1" points="830.11,-31.68 811.22,1.03 849,1.03 		"/>
	</g>
	<polygon class="st3" points="924.55,1.03 905.66,33.74 943.43,33.74 	"/>
	<polygon class="st3" points="962.32,1.03 943.43,33.74 981.21,33.74 	"/>
	<polygon class="st3" points="1000.1,1.03 981.21,33.74 1018.98,33.74 	"/>
	<polygon class="st3" points="981.21,-31.68 962.32,1.03 1000.1,1.03 	"/>
	<polygon class="st3" points="1018.98,-31.68 1000.1,1.03 1037.87,1.03 	"/>
	<polygon class="st3" points="943.43,-31.68 924.55,1.03 962.32,1.03 	"/>
	<polygon class="st3" points="792.33,-31.68 773.45,1.03 811.22,1.03 	"/>
	<polygon class="st3" points="905.66,-31.68 886.77,1.03 924.55,1.03 	"/>
	<g class="st5">
		<polygon class="st1" points="1037.87,1.03 1018.98,33.74 1056.76,33.74 		"/>
		<polygon class="st1" points="1075.64,1.03 1056.76,33.74 1094.53,33.74 		"/>
		<polygon class="st1" points="1113.42,1.03 1094.53,33.74 1132.31,33.74 		"/>
		<polygon class="st1" points="1094.53,-31.68 1075.64,1.03 1113.42,1.03 		"/>
		<polygon class="st1" points="1056.76,-31.68 1037.87,1.03 1075.64,1.03 		"/>
	</g>
	<polygon class="st3" points="1151.19,1.03 1132.31,33.74 1170.08,33.74 	"/>
	<polygon class="st3" points="1188.97,1.03 1170.08,33.74 1207.86,33.74 	"/>
	<polygon class="st3" points="1226.74,1.03 1207.86,33.74 1245.63,33.74 	"/>
	<polygon class="st3" points="1207.86,-31.68 1188.97,1.03 1226.74,1.03 	"/>
	<polygon class="st3" points="1245.63,-31.68 1226.74,1.03 1264.52,1.03 	"/>
	<polygon class="st3" points="1170.08,-31.68 1151.19,1.03 1188.97,1.03 	"/>
	<polygon class="st3" points="1132.31,-31.68 1113.42,1.03 1151.19,1.03 	"/>
	<g class="st5">
		<polygon class="st1" points="1264.52,1.03 1245.63,33.74 1283.41,33.74 		"/>
		<polygon class="st1" points="1302.29,1.03 1283.41,33.74 1321.18,33.74 		"/>
		<polygon class="st1" points="1340.07,1.03 1321.18,33.74 1358.96,33.74 		"/>
		<polygon class="st1" points="1321.18,-31.68 1302.29,1.03 1340.07,1.03 		"/>
		<polygon class="st1" points="1283.41,-31.68 1264.52,1.03 1302.29,1.03 		"/>
	</g>
	<polygon class="st3" points="1377.84,1.03 1358.96,33.74 1396.73,33.74 	"/>
	<polygon class="st3" points="1415.62,1.03 1396.73,33.74 1434.51,33.74 	"/>
	<polygon class="st3" points="1453.39,1.03 1434.51,33.74 1472.28,33.74 	"/>
	<polygon class="st3" points="1434.51,-31.68 1415.62,1.03 1453.39,1.03 	"/>
	<polygon class="st3" points="1472.28,-31.68 1453.39,1.03 1491.17,1.03 	"/>
	<polygon class="st3" points="1396.73,-31.68 1377.84,1.03 1415.62,1.03 	"/>
	<polygon class="st3" points="1358.96,-31.68 1340.07,1.03 1377.84,1.03 	"/>
	<g class="st5">
		<polygon class="st1" points="1491.17,1.03 1472.28,33.74 1510.05,33.74 		"/>
		<polygon class="st1" points="1528.94,1.03 1510.05,33.74 1547.83,33.74 		"/>
		<polygon class="st1" points="1566.72,1.03 1547.83,33.74 1585.6,33.74 		"/>
		<polygon class="st1" points="1547.83,-31.68 1528.94,1.03 1566.72,1.03 		"/>
		<polygon class="st1" points="1510.05,-31.68 1491.17,1.03 1528.94,1.03 		"/>
	</g>
	<polygon class="st3" points="1604.49,1.03 1585.6,33.74 1623.38,33.74 	"/>
	<polygon class="st3" points="1642.27,1.03 1623.38,33.74 1661.15,33.74 	"/>
	<polygon class="st3" points="1680.04,1.03 1661.15,33.74 1698.93,33.74 	"/>
	<polygon class="st3" points="1661.15,-31.68 1642.27,1.03 1680.04,1.03 	"/>
	<polygon class="st3" points="1623.38,-31.68 1604.49,1.03 1642.27,1.03 	"/>
	<polygon class="st3" points="1585.6,-31.68 1566.72,1.03 1604.49,1.03 	"/>
	<g class="st5">
		<polygon class="st1" points="1717.82,1.03 1698.93,33.74 1736.7,33.74 		"/>
		<polygon class="st1" points="1755.59,1.03 1736.7,33.74 1774.48,33.74 		"/>
		<polygon class="st1" points="1793.37,1.03 1774.48,33.74 1812.25,33.74 		"/>
		<polygon class="st1" points="1774.48,-31.68 1755.59,1.03 1793.37,1.03 		"/>
		<polygon class="st1" points="1736.7,-31.68 1717.82,1.03 1755.59,1.03 		"/>
	</g>
	<polygon class="st3" points="1831.14,1.03 1812.25,33.74 1850.03,33.74 	"/>
	<polygon class="st3" points="1868.92,1.03 1850.03,33.74 1887.8,33.74 	"/>
	<polygon class="st3" points="1906.69,1.03 1887.8,33.74 1925.58,33.74 	"/>
	<polygon class="st3" points="1887.8,-31.68 1868.92,1.03 1906.69,1.03 	"/>
	<polygon class="st3" points="1698.93,-31.68 1680.04,1.03 1717.82,1.03 	"/>
	<polygon class="st3" points="1925.58,-31.68 1906.69,1.03 1944.46,1.03 	"/>
	<polygon class="st3" points="1850.03,-31.68 1831.14,1.03 1868.92,1.03 	"/>
	<polygon class="st3" points="1812.25,-31.68 1793.37,1.03 1831.14,1.03 	"/>
	<g class="st5">
		<polygon class="st1" points="1944.46,1.03 1925.58,33.74 1963.35,33.74 		"/>
		<polygon class="st1" points="1982.24,1.03 1963.35,33.74 2001.13,33.74 		"/>
		<polygon class="st1" points="2020.01,1.03 2001.13,33.74 2038.9,33.74 		"/>
		<polygon class="st1" points="2001.13,-31.68 1982.24,1.03 2020.01,1.03 		"/>
		<polygon class="st1" points="1963.35,-31.68 1944.46,1.03 1982.24,1.03 		"/>
	</g>
	<polygon class="st3" points="2057.79,1.03 2038.9,33.74 2076.68,33.74 	"/>
	<polygon class="st3" points="2095.56,1.03 2076.68,33.74 2114.45,33.74 	"/>
	<polygon class="st3" points="2114.45,-31.68 2095.56,1.03 2133.34,1.03 	"/>
	<polygon class="st3" points="2076.68,-31.68 2057.79,1.03 2095.56,1.03 	"/>
	<polygon class="st3" points="2038.9,-31.68 2020.01,1.03 2057.79,1.03 	"/>
	<g class="st5">
		<polygon class="st1" points="-95.37,-64.4 -114.26,-31.68 -76.49,-31.68 		"/>
		<polygon class="st1" points="-57.6,-64.4 -76.49,-31.68 -38.71,-31.68 		"/>
		<polygon class="st1" points="-19.82,-64.4 -38.71,-31.68 -0.94,-31.68 		"/>
		<polygon class="st1" points="-38.71,-97.11 -57.6,-64.4 -19.82,-64.4 		"/>
		<polygon class="st1" points="-76.49,-97.11 -95.37,-64.4 -57.6,-64.4 		"/>
	</g>
	<polygon class="st3" points="17.95,-64.4 -0.94,-31.68 36.84,-31.68 	"/>
	<polygon class="st3" points="55.73,-64.4 36.84,-31.68 74.61,-31.68 	"/>
	<polygon class="st3" points="93.5,-64.4 74.61,-31.68 112.39,-31.68 	"/>
	<polygon class="st3" points="74.61,-97.11 55.73,-64.4 93.5,-64.4 	"/>
	<polygon class="st3" points="112.39,-97.11 93.5,-64.4 131.28,-64.4 	"/>
	<polygon class="st3" points="36.84,-97.11 17.95,-64.4 55.73,-64.4 	"/>
	<polygon class="st3" points="-0.94,-97.11 -19.82,-64.4 17.95,-64.4 	"/>
	<g class="st5">
		<polygon class="st1" points="131.28,-64.4 112.39,-31.68 150.16,-31.68 		"/>
		<polygon class="st1" points="169.05,-64.4 150.16,-31.68 187.94,-31.68 		"/>
		<polygon class="st1" points="206.83,-64.4 187.94,-31.68 225.71,-31.68 		"/>
		<polygon class="st1" points="187.94,-97.11 169.05,-64.4 206.83,-64.4 		"/>
		<polygon class="st1" points="150.16,-97.11 131.28,-64.4 169.05,-64.4 		"/>
	</g>
	<polygon class="st3" points="244.6,-64.4 225.71,-31.68 263.49,-31.68 	"/>
	<polygon class="st3" points="282.37,-64.4 263.49,-31.68 301.26,-31.68 	"/>
	<polygon class="st3" points="320.15,-64.4 301.26,-31.68 339.04,-31.68 	"/>
	<polygon class="st3" points="301.26,-97.11 282.37,-64.4 320.15,-64.4 	"/>
	<polygon class="st3" points="339.04,-97.11 320.15,-64.4 357.92,-64.4 	"/>
	<polygon class="st3" points="263.49,-97.11 244.6,-64.4 282.37,-64.4 	"/>
	<polygon class="st3" points="225.71,-97.11 206.83,-64.4 244.6,-64.4 	"/>
	<g class="st5">
		<polygon class="st1" points="357.92,-64.4 339.04,-31.68 376.81,-31.68 		"/>
		<polygon class="st1" points="395.7,-64.4 376.81,-31.68 414.59,-31.68 		"/>
		<polygon class="st1" points="433.47,-64.4 414.59,-31.68 452.36,-31.68 		"/>
		<polygon class="st1" points="414.59,-97.11 395.7,-64.4 433.47,-64.4 		"/>
		<polygon class="st1" points="376.81,-97.11 357.92,-64.4 395.7,-64.4 		"/>
	</g>
	<polygon class="st3" points="471.25,-64.4 452.36,-31.68 490.14,-31.68 	"/>
	<polygon class="st3" points="509.02,-64.4 490.14,-31.68 527.91,-31.68 	"/>
	<polygon class="st3" points="546.8,-64.4 527.91,-31.68 565.69,-31.68 	"/>
	<polygon class="st3" points="527.91,-97.11 509.02,-64.4 546.8,-64.4 	"/>
	<polygon class="st3" points="565.69,-97.11 546.8,-64.4 584.57,-64.4 	"/>
	<polygon class="st3" points="490.14,-97.11 471.25,-64.4 509.02,-64.4 	"/>
	<polygon class="st3" points="452.36,-97.11 433.47,-64.4 471.25,-64.4 	"/>
	<g class="st5">
		<polygon class="st1" points="584.57,-64.4 565.69,-31.68 603.46,-31.68 		"/>
		<polygon class="st1" points="622.35,-64.4 603.46,-31.68 641.23,-31.68 		"/>
		<polygon class="st1" points="660.12,-64.4 641.23,-31.68 679.01,-31.68 		"/>
		<polygon class="st1" points="641.23,-97.11 622.35,-64.4 660.12,-64.4 		"/>
		<polygon class="st1" points="603.46,-97.11 584.57,-64.4 622.35,-64.4 		"/>
	</g>
	<polygon class="st3" points="697.9,-64.4 679.01,-31.68 716.78,-31.68 	"/>
	<polygon class="st3" points="735.67,-64.4 716.78,-31.68 754.56,-31.68 	"/>
	<polygon class="st3" points="773.45,-64.4 754.56,-31.68 792.33,-31.68 	"/>
	<polygon class="st3" points="754.56,-97.11 735.67,-64.4 773.45,-64.4 	"/>
	<polygon class="st3" points="716.78,-97.11 697.9,-64.4 735.67,-64.4 	"/>
	<polygon class="st3" points="679.01,-97.11 660.12,-64.4 697.9,-64.4 	"/>
	<g class="st5">
		<polygon class="st1" points="811.22,-64.4 792.33,-31.68 830.11,-31.68 		"/>
		<polygon class="st1" points="849,-64.4 830.11,-31.68 867.88,-31.68 		"/>
		<polygon class="st1" points="886.77,-64.4 867.88,-31.68 905.66,-31.68 		"/>
		<polygon class="st1" points="867.88,-97.11 849,-64.4 886.77,-64.4 		"/>
		<polygon class="st1" points="830.11,-97.11 811.22,-64.4 849,-64.4 		"/>
	</g>
	<polygon class="st3" points="924.55,-64.4 905.66,-31.68 943.43,-31.68 	"/>
	<polygon class="st3" points="962.32,-64.4 943.43,-31.68 981.21,-31.68 	"/>
	<polygon class="st3" points="1000.1,-64.4 981.21,-31.68 1018.98,-31.68 	"/>
	<polygon class="st3" points="981.21,-97.11 962.32,-64.4 1000.1,-64.4 	"/>
	<polygon class="st3" points="1018.98,-97.11 1000.1,-64.4 1037.87,-64.4 	"/>
	<polygon class="st3" points="943.43,-97.11 924.55,-64.4 962.32,-64.4 	"/>
	<polygon class="st3" points="792.33,-97.11 773.45,-64.4 811.22,-64.4 	"/>
	<polygon class="st3" points="905.66,-97.11 886.77,-64.4 924.55,-64.4 	"/>
	<g class="st5">
		<polygon class="st1" points="1037.87,-64.4 1018.98,-31.68 1056.76,-31.68 		"/>
		<polygon class="st1" points="1075.64,-64.4 1056.76,-31.68 1094.53,-31.68 		"/>
		<polygon class="st1" points="1113.42,-64.4 1094.53,-31.68 1132.31,-31.68 		"/>
		<polygon class="st1" points="1094.53,-97.11 1075.64,-64.4 1113.42,-64.4 		"/>
		<polygon class="st1" points="1056.76,-97.11 1037.87,-64.4 1075.64,-64.4 		"/>
	</g>
	<polygon class="st3" points="1151.19,-64.4 1132.31,-31.68 1170.08,-31.68 	"/>
	<polygon class="st3" points="1188.97,-64.4 1170.08,-31.68 1207.86,-31.68 	"/>
	<polygon class="st3" points="1226.74,-64.4 1207.86,-31.68 1245.63,-31.68 	"/>
	<polygon class="st3" points="1207.86,-97.11 1188.97,-64.4 1226.74,-64.4 	"/>
	<polygon class="st3" points="1245.63,-97.11 1226.74,-64.4 1264.52,-64.4 	"/>
	<polygon class="st3" points="1170.08,-97.11 1151.19,-64.4 1188.97,-64.4 	"/>
	<polygon class="st3" points="1132.31,-97.11 1113.42,-64.4 1151.19,-64.4 	"/>
	<g class="st5">
		<polygon class="st1" points="1264.52,-64.4 1245.63,-31.68 1283.41,-31.68 		"/>
		<polygon class="st1" points="1302.29,-64.4 1283.41,-31.68 1321.18,-31.68 		"/>
		<polygon class="st1" points="1340.07,-64.4 1321.18,-31.68 1358.96,-31.68 		"/>
		<polygon class="st1" points="1321.18,-97.11 1302.29,-64.4 1340.07,-64.4 		"/>
		<polygon class="st1" points="1283.41,-97.11 1264.52,-64.4 1302.29,-64.4 		"/>
	</g>
	<polygon class="st3" points="1377.84,-64.4 1358.96,-31.68 1396.73,-31.68 	"/>
	<polygon class="st3" points="1415.62,-64.4 1396.73,-31.68 1434.51,-31.68 	"/>
	<polygon class="st3" points="1453.39,-64.4 1434.51,-31.68 1472.28,-31.68 	"/>
	<polygon class="st3" points="1434.51,-97.11 1415.62,-64.4 1453.39,-64.4 	"/>
	<polygon class="st3" points="1472.28,-97.11 1453.39,-64.4 1491.17,-64.4 	"/>
	<polygon class="st3" points="1396.73,-97.11 1377.84,-64.4 1415.62,-64.4 	"/>
	<polygon class="st3" points="1358.96,-97.11 1340.07,-64.4 1377.84,-64.4 	"/>
	<g class="st5">
		<polygon class="st1" points="1491.17,-64.4 1472.28,-31.68 1510.05,-31.68 		"/>
		<polygon class="st1" points="1528.94,-64.4 1510.05,-31.68 1547.83,-31.68 		"/>
		<polygon class="st1" points="1566.72,-64.4 1547.83,-31.68 1585.6,-31.68 		"/>
		<polygon class="st1" points="1547.83,-97.11 1528.94,-64.4 1566.72,-64.4 		"/>
		<polygon class="st1" points="1510.05,-97.11 1491.17,-64.4 1528.94,-64.4 		"/>
	</g>
	<polygon class="st3" points="1604.49,-64.4 1585.6,-31.68 1623.38,-31.68 	"/>
	<polygon class="st3" points="1642.27,-64.4 1623.38,-31.68 1661.15,-31.68 	"/>
	<polygon class="st3" points="1680.04,-64.4 1661.15,-31.68 1698.93,-31.68 	"/>
	<polygon class="st3" points="1661.15,-97.11 1642.27,-64.4 1680.04,-64.4 	"/>
	<polygon class="st3" points="1623.38,-97.11 1604.49,-64.4 1642.27,-64.4 	"/>
	<polygon class="st3" points="1585.6,-97.11 1566.72,-64.4 1604.49,-64.4 	"/>
	<g class="st5">
		<polygon class="st1" points="1717.82,-64.4 1698.93,-31.68 1736.7,-31.68 		"/>
		<polygon class="st1" points="1755.59,-64.4 1736.7,-31.68 1774.48,-31.68 		"/>
		<polygon class="st1" points="1793.37,-64.4 1774.48,-31.68 1812.25,-31.68 		"/>
		<polygon class="st1" points="1774.48,-97.11 1755.59,-64.4 1793.37,-64.4 		"/>
		<polygon class="st1" points="1736.7,-97.11 1717.82,-64.4 1755.59,-64.4 		"/>
	</g>
	<polygon class="st3" points="1831.14,-64.4 1812.25,-31.68 1850.03,-31.68 	"/>
	<polygon class="st3" points="1868.92,-64.4 1850.03,-31.68 1887.8,-31.68 	"/>
	<polygon class="st3" points="1906.69,-64.4 1887.8,-31.68 1925.58,-31.68 	"/>
	<polygon class="st3" points="1887.8,-97.11 1868.92,-64.4 1906.69,-64.4 	"/>
	<polygon class="st3" points="1698.93,-97.11 1680.04,-64.4 1717.82,-64.4 	"/>
	<polygon class="st3" points="1925.58,-97.11 1906.69,-64.4 1944.46,-64.4 	"/>
	<polygon class="st3" points="1850.03,-97.11 1831.14,-64.4 1868.92,-64.4 	"/>
	<polygon class="st3" points="1812.25,-97.11 1793.37,-64.4 1831.14,-64.4 	"/>
	<g class="st5">
		<polygon class="st1" points="1944.46,-64.4 1925.58,-31.68 1963.35,-31.68 		"/>
		<polygon class="st1" points="1982.24,-64.4 1963.35,-31.68 2001.13,-31.68 		"/>
		<polygon class="st1" points="2020.01,-64.4 2001.13,-31.68 2038.9,-31.68 		"/>
		<polygon class="st1" points="2001.13,-97.11 1982.24,-64.4 2020.01,-64.4 		"/>
		<polygon class="st1" points="1963.35,-97.11 1944.46,-64.4 1982.24,-64.4 		"/>
	</g>
	<polygon class="st3" points="2038.9,-97.11 2020.01,-64.4 2057.79,-64.4 	"/>
</g>
</svg>
