<?xml version="1.0" encoding="utf-8"?>
<!-- Generator: Adobe Illustrator 25.1.0, SVG Export Plug-In . SVG Version: 6.00 Build 0)  -->
<svg version="1.1" id="Layer_1" xmlns="http://www.w3.org/2000/svg" xmlns:xlink="http://www.w3.org/1999/xlink" x="0px" y="0px"
	 viewBox="0 0 1080 1080" style="enable-background:new 0 0 1080 1080;" xml:space="preserve">
<style type="text/css">
	.st0{opacity:0.49;fill:#243F90;enable-background:new    ;}
	.st1{fill:#FAFBFC;}
	.st2{opacity:0.13;enable-background:new    ;}
	.st3{fill:#243F90;}
	.st4{opacity:0.26;fill:none;stroke:#FFFFFF;stroke-width:3;stroke-miterlimit:10;stroke-dasharray:12;enable-background:new    ;}
	.st5{opacity:0.26;fill:none;stroke:#FFFFFF;stroke-width:3;stroke-miterlimit:10;enable-background:new    ;}
	.st6{opacity:0.57;}
	.st7{fill:none;stroke:#FFFFFF;stroke-width:3;stroke-miterlimit:10;}
</style>
<image style="overflow:visible;enable-background:new    ;" width="750" height="751" xlink:href="services1.png"  transform="matrix(0.4634 0 0 0.4634 1152.4626 61.4195)">
</image>
<rect x="-9" y="-9" class="st0" width="1098" height="1103.6"/>
<g>
	<g>
		<path class="st1" d="M248,340.7h59.3v118.4c0,9.2,1.5,15.4,4.5,18.5c3,3.1,8.8,4.6,17.6,4.6h3.1V540h-15.8
			c-21.6,0-38.4-6.3-50.5-18.9C254,508.4,248,491,248,468.6V340.7z"/>
		<path class="st1" d="M417.4,391.3c20.6,0,38.3,7.4,53.1,22.3c14.7,14.8,22.1,32.6,22.1,53.4c0,21-7.5,38.9-22.4,53.7
			c-14.9,14.8-33,22.2-54.1,22.2c-21.1,0-39.2-7.4-54.2-22.3c-15-14.8-22.5-32.7-22.5-53.7c0-21.3,7.5-39.2,22.5-53.8
			C376.9,398.6,395.4,391.3,417.4,391.3z M415.9,445.2c-5.8,0-10.8,2.1-14.9,6.4c-4.1,4.2-6.1,9.4-6.1,15.5c0,6,2.1,11.2,6.2,15.5
			c4.1,4.3,9.1,6.4,14.8,6.4c5.8,0,10.8-2.1,15-6.4c4.1-4.3,6.2-9.4,6.2-15.5c0-6.1-2-11.3-6.1-15.5
			C426.9,447.3,421.8,445.2,415.9,445.2z"/>
		<path class="st1" d="M593,480V530c-7.9,2.9-15.4,4.4-22.6,4.4c-17.6,0-32.5-6.7-44.7-20c-12.2-13.3-18.3-29.6-18.3-48.9
			c0-20.8,7.3-38.4,22-52.7c14.7-14.3,32.8-21.5,54.2-21.5c11.4,0,22.3,2.3,32.7,6.9c10.4,4.6,18.6,10.7,24.5,18.4
			c9.9,12.8,14.9,31.2,14.9,55.5V520c0,26-7.4,47.1-22.1,63.3c-14.7,16.2-33.9,24.3-57.6,24.3c-7.2,0-16.3-1.8-27.3-5.4v-49.6
			c7.1,3.9,14.3,5.8,21.6,5.8c9.8,0,17.4-3.2,22.8-9.7c5.4-6.5,8-15.7,8-27.8v-54.7c0-15.3-6.2-22.9-18.5-22.9
			c-5.3,0-9.9,2-13.8,6.1c-3.9,4-5.9,8.7-5.9,13.9c0,5.5,1.9,10.2,5.6,13.9c3.7,3.7,8.4,5.5,13.9,5.5C586,482.6,589.6,481.7,593,480
			z"/>
		<path class="st1" d="M756.8,391.3c20.6,0,38.3,7.4,53.1,22.3c14.7,14.8,22.1,32.6,22.1,53.4c0,21-7.5,38.9-22.4,53.7
			c-14.9,14.8-33,22.2-54.1,22.2c-21.1,0-39.2-7.4-54.2-22.3c-15-14.8-22.5-32.7-22.5-53.7c0-21.3,7.5-39.2,22.5-53.8
			C716.3,398.6,734.8,391.3,756.8,391.3z M755.3,445.2c-5.8,0-10.8,2.1-14.9,6.4c-4.1,4.2-6.1,9.4-6.1,15.5c0,6,2.1,11.2,6.2,15.5
			c4.1,4.3,9.1,6.4,14.8,6.4c5.8,0,10.8-2.1,15-6.4c4.1-4.3,6.2-9.4,6.2-15.5c0-6.1-2-11.3-6.1-15.5
			C766.3,447.3,761.3,445.2,755.3,445.2z"/>
	</g>
	<g class="st2">
		<path class="st3" d="M248,739.3h59.3v-56.9c0-4.4,1.5-7.4,4.5-8.9c3-1.5,8.8-2.2,17.6-2.2h3.1v-27.8h-15.8
			c-21.6,0-38.4,3-50.5,9.1c-12.1,6.1-18.1,14.5-18.1,25.2V739.3z"/>
		<path class="st3" d="M417.4,715c20.6,0,38.3-3.6,53.1-10.7c14.7-7.1,22.1-15.7,22.1-25.6c0-10.1-7.5-18.7-22.4-25.8
			c-14.9-7.1-33-10.7-54.1-10.7c-21.1,0-39.2,3.6-54.2,10.7c-15,7.1-22.5,15.7-22.5,25.8c0,10.2,7.5,18.9,22.5,25.8
			C376.9,711.5,395.4,715,417.4,715z M415.9,689.1c-5.8,0-10.8-1-14.9-3.1c-4.1-2-6.1-4.5-6.1-7.5c0-2.9,2.1-5.4,6.2-7.4
			c4.1-2.1,9.1-3.1,14.8-3.1c5.8,0,10.8,1,15,3.1c4.1,2.1,6.2,4.5,6.2,7.4c0,2.9-2,5.4-6.1,7.5C426.9,688.1,421.8,689.1,415.9,689.1
			z"/>
		<path class="st3" d="M593,672.4v-24.1c-7.9-1.4-15.4-2.1-22.6-2.1c-17.6,0-32.5,3.2-44.7,9.6c-12.2,6.4-18.3,14.2-18.3,23.5
			c0,10,7.3,18.4,22,25.3c14.7,6.9,32.8,10.3,54.2,10.3c11.4,0,22.3-1.1,32.7-3.3c10.4-2.2,18.6-5.1,24.5-8.8
			c9.9-6.1,14.9-15,14.9-26.7v-23c0-12.5-7.4-22.6-22.1-30.4c-14.7-7.8-33.9-11.7-57.6-11.7c-7.2,0-16.3,0.9-27.3,2.6v23.8
			c7.1-1.9,14.3-2.8,21.6-2.8c9.8,0,17.4,1.6,22.8,4.7c5.4,3.1,8,7.6,8,13.4v26.3c0,7.3-6.2,11-18.5,11c-5.3,0-9.9-1-13.8-2.9
			c-3.9-1.9-5.9-4.2-5.9-6.7c0-2.7,1.9-4.9,5.6-6.7c3.7-1.8,8.4-2.7,13.9-2.7C586,671.1,589.6,671.6,593,672.4z"/>
		<path class="st3" d="M756.8,715c20.6,0,38.3-3.6,53.1-10.7c14.7-7.1,22.1-15.7,22.1-25.6c0-10.1-7.5-18.7-22.4-25.8
			c-14.9-7.1-33-10.7-54.1-10.7c-21.1,0-39.2,3.6-54.2,10.7c-15,7.1-22.5,15.7-22.5,25.8c0,10.2,7.5,18.9,22.5,25.8
			C716.3,711.5,734.8,715,756.8,715z M755.3,689.1c-5.8,0-10.8-1-14.9-3.1s-6.1-4.5-6.1-7.5c0-2.9,2.1-5.4,6.2-7.4
			c4.1-2.1,9.1-3.1,14.8-3.1c5.8,0,10.8,1,15,3.1c4.1,2.1,6.2,4.5,6.2,7.4c0,2.9-2,5.4-6.1,7.5C766.3,688.1,761.3,689.1,755.3,689.1
			z"/>
	</g>
</g>
<rect x="145.7" y="303.7" class="st4" width="788.5" height="472.6"/>
<rect x="221.8" y="218.9" transform="matrix(6.123234e-17 -1 1 6.123234e-17 -1.525879e-05 1080)" class="st4" width="636.4" height="642.2"/>
<rect x="145.7" y="221.1" class="st5" width="788.5" height="637.7"/>
<g class="st6">
	<line class="st7" x1="154.2" y1="234.4" x2="206.5" y2="286.7"/>
	<line class="st7" x1="206.5" y1="234.4" x2="154.2" y2="286.7"/>
	<line class="st7" x1="158.4" y1="791.3" x2="210.7" y2="843.6"/>
	<line class="st7" x1="210.7" y1="791.3" x2="158.4" y2="843.6"/>
	<line class="st7" x1="873.8" y1="791.3" x2="926" y2="843.6"/>
	<line class="st7" x1="926" y1="791.3" x2="873.8" y2="843.6"/>
	<line class="st7" x1="873.8" y1="235.4" x2="926" y2="287.7"/>
	<line class="st7" x1="926" y1="235.4" x2="873.8" y2="287.7"/>
</g>
</svg>
