<?xml version="1.0" encoding="utf-8"?>
<!-- Generator: Adobe Illustrator 25.1.0, SVG Export Plug-In . SVG Version: 6.00 Build 0)  -->
<svg version="1.1" id="Layer_1" xmlns="http://www.w3.org/2000/svg" xmlns:xlink="http://www.w3.org/1999/xlink" x="0px" y="0px"
	 viewBox="0 0 1080 1080" style="enable-background:new 0 0 1080 1080;" xml:space="preserve">
<style type="text/css">
	.st0{opacity:0.49;fill:#243F90;enable-background:new    ;}
	.st1{opacity:0.61;}
	.st2{fill:#99DAF1;stroke:#183059;stroke-width:1.6495;stroke-miterlimit:10;}
	.st3{fill:none;stroke:#183059;stroke-width:1.6495;stroke-miterlimit:10;}
	.st4{opacity:0.6;}
	.st5{opacity:0.71;}
	.st6{fill:#99DAF1;stroke:#183059;stroke-width:5.1866;stroke-miterlimit:10;}
	.st7{fill:none;stroke:#183059;stroke-width:5.1866;stroke-miterlimit:10;}
	.st8{fill:#58595B;}
	.st9{fill:#414042;}
	.st10{opacity:0.94;}
	.st11{fill:#99DAF1;stroke:#183059;stroke-width:5.8461;stroke-miterlimit:10;}
	.st12{fill:none;stroke:#183059;stroke-width:5.8461;stroke-miterlimit:10;}
	.st13{opacity:0.82;}
	.st14{fill:#243F90;}
	.st15{fill:#FFFFFF;}
	.st16{font-family:'Bauhaus93';}
	.st17{font-size:100px;}
</style>
<image style="overflow:visible;enable-background:new    ;" width="750" height="751" xlink:href="services1.png"  transform="matrix(0.4634 0 0 0.4634 1152.4626 61.4195)">
</image>
<rect x="-9" y="-9" class="st0" width="1098" height="1103.6"/>
<polygon class="st0" points="1088.9,1019.8 -8.6,1019.7 82.7,29.6 991.3,50.6 "/>
<g class="st1">
	<polygon class="st2" points="346.4,322.3 303.6,321.6 260.7,320.9 263,276 263.9,257.3 306.3,258.1 348.6,258.8 348,276 	"/>
	<line class="st3" x1="306.3" y1="258.1" x2="303.6" y2="321.6"/>
	<line class="st3" x1="263" y1="276" x2="348" y2="276"/>
</g>
<g class="st1">
	<polygon class="st2" points="341.6,462.1 297.6,461.5 253.5,460.9 255.9,413.5 256.9,393.7 300.5,394.4 343.9,395 343.3,413.2 	"/>
	<line class="st3" x1="300.5" y1="394.4" x2="297.6" y2="461.5"/>
	<line class="st3" x1="255.9" y1="413.5" x2="343.3" y2="413.2"/>
</g>
<g class="st4">
	<g>
		<polygon class="st2" points="173.8,170.4 131.9,169.6 89.9,168.8 93.7,126.4 95.2,108.7 136.7,109.6 178,110.5 176.9,126.7 		"/>
		<line class="st3" x1="136.7" y1="109.6" x2="131.9" y2="169.6"/>
		<line class="st3" x1="93.7" y1="126.4" x2="176.9" y2="126.7"/>
	</g>
	<g>
		<polygon class="st2" points="351,174 309.5,173.1 267.9,172.3 270,130 270.9,112.4 312.1,113.3 353.1,114.2 352.5,130.4 		"/>
		<line class="st3" x1="312.1" y1="113.3" x2="309.5" y2="173.1"/>
		<line class="st3" x1="270" y1="130" x2="352.5" y2="130.4"/>
	</g>
	<g>
		<polygon class="st2" points="517.9,177.3 476.7,176.5 435.4,175.6 436.1,133.5 436.4,116 477.2,116.8 517.9,117.7 517.9,133.9 		
			"/>
		<line class="st3" x1="477.2" y1="116.8" x2="476.7" y2="176.5"/>
		<line class="st3" x1="436.1" y1="133.5" x2="517.9" y2="133.9"/>
	</g>
	<g>
		<polygon class="st2" points="673.3,180.4 632.4,179.6 591.4,178.8 590.7,136.8 590.4,119.3 630.9,120.1 671.3,121 671.9,137.1 		
			"/>
		<line class="st3" x1="630.9" y1="120.1" x2="632.4" y2="179.6"/>
		<line class="st3" x1="590.7" y1="136.8" x2="671.9" y2="137.1"/>
	</g>
	<g>
		<polygon class="st2" points="813.1,183.2 772.5,182.4 731.8,181.6 729.9,139.7 729.1,122.2 769.4,123.1 809.5,123.9 810.5,140 		
			"/>
		<line class="st3" x1="769.4" y1="123.1" x2="772.5" y2="182.4"/>
		<line class="st3" x1="729.9" y1="139.7" x2="810.5" y2="140"/>
	</g>
	<g>
		<polygon class="st2" points="985.1,186.6 944.8,185.8 904.4,185 901.1,143.2 899.7,125.9 939.6,126.7 979.4,127.6 981,143.6 		"/>
		<line class="st3" x1="939.6" y1="126.7" x2="944.8" y2="185.8"/>
		<line class="st3" x1="901.1" y1="143.2" x2="981" y2="143.6"/>
	</g>
	<g>
		<polygon class="st2" points="163.7,319.3 120.5,318.6 77.2,317.9 81.2,272.8 82.8,254 125.6,254.8 168.2,255.6 167,272.9 		"/>
		<line class="st3" x1="125.6" y1="254.8" x2="120.5" y2="318.6"/>
		<line class="st3" x1="81.2" y1="272.8" x2="167" y2="272.9"/>
	</g>
	<g>
		<polygon class="st2" points="518.3,325.1 475.9,324.4 433.3,323.7 434.1,279 434.4,260.3 476.4,261.1 518.3,261.9 518.3,279 		"/>
		<line class="st3" x1="476.4" y1="261.1" x2="475.9" y2="324.4"/>
		<line class="st3" x1="434.1" y1="279" x2="518.3" y2="279"/>
	</g>
	<g>
		<polygon class="st2" points="678.5,327.7 636.3,327 594.1,326.4 593.4,281.8 593.1,263.2 634.8,263.9 676.4,264.7 677,281.8 		"/>
		<line class="st3" x1="634.8" y1="263.9" x2="636.3" y2="327"/>
		<line class="st3" x1="593.4" y1="281.8" x2="677" y2="281.8"/>
	</g>
	<g>
		<polygon class="st2" points="822.5,330.1 780.7,329.4 738.7,328.7 736.7,284.3 735.9,265.8 777.3,266.5 818.7,267.2 819.7,284.3 
					"/>
		<line class="st3" x1="777.3" y1="266.5" x2="780.7" y2="329.4"/>
		<line class="st3" x1="736.7" y1="284.3" x2="819.7" y2="284.3"/>
	</g>
	<g>
		<polygon class="st2" points="999.7,333 958.2,332.3 916.6,331.7 913,287.4 911.5,268.9 952.6,269.6 993.6,270.4 995.3,287.4 		"/>
		<line class="st3" x1="952.6" y1="269.6" x2="958.2" y2="332.3"/>
		<line class="st3" x1="913" y1="287.4" x2="995.3" y2="287.4"/>
	</g>
	<g>
		<polygon class="st2" points="153.8,459.6 109.4,459 64.8,458.4 69,410.8 70.8,391 114.7,391.7 158.5,392.3 157.2,410.6 		"/>
		<line class="st3" x1="114.7" y1="391.7" x2="109.4" y2="459"/>
		<line class="st3" x1="69" y1="410.8" x2="157.2" y2="410.6"/>
	</g>
	<g>
		<polygon class="st2" points="518.4,464.4 474.8,463.8 431,463.3 431.8,416 432.1,396.3 475.3,397 518.4,397.6 518.4,415.7 		"/>
		<line class="st3" x1="475.3" y1="397" x2="474.8" y2="463.8"/>
		<line class="st3" x1="431.8" y1="416" x2="518.4" y2="415.7"/>
	</g>
	<g>
		<polygon class="st2" points="683,466.6 639.6,466 596.2,465.4 595.5,418.3 595.2,398.7 638,399.4 680.8,400 681.4,418.1 		"/>
		<line class="st3" x1="638" y1="399.4" x2="639.6" y2="466"/>
		<line class="st3" x1="595.5" y1="418.3" x2="681.4" y2="418.1"/>
	</g>
	<g>
		<polygon class="st2" points="831,468.5 788,467.9 744.9,467.4 742.8,420.4 741.9,400.9 784.5,401.5 827,402.1 828.1,420.1 		"/>
		<line class="st3" x1="784.5" y1="401.5" x2="788" y2="467.9"/>
		<line class="st3" x1="742.8" y1="420.4" x2="828.1" y2="420.1"/>
	</g>
	<g>
		<polygon class="st2" points="1013,470.9 970.4,470.3 927.6,469.8 923.9,423 922.3,403.5 964.5,404.2 1006.6,404.8 1008.3,422.7 		
			"/>
		<line class="st3" x1="964.5" y1="404.2" x2="970.4" y2="470.3"/>
		<line class="st3" x1="923.9" y1="423" x2="1008.3" y2="422.7"/>
	</g>
	<g>
		<polygon class="st2" points="143.8,600.5 98.2,600.1 52.4,599.6 56.8,549.3 58.7,528.4 103.8,528.9 148.8,529.5 147.5,548.7 		"/>
		<line class="st3" x1="103.8" y1="528.9" x2="98.2" y2="600.1"/>
		<line class="st3" x1="56.8" y1="549.3" x2="147.5" y2="548.7"/>
	</g>
	<g>
		<polygon class="st2" points="336.9,602.4 291.6,602 246.3,601.5 248.9,551.5 249.9,530.6 294.7,531.1 339.3,531.7 338.6,550.8 		
			"/>
		<line class="st3" x1="294.7" y1="531.1" x2="291.6" y2="602"/>
		<line class="st3" x1="248.9" y1="551.5" x2="338.6" y2="550.8"/>
	</g>
	<g>
		<polygon class="st2" points="518.5,604.2 473.6,603.7 428.7,603.3 429.5,553.5 429.9,532.7 474.2,533.2 518.4,533.7 518.5,552.8 
					"/>
		<line class="st3" x1="474.2" y1="533.2" x2="473.6" y2="603.7"/>
		<line class="st3" x1="429.5" y1="553.5" x2="518.5" y2="552.8"/>
	</g>
	<g>
		<polygon class="st2" points="687.5,605.9 643,605.4 598.4,605 597.6,555.3 597.3,534.6 641.3,535.1 685.2,535.6 685.8,554.7 		"/>
		<line class="st3" x1="641.3" y1="535.1" x2="643" y2="605.4"/>
		<line class="st3" x1="597.6" y1="555.3" x2="685.8" y2="554.7"/>
	</g>
	<g>
		<polygon class="st2" points="839.5,607.4 795.4,606.9 751.1,606.5 748.9,557 748,536.4 791.7,536.9 835.2,537.4 836.4,556.3 		"/>
		<line class="st3" x1="791.7" y1="536.9" x2="795.4" y2="606.9"/>
		<line class="st3" x1="748.9" y1="557" x2="836.4" y2="556.3"/>
	</g>
	<g>
		<polygon class="st2" points="1026.4,609.2 982.6,608.8 938.7,608.3 934.8,559 933.1,538.5 976.4,539 1019.6,539.5 1021.5,558.4 		
			"/>
		<line class="st3" x1="976.4" y1="539" x2="982.6" y2="608.8"/>
		<line class="st3" x1="934.8" y1="559" x2="1021.5" y2="558.4"/>
	</g>
</g>
<g class="st5">
	<polygon class="st6" points="1088.8,1018.2 923.7,1019.5 753.1,1020.9 746.4,863.4 743.6,799.5 908,801.7 1067.2,803.9 1073,861 	
		"/>
	<line class="st7" x1="908" y1="801.7" x2="923.7" y2="1019.5"/>
	<line class="st7" x1="746.4" y1="863.4" x2="1073" y2="861"/>
</g>
<rect x="362.9" y="1072.4" class="st8" width="337.9" height="105.5"/>
<g class="st5">
	<polygon class="st6" points="333.9,1018.1 159.7,1018.1 -14.2,1018.1 6.1,858.3 14.1,794.9 177.5,794.7 341.3,794.5 339.4,853 	"/>
	<line class="st7" x1="177.5" y1="794.7" x2="159.7" y2="1018.1"/>
	<line class="st7" x1="6.1" y1="858.3" x2="339.4" y2="853"/>
</g>
<rect x="-16.4" y="1019.8" class="st9" width="1141.6" height="74.8"/>
<g class="st10">
	<polygon class="st11" points="705.4,1079.2 535,1079.2 363.2,1079.2 367.5,877.2 369.2,795.2 534.3,796.3 698,797.5 700,872.5 	"/>
	<line class="st12" x1="534.3" y1="796.3" x2="535" y2="1079.2"/>
	<line class="st12" x1="367.5" y1="877.2" x2="700" y2="872.5"/>
</g>
<g class="st13">
	
		<image style="overflow:visible;opacity:0.59;enable-background:new    ;" width="1842" height="663" xlink:href="E0BAD88C.png"  transform="matrix(0.2962 0 0 0.2962 264.1699 626.5569)">
	</image>
	<g>
		<path class="st14" d="M782.7,795l-508.6-2.1l0,0c2.6-87.1,74.1-156.3,161.4-155.8l184.6,1.1C707.3,638.8,779,707.8,782.7,795
			L782.7,795z"/>
	</g>
</g>
<text transform="matrix(1 0 0 1 426.3549 740.5188)" class="st15 st16 st17">Logo</text>
<image style="overflow:visible;enable-background:new    ;" width="600" height="319" xlink:href="../../../../../006-hardcover-inside-book-stationery-mockup-psd-presentation-isometric-free_grande.jpg"  transform="matrix(1 0 0 1 1089 548.7312)">
</image>
</svg>
