<?xml version="1.0" encoding="utf-8"?>
<!-- Generator: Adobe Illustrator 25.1.0, SVG Export Plug-In . SVG Version: 6.00 Build 0)  -->
<svg version="1.1" id="Layer_1" xmlns="http://www.w3.org/2000/svg" xmlns:xlink="http://www.w3.org/1999/xlink" x="0px" y="0px"
	 viewBox="0 0 360 361" style="enable-background:new 0 0 360 361;" xml:space="preserve">
<style type="text/css">
	.st0{fill:#FAD02F;stroke:#000000;stroke-miterlimit:10;}
	.st1{fill:#343652;}
	.st2{fill:none;stroke:#90ADC6;stroke-width:12;stroke-miterlimit:10;}
</style>
<rect x="-5" y="-5" class="st0" width="370" height="372.79"/>
<g>
	<path class="st1" d="M93.72,107.73v71.71h14.18v17.94H70.41v-89.65H93.72z"/>
	<path class="st1" d="M165.1,160.23c0,9.01-0.21,15.39-0.64,19.13c-0.42,3.75-1.75,7.17-3.99,10.27c-2.23,3.1-5.25,5.48-9.05,7.14
		c-3.8,1.66-8.23,2.49-13.29,2.49c-4.8,0-9.11-0.78-12.93-2.35c-3.82-1.57-6.89-3.92-9.22-7.06c-2.33-3.14-3.71-6.55-4.15-10.24
		c-0.44-3.69-0.66-10.15-0.66-19.38v-15.34c0-9.01,0.21-15.39,0.64-19.13c0.42-3.75,1.75-7.17,3.99-10.27
		c2.23-3.1,5.25-5.48,9.05-7.14s8.23-2.49,13.29-2.49c4.8,0,9.11,0.78,12.93,2.35c3.82,1.57,6.89,3.92,9.22,7.06
		c2.33,3.14,3.71,6.55,4.15,10.24c0.44,3.69,0.66,10.15,0.66,19.38V160.23z M141.79,130.77c0-4.17-0.23-6.84-0.69-8
		s-1.41-1.74-2.85-1.74c-1.22,0-2.15,0.47-2.8,1.41s-0.97,3.72-0.97,8.33v41.86c0,5.21,0.21,8.42,0.64,9.64
		c0.42,1.22,1.41,1.83,2.96,1.83c1.59,0,2.6-0.7,3.05-2.1s0.66-4.74,0.66-10.02V130.77z"/>
	<path class="st1" d="M227.29,140.74h-23.31v-8.14c0-5.13-0.22-8.34-0.66-9.64c-0.44-1.29-1.5-1.94-3.16-1.94
		c-1.44,0-2.42,0.55-2.93,1.66c-0.52,1.11-0.78,3.95-0.78,8.53v43.03c0,4.02,0.26,6.67,0.78,7.95c0.52,1.27,1.55,1.91,3.1,1.91
		c1.7,0,2.85-0.72,3.46-2.16c0.61-1.44,0.91-4.25,0.91-8.42v-10.63h-4.71v-13.62h27.3v48.12h-14.65l-2.16-6.42
		c-1.59,2.77-3.59,4.85-6.01,6.23c-2.42,1.38-5.27,2.08-8.56,2.08c-3.92,0-7.59-0.95-11-2.85c-3.42-1.9-6.01-4.25-7.78-7.06
		c-1.78-2.81-2.88-5.75-3.33-8.83c-0.44-3.08-0.66-7.71-0.66-13.87v-26.64c0-8.56,0.46-14.79,1.38-18.66
		c0.92-3.88,3.57-7.43,7.95-10.66c4.37-3.23,10.03-4.85,16.97-4.85c6.83,0,12.5,1.4,17,4.21c4.5,2.81,7.44,6.14,8.8,10
		c1.37,3.86,2.05,9.46,2.05,16.81V140.74z"/>
	<path class="st1" d="M289.59,160.23c0,9.01-0.21,15.39-0.64,19.13c-0.42,3.75-1.75,7.17-3.99,10.27c-2.23,3.1-5.25,5.48-9.05,7.14
		c-3.8,1.66-8.23,2.49-13.29,2.49c-4.8,0-9.11-0.78-12.93-2.35s-6.89-3.92-9.22-7.06c-2.33-3.14-3.71-6.55-4.15-10.24
		s-0.66-10.15-0.66-19.38v-15.34c0-9.01,0.21-15.39,0.64-19.13c0.42-3.75,1.75-7.17,3.99-10.27c2.23-3.1,5.25-5.48,9.05-7.14
		c3.8-1.66,8.23-2.49,13.29-2.49c4.8,0,9.11,0.78,12.93,2.35c3.82,1.57,6.89,3.92,9.22,7.06c2.33,3.14,3.71,6.55,4.15,10.24
		c0.44,3.69,0.66,10.15,0.66,19.38V160.23z M266.28,130.77c0-4.17-0.23-6.84-0.69-8c-0.46-1.16-1.41-1.74-2.85-1.74
		c-1.22,0-2.15,0.47-2.8,1.41s-0.97,3.72-0.97,8.33v41.86c0,5.21,0.21,8.42,0.64,9.64s1.41,1.83,2.96,1.83c1.59,0,2.6-0.7,3.05-2.1
		c0.44-1.4,0.66-4.74,0.66-10.02V130.77z"/>
</g>
<path class="st2" d="M50.88,254.81c-0.41-7.17,0.08-19.35,8.2-27.46c3.3-3.3,8.28-6.35,16.4-7.7
	c35.34-5.91,186.46,10.82,215.57-0.08c9.43-3.53,13.93-10.25,13.93-10.25c4.31-6.43,4.5-13.74,4.1-18.44"/>
</svg>
