<?xml version="1.0" encoding="utf-8"?>
<!-- Generator: Adobe Illustrator 25.1.0, SVG Export Plug-In . SVG Version: 6.00 Build 0)  -->
<svg version="1.1" id="Layer_1" xmlns="http://www.w3.org/2000/svg" xmlns:xlink="http://www.w3.org/1999/xlink" x="0px" y="0px"
	 viewBox="0 0 1080 1080" style="enable-background:new 0 0 1080 1080;" xml:space="preserve">
<style type="text/css">
	.st0{opacity:0.49;fill:#243F90;enable-background:new    ;}
	.st1{opacity:0.24;enable-background:new    ;}
	.st2{fill:#243F90;}
	.st3{fill:none;stroke:#EAEDF4;stroke-width:2.7749;stroke-miterlimit:10;}
	.st4{fill:none;stroke:#FFFFFF;stroke-width:2.7749;stroke-miterlimit:10;}
	.st5{fill:#EAEDF4;}
	.st6{fill:none;stroke:#FFFFFF;stroke-width:3.9062;stroke-miterlimit:10;}
	.st7{fill:none;stroke:#FFFFFF;stroke-width:3.8165;stroke-miterlimit:10;}
</style>
<image style="overflow:visible;enable-background:new    ;" width="750" height="751" xlink:href="services1.png"  transform="matrix(0.4634 0 0 0.4634 1152.4626 61.4195)">
</image>
<rect x="-9" y="-9" class="st0" width="1098" height="1103.6"/>
<g class="st1">
	<path class="st2" d="M250.5,619.4c-1.4,0-2.8-0.4-3.6-1.1c-17.5-13.2-22.8-68-26.7-68c-6.1,0-45.9,49.2-56.6,63
		c-2.5,3.2-7.1,4.3-12.1,4.3c-29.6,0-22.4-15-38.5-90.5c-21,32.8-45.2,78.4-55.6,97.6c-1.1,2.1-5.7,3.6-10.3,3.6c-5,0-8.9-1.4-8.9-5
		c1.4-10,62.7-131.8,71.2-143.2c6.1-7.8,15-13.5,21.7-13.5c3.6,0,6.1,1.8,7.5,5.7c5,17.8,6.8,65.2,20.7,106.8
		c39.5-39.5,59.1-66.6,79.4-66.6c1.8,0,3.6,0.4,4.6,1.1c5.3,3.9,27.4,75.2,27.4,91.9c0,1.1-0.4,1.8-0.4,2.1
		C269.4,613,257.2,619.4,250.5,619.4z"/>
	<path class="st2" d="M356.2,619.4c-37.4,0-55.6-36.7-55.6-67.3c0-59.1,42.7-83.7,63-83.7c6.8,0,13.9,1.1,19.6,8.2
		c12.8,0,34.5,5,38.1,61.6C421.4,575.6,389,619.4,356.2,619.4z M376.9,497.3c-28.5,0-54.8,42-54.8,69.5c0,16,8.9,22.1,18.2,22.1
		c15,0,34.9-14.2,41.3-26.4c7.1-13.2,12.5-36.7,12.5-50.6c0-1.4,0-2.8,0-4.3C392.9,498,382.6,497.3,376.9,497.3z"/>
	<path class="st2" d="M630.1,481.9c0,0-77.3,58.8-109.3,88.7c26.4,15,63,25.6,79.8,34.9c4.3,2.5,5.7,7.1,5.7,10.7
		c0,5-2.1,5.7-6.4,5.7c-20.7,0-54.1-16-94.4-38.5c0,0,3.9,53.4,4.3,62c0,2.1-1.4,3.2-4.6,3.2c-7.1,0-20.3-5.3-24.2-12.5
		c-2.8-5.3-7.8-101.9-7.8-160.6c0-29.2-1.8-47,10-47c1.1,0,2.5,0,3.6,0.4c4.3,0.7,16.4,5.7,17.8,10.7c0.7,0,0.7,5.7,0.7,13.2
		c0,12.5-0.4,31.3-0.4,49.2c0,19.9,0,42,1.8,45.9c17.8-15.7,75.9-73.4,108.3-77.6c4.6,0,15,6.4,15.3,11
		C630.1,481.6,630.1,481.6,630.1,481.9z"/>
	<path class="st2" d="M812.8,470.2c0,60.5-47.4,164.2-91.2,172.4c-3.6,0.7-8.5,1.1-13.5,1.1c-14.6,0-32.4-3.2-39.9-14.6
		c-10.3-15.7-16.4-45.6-16.4-75.9c0-27.1,4.6-55.2,15.3-76.6c0.7-1.8,2.1-2.1,4.3-2.1c7.8,0,23.2,10.3,22.4,13.5
		c-9.3,26.4-12.8,54.8-12.8,79.4c0,34.2,6.8,60.2,16,60.2c39.9,0,84.1-106.9,84.4-173.1c0-5.7,11.8-9.6,20.3-9.6
		c11,0,9.6,7.5,10.3,13.5C812.4,462,812.8,466.3,812.8,470.2z"/>
	<path class="st2" d="M1041.8,497.3c0,1.1-0.4,2.1-0.7,3.6c-11.8,33.5-98.3,76.2-150.3,88.3c0,1.1,0,2.5,0,3.9
		c0,10.3,0.4,29.9,0.4,43.5c0,8.9,0.7,15-2.1,15c-5.3,0-21.4-10.3-23.5-18.9c-3.9-15-6.4-61.3-6.4-104.4c0-43.8,2.5-84.1,7.5-85.1
		c18.9-3.9,36-5.3,50.9-5.3c47,0,74.1,15,89,23.2c17.8,10,33.8,23.5,35.3,34.9C1041.8,496.2,1041.8,496.9,1041.8,497.3z M1009.7,483
		c-16.4-10.7-39.5-22.1-87.6-22.1c-9.3,0-19.2,0.4-30.3,1.4c0,0-1.1,69.8-1.8,103.3c20.7-4.6,123.2-56.6,123.2-78
		C1012.9,485.9,1011.9,484.4,1009.7,483z"/>
</g>
<g>
	<path class="st3" d="M741.1,944.3v21.4c0,47.5,38.5,85.9,85.9,85.9h127.5c47.5,0,85.9-38.5,85.9-85.9V686.5"/>
	<line class="st3" x1="741.1" y1="916.5" x2="741.1" y2="761.1"/>
	<line class="st3" x1="741.1" y1="728" x2="741.1" y2="686.5"/>
	<ellipse class="st4" cx="891" cy="683.8" rx="149.4" ry="36.9"/>
	<path class="st5" d="M893.6,689.9c0,0-1.3,0-2.9,0s-2.9,0-2.9,0s1.3,0,2.9,0S893.6,689.9,893.6,689.9z"/>
	<path class="st4" d="M741.1,728c-7.5-3.5-16.5-6-26.8-5.6c-31.1,1.1-48.8,28.1-55.5,38.2c-22.6,34.4-16.7,72.7-13.6,93.3
		c2.5,16.1,5.5,36.1,21,55.7c12.8,16.3,28.6,27.1,46.9,32c7.2,2,14.8,2.9,22.4,2.9c1.9,0,3.7-0.1,5.6-0.2"/>
	<path class="st4" d="M741.1,916.5c-5.9,0.6-13.1,0.4-20.7-1.7c-18.7-5.1-29-18.1-32.3-22.4c-10.9-13.9-13.2-28.5-15.3-42.7
		c-2.9-19.2-7.4-48.3,9.3-73.8c5.4-8.2,16.5-25.1,33.3-25.7c11.7-0.4,21.1,6.7,25.8,11.1"/>
</g>
<g>
	<path class="st6" d="M436.2,293.9c-11.2,6.7-43.5,138.5-52.4,175.4c-1.5,6.3-2.3,12.7-2.3,19.2v497.2"/>
	<path class="st6" d="M430.1,219.7c3.6,0,6.6,2.6,7.2,6.1c2.8,16.6,9.5,61.8-1.1,68.1h147.5"/>
	<path class="st6" d="M587.8,221c4,0,7.3-3.3,7.3-7.3v-56.5c0-33.1-26.8-59.9-59.9-59.9h-46.9h-9.1c-33.1,0-59.9,26.8-59.9,59.9
		v55.2c0,4,3.3,7.3,7.3,7.3h3.4L587.8,221c-3.4,0-6.3,2.3-7.1,5.6c-3,12.6-9,43.5,0.2,60.8"/>
	<path class="st6" d="M633.3,986c0.9-144,2.6-477.3-0.4-509.9c-3.9-41.7-40.4-166.7-52.1-188.8"/>
	<path class="st7" d="M631.4,985.5c0,1.9-0.1,3.7-0.3,5.5c-3,32.9-30.6,58.7-64.3,58.7H450c-35.7,0-64.6-28.9-64.6-64.6L631.4,985.5
		z"/>
</g>
<g>
	<path class="st6" d="M117.6,293.9c-11.2,6.7-43.5,138.5-52.4,175.4c-1.5,6.3-2.3,12.7-2.3,19.2v497.2"/>
	<path class="st6" d="M111.5,219.7c3.6,0,6.6,2.6,7.2,6.1c2.8,16.6,9.5,61.8-1.1,68.1h147.5"/>
	<path class="st6" d="M269.1,221c4,0,7.3-3.3,7.3-7.3v-56.5c0-33.1-26.8-59.9-59.9-59.9h-46.9h-9.1c-33.1,0-59.9,26.8-59.9,59.9
		v55.2c0,4,3.3,7.3,7.3,7.3h3.4L269.1,221c-3.4,0-6.3,2.3-7.1,5.6c-3,12.6-9,43.5,0.2,60.8"/>
	<path class="st6" d="M314.6,986c0.9-144,2.6-477.3-0.4-509.9c-3.9-41.7-40.4-166.7-52.1-188.8"/>
	<path class="st7" d="M312.7,985.5c0,1.9-0.1,3.7-0.3,5.5c-3,32.9-30.6,58.7-64.3,58.7H131.3c-35.7,0-64.6-28.9-64.6-64.6
		L312.7,985.5z"/>
</g>
</svg>
