<?xml version="1.0" encoding="utf-8"?>
<!-- Generator: Adobe Illustrator 25.1.0, SVG Export Plug-In . SVG Version: 6.00 Build 0)  -->
<svg version="1.1" id="Layer_1" xmlns="http://www.w3.org/2000/svg" xmlns:xlink="http://www.w3.org/1999/xlink" x="0px" y="0px"
	 viewBox="0 0 1080 1080" style="enable-background:new 0 0 1080 1080;" xml:space="preserve">
<style type="text/css">
	.st0{opacity:0.49;fill:#243F90;enable-background:new    ;}
	.st1{opacity:0.51;}
	.st2{fill:#EAEDF4;}
	.st3{fill:none;stroke:#F7F8F9;stroke-width:11.4097;stroke-miterlimit:10;}
</style>
<image style="overflow:visible;enable-background:new    ;" width="750" height="751" xlink:href="services1.png"  transform="matrix(0.4634 0 0 0.4634 1152.4626 61.4195)">
</image>
<rect x="-9" y="-9" class="st0" width="1098" height="1103.6"/>
<g class="st1">
	<path class="st2" d="M267.5,307.9l26,89.1l11.8,39.5l10.6,35.7l1.4,4.5h-72.7l-22.9-84.5l-49.4,74.2l-50.7-70.6
		c-4.9,17.2-10.2,38.3-16,63.4c-2.1,9.6-3.6,15.2-4.5,17c-0.9,1.8-2.8,2.7-5.6,2.7c-3.5,0-5.3-1.2-5.3-3.6c0-0.7,1.1-4.7,3.4-12.1
		l7.4-25.5l12.9-44l25.3-86l65.5,94.9L267.5,307.9z"/>
	<path class="st2" d="M393.7,342.9c12.8,0,25,3.5,36.5,10.6c10.6,6.5,18.7,15.5,24.3,26.8c4.9,10,7.4,20.5,7.4,31.7
		c0,7.7-1.5,15.3-4.4,23.1c-2.9,7.7-6.9,14.6-11.9,20.6c-7,8.2-15.6,14.4-25.7,18.5c-8.3,3.4-16.9,5.1-25.9,5.1
		c-15.1,0-28.6-4.5-40.6-13.4c-9.4-6.9-16.5-15.7-21.4-26.4c-4.1-9.1-6.1-18.7-6.1-28.8c0-19.8,7.2-36.2,21.5-49.3
		C360.8,349.3,376.3,343.1,393.7,342.9z M390.3,350.5l-0.4,120.6c2.5,0.2,4.2,0.2,5.1,0.2c11.1,0,21.7-3.1,31.8-9.3
		c9.7-6.1,17-14.1,21.9-24.2c3.8-8,5.7-16.8,5.7-26.3c0-19.2-7.1-34.8-21.3-46.8c-11.5-9.7-24-14.5-37.4-14.5
		C394.6,350.3,392.8,350.4,390.3,350.5z"/>
	<path class="st2" d="M543.9,304l-1.3,38.6l-0.1,3.7c6.9,0,13.2-0.3,18.9-0.8c1-0.1,1.8-0.1,2.5-0.1c3.5,0,5.3,1.6,5.3,4.8
		c0,3-1.8,4.5-5.5,4.5c-1.1,0-2.5-0.1-4.2-0.2c-6.3-0.5-10.8-0.7-13.5-0.7h-3.5l-0.1,23.2l0.4,46.4l0.3,24.8c0,5.8,0.4,9.9,1.3,12.2
		c0.9,2.3,2.4,3.5,4.6,3.5c2.9,0,6-1.7,9.3-5c3.2-3.3,5.7-7.5,7.6-12.3c1.7-4.6,3.7-6.9,6-6.9c2.7,0,4.1,1.5,4.1,4.5
		c0,3-1.4,6.8-4.1,11.3c-2.7,4.5-6,8.4-9.8,11.8c-9.4,8.2-21.6,12.3-36.6,12.3c-14.1,0-25-4.3-32.8-12.8c-4-4.3-6.7-9.1-8.2-14.4
		c-1.5-5.3-2.3-12.6-2.3-22v-9l0.1-25.2v-42.8c-1.1-0.1-1.9-0.1-2.4-0.1c-0.8,0-2.4,0.1-4.8,0.2c-2,0.2-3.7,0.2-5,0.2
		c-3.9,0-5.9-1.5-5.9-4.5c0-2.9,1.9-4.4,5.6-4.4c1.8,0,3,0,3.7,0.1l8.7,0.6v-13.5C505.8,323.6,526.4,314.2,543.9,304z"/>
	<path class="st2" d="M645.5,346.1v3.5l-0.2,18.7l-0.2,28.9l-0.4,44l0.5,24.7l0.2,10.8h-61.5l0.6-44l0.4-38.9l-0.2-20.4l-0.4-22.7
		l0.1-4.5H645.5z M614.5,304.3c21,0,31.6,5.5,31.6,16.5c0,5.3-2.8,9.5-8.3,12.5c-5.5,3-13.3,4.5-23.4,4.5c-20,0-30-5.7-30-17
		C584.4,309.9,594.5,304.4,614.5,304.3z"/>
	<path class="st2" d="M733.6,342.9c12.8,0,25,3.5,36.5,10.6c10.6,6.5,18.7,15.5,24.3,26.8c4.9,10,7.4,20.5,7.4,31.7
		c0,7.7-1.5,15.3-4.4,23.1c-2.9,7.7-6.9,14.6-11.9,20.6c-7,8.2-15.6,14.4-25.7,18.5c-8.3,3.4-16.9,5.1-25.9,5.1
		c-15.1,0-28.6-4.5-40.6-13.4c-9.4-6.9-16.5-15.7-21.4-26.4c-4.1-9.1-6.1-18.7-6.1-28.8c0-19.8,7.2-36.2,21.5-49.3
		C700.7,349.3,716.2,343.1,733.6,342.9z M730.1,350.5l-0.4,120.6c2.5,0.2,4.2,0.2,5.1,0.2c11.1,0,21.7-3.1,31.8-9.3
		c9.7-6.1,17-14.1,21.9-24.2c3.8-8,5.7-16.8,5.7-26.3c0-19.2-7.1-34.8-21.3-46.8c-11.5-9.7-24-14.5-37.4-14.5
		C734.5,350.3,732.7,350.4,730.1,350.5z"/>
	<path class="st2" d="M881.7,346.1v16.6c9.3-6.6,18.5-11.6,27.4-14.9c8.9-3.3,17.6-5,26.1-5c11.3,0,20.9,2.6,28.7,7.8
		c5.9,3.9,9.9,8.7,11.9,14.5c2,5.8,3,15.2,3,28.3l-0.2,55.4l0.4,27.9h-60.7l0.4-33.2l0.3-24.4l-0.1-36.8c-0.1-8.5-0.2-13.6-0.3-15.2
		c-0.1-1.6-0.5-3.1-1.1-4.4c-1.3-2.6-4-3.8-8.2-3.8c-3.9,0-8.1,1.1-12.7,3.3c-4.5,2.2-9.4,5.6-14.7,10l-0.1,4.9l-0.2,33.6l-0.2,25.7
		l0.4,35.1l0.1,5.1h-61.1l0.4-46.9l0.4-31l-0.4-26.8l-0.4-25.9H881.7z"/>
	<path class="st2" d="M123.9,688.1c-0.5,23.7-8.1,43.4-22.7,59.3c-8.2,8.8-18,15.7-29.2,20.6c-11.3,4.9-23,7.4-35.1,7.4
		c-10.5,0-20.9-2-31.1-6c-10.2-4-19.2-9.6-27.1-16.7c-10.1-9.2-17.6-20.4-22.5-33.4c-3.8-10.4-5.7-20.6-5.7-30.8
		c0-19,5.9-36.2,17.6-51.6c8-10.8,18.2-19.2,30.4-25.3s25-9.1,38.4-9.1c23.5,0,43.8,8.1,60.7,24.3c7.6,7.3,11.4,12.4,11.4,15.4
		c0,1-0.4,1.9-1.3,2.6c-0.8,0.7-1.9,1.1-3,1.1c-1.8,0-3.8-1.4-5.8-4.2c-16-21.3-36.5-31.9-61.6-31.9c-3,0-6.1,0.2-9.2,0.6l-0.7,84.9
		l0.6,72.1c3,0.6,6,0.8,9.1,0.8c9,0,17.7-1.5,26.1-4.5c21.3-7.6,36.6-21.5,46-41.7c4-8.5,6.3-17.2,7-26.1H53.6
		c-5.5-0.2-8.8-0.4-9.9-0.8c-1.1-0.4-1.7-1.4-1.7-3.1c0-2.6,1.9-3.8,5.7-3.8l7.2,0.1H123.9z"/>
	<path class="st2" d="M204.6,677l-0.2,45.9l0.5,47.6h-61.5l0.1-6.6l0.1-24.4l0.4-43.9l-0.6-48.8l-0.1-6.9h61.3v24.6
		c9.1-9.7,15.5-15.9,19.1-18.4c8.3-5.8,16.1-8.7,23.4-8.7c4.5,0,8.1,1,11,2.9c2.9,1.9,4.4,4.3,4.4,7.3c0,2.3-0.9,4.2-2.6,5.7
		c-1.8,1.5-3.9,2.3-6.6,2.3c-1.7,0-3.5-0.5-5.6-1.4c-3.5-1.7-6.4-2.5-8.7-2.5c-5.7,0-11.3,2-16.6,5.9
		C217.2,661.4,211.2,667.9,204.6,677z"/>
	<path class="st2" d="M351.8,690.9v-14.6c-0.1-10.1-0.2-16.3-0.5-18.7c-0.2-2.3-1-4.4-2.2-6.2c-2.9-4.5-9.6-6.7-20.1-6.7
		c-16.3,0-28.9,5.1-37.7,15.3c-3.6,4.1-6.6,6.2-9.1,6.2c-1.8,0-3.4-0.6-4.8-1.9c-1.4-1.3-2-2.7-2-4.4c0-5,5.9-10.2,17.8-15.5
		c11.3-5.1,25.9-7.7,43.9-7.7c29.5,0,50.3,4.5,62.4,13.4c5.3,3.9,8.7,8.3,10.3,13.2c1.6,4.9,2.4,13.4,2.4,25.7v47.5
		c-0.3,8.8-0.1,15.4,0.8,19.8c0.8,4.4,2.7,9.2,5.7,14.3h-66.9v-12.6c-7.3,5-14.6,8.8-21.8,11.4c-7.2,2.6-14.3,3.8-21.3,3.8
		c-11.9,0-22.4-3.5-31.7-10.4c-12-9.1-18.1-20.9-18.1-35.4c0-12.8,4.9-23.2,14.6-31.1c11.3-9.3,25.4-14,42.1-14
		c6.9,0,12.9,0.6,18.2,1.9C339,685.3,345,687.6,351.8,690.9z M351.8,699.5c-10-5-17.8-7.5-23.3-7.5c-4.6,0-7.7,1.8-9.1,5.5
		c-0.8,2-1.2,7.8-1.2,17.3v28.6c0.1,6.3,0.3,10.1,0.6,11.5c0.8,3.7,3.5,5.5,8.1,5.5c3.7,0,7.8-1.1,12.3-3.3
		c4.5-2.2,8.6-5.1,12.4-8.7L351.8,699.5z"/>
	<path class="st2" d="M439.3,639.9h61.1l-0.4,15.7c8-6.9,15.4-11.8,22.1-14.6c6.7-2.8,14.1-4.2,22.1-4.2c16.5,0,29.9,6.1,40.2,18.4
		c9.2,11,13.9,25,13.9,42c0,18.1-5.3,33-15.9,44.6c-9.8,10.8-22,16.1-36.7,16.1c-7.7,0-15.4-1.6-23.1-4.8s-15.3-8.1-22.8-14.5
		l0.1,4.4l0.1,15.7l0.2,13l0.1,4.4h-61.1l0.1-34.1l0.2-31.7l-0.4-66.1V639.9z M500,666.3v62.4c5.8,5.4,11,9.5,15.7,12.3
		c4.6,2.7,8.6,4.1,12.1,4.1c3.2,0,5.1-1.6,5.6-4.7c0.2-1,0.3-6.4,0.4-16.1v-58.5c0-6.9-0.1-11.1-0.4-12.4c-0.6-3.3-2.2-5-5-5
		c-3.6,0-7.9,1.6-13,4.8C510.2,656.5,505.1,660.8,500,666.3z"/>
	<path class="st2" d="M679,656.8c7.7-5.2,13.9-9,18.8-11.4c12-5.8,23.8-8.7,35.5-8.7c8.4,0,16.1,1.5,22.8,4.5
		c6.8,3,11.8,7.2,15.1,12.4c3.9,6.3,5.9,17.9,5.9,34.7l-0.2,17.8l-0.2,23.6l1,40.8H716l0.5-73.9l-0.7-37.8c-0.8-4.1-3.7-6.2-8.8-6.2
		c-3.7,0-7.9,1.1-12.6,3.4c-4.6,2.3-9.8,5.7-15.4,10.3l-0.2,30l0.4,52l0.3,22.1H618l0.2-50.5v-57.5l-0.4-49.7l0.1-5.5h61v3.3
		l0.1,20.4l-0.1,12.7V656.8z"/>
	<path class="st2" d="M865.1,639.9v3.5l-0.2,18.7l-0.2,28.9l-0.4,44l0.5,24.7l0.2,10.8h-61.5l0.6-44l0.4-38.9l-0.2-20.4l-0.4-22.7
		l0.1-4.5H865.1z M834.2,598.1c21,0,31.6,5.5,31.6,16.5c0,5.3-2.8,9.5-8.3,12.5c-5.5,3-13.3,4.5-23.4,4.5c-20,0-30-5.7-30-17
		C804,603.7,814.1,598.2,834.2,598.1z"/>
	<path class="st2" d="M949.6,665.9v79.9l-0.1,7.7c0,4.9,0.6,8.2,1.9,9.9c1.2,1.6,3.7,2.5,7.5,2.5c9.4,0,18.7-2.9,27.7-8.7
		c9.1-5.8,16.5-13.5,22.2-23.3c1.8-2.9,3.5-4.4,5.1-4.4c1.2,0,2.3,0.5,3.3,1.6c1,1.1,1.5,2.2,1.5,3.4c0,2.9-2.3,6.9-6.9,12.1
		c-4.6,5.2-10,9.9-16.1,14c-12.5,8.4-25.9,12.6-40.2,12.6c-19.5,0-35.7-6.1-48.4-18.2c-14.5-13.6-21.8-30.3-21.8-50.1
		c0-20.4,7.7-37.4,23-50.9c12.8-11.5,28.7-17.2,47.5-17.2c15,0,28.1,3.5,39.3,10.6c4.8,3,8.7,6.3,11.7,9.7c3,3.5,4.5,6.4,4.5,8.8
		c0,1.2-0.4,2.2-1.3,3c-0.9,0.8-2,1.3-3.2,1.3c-1.7,0-3.8-1.9-6.3-5.7c-3.7-5.3-9.4-10-17.3-13.9c-7.9-3.9-15.3-5.9-22.4-5.9
		c-4.7,0-7.7,1.3-9.1,3.9C950.3,651.2,949.6,656.9,949.6,665.9z"/>
	<path class="st2" d="M1029.3,748.4c1.6,0,3.6,1.2,6.1,3.6c4,3.8,9.6,7,17,9.7c7.3,2.7,14.2,4,20.6,4c2.9,0,5.2-0.5,6.6-1.5
		c1.5-1,2.2-2.5,2.2-4.4c0-1.9-1-4.2-3-6.9c-2-2.7-6.6-7.8-13.6-15.4c-17.1-18.3-28.2-31.2-33.3-38.7c-5.1-7.5-7.6-14.6-7.6-21.5
		c0-6,1.7-11.7,5.2-17.2c3.5-5.5,8.3-10.1,14.5-13.9c10.3-6.4,22.1-9.6,35.4-9.6c9.8,0,20.2,2.1,31.1,6.2
		c8.5,3.3,12.8,6.8,12.8,10.6c0,1.2-0.5,2.3-1.5,3.2c-1,1-2.1,1.4-3.4,1.4c-1.5,0-4.3-1.5-8.5-4.4c-8.4-6.1-17.7-9.1-27.6-9.1
		c-3.5,0-6.2,0.6-8,1.7c-1.8,1.1-2.7,2.8-2.7,5.1c0,2.7,1.7,6.1,5,10.3c3.3,4.1,10,11.2,20.1,21c9.9,9.6,16.2,16,18.8,18.9
		c2.7,3,5.2,6.4,7.7,10.3c4.2,6.7,6.3,13.9,6.3,21.8c0,12.3-5.9,22.2-17.8,29.8c-9.7,6.3-21.7,9.4-35.9,9.4
		c-15.8,0-29.8-3.5-42-10.5c-3.6-2.2-6-3.9-7.4-5.3c-1.3-1.4-2-2.8-2-4.4C1024.6,750,1026.2,748.4,1029.3,748.4z"/>
</g>
<circle class="st0" cx="540" cy="540" r="189"/>
<polygon class="st3" points="627,541 493.3,618.2 493.3,463.8 "/>
</svg>
