<?xml version="1.0" encoding="utf-8"?>
<!-- Generator: Adobe Illustrator 25.1.0, SVG Export Plug-In . SVG Version: 6.00 Build 0)  -->
<svg version="1.1" id="Layer_1" xmlns="http://www.w3.org/2000/svg" xmlns:xlink="http://www.w3.org/1999/xlink" x="0px" y="0px"
	 viewBox="0 0 1080 1080" style="enable-background:new 0 0 1080 1080;" xml:space="preserve">
<style type="text/css">
	.st0{opacity:0.49;fill:#243F90;enable-background:new    ;}
	.st1{opacity:0.28;}
	.st2{fill:#EAEDF4;}
	.st3{fill:none;stroke:#F7F8F9;stroke-width:11.4097;stroke-miterlimit:10;}
</style>
<image style="overflow:visible;enable-background:new    ;" width="750" height="751" xlink:href="services1.png"  transform="matrix(0.4634 0 0 0.4634 1152.4626 61.4195)">
</image>
<rect x="-9" y="-9" class="st0" width="1098" height="1103.6"/>
<g class="st1">
	<path class="st2" d="M262.6,273.9l27.4,93.7l12.4,41.5l11.2,37.6l1.5,4.8h-76.4l-24.1-88.9l-52,78.1l-53.3-74.2
		c-5.1,18.1-10.8,40.3-16.8,66.7c-2.2,10.1-3.8,16-4.7,17.9c-1,1.9-2.9,2.8-5.8,2.8c-3.7,0-5.5-1.3-5.5-3.8c0-0.8,1.2-5,3.5-12.7
		l7.8-26.8l13.6-46.3l26.6-90.4l68.8,99.8L262.6,273.9z"/>
	<path class="st2" d="M395.3,310.7c13.5,0,26.3,3.7,38.3,11.2c11.1,6.9,19.7,16.3,25.5,28.2c5.2,10.5,7.8,21.6,7.8,33.3
		c0,8-1.5,16.1-4.6,24.3c-3.1,8.1-7.2,15.3-12.5,21.6c-7.4,8.6-16.4,15.1-27,19.5c-8.7,3.6-17.8,5.4-27.3,5.4
		c-15.8,0-30.1-4.7-42.7-14.1c-9.9-7.2-17.4-16.5-22.5-27.8c-4.3-9.6-6.4-19.7-6.4-30.3c0-20.8,7.5-38.1,22.6-51.8
		C360.7,317.5,376.9,311,395.3,310.7z M391.6,318.8l-0.4,126.9c2.6,0.2,4.4,0.3,5.4,0.3c11.6,0,22.8-3.3,33.4-9.8
		c10.2-6.4,17.9-14.9,23-25.4c4-8.4,6-17.6,6-27.7c0-20.2-7.5-36.6-22.4-49.2c-12.1-10.2-25.2-15.2-39.4-15.2
		C396.2,318.5,394.3,318.6,391.6,318.8z"/>
	<path class="st2" d="M553.2,269.9l-1.4,40.6l-0.1,3.9c7.3,0,13.9-0.3,19.9-0.9c1-0.1,1.9-0.1,2.6-0.1c3.7,0,5.5,1.7,5.5,5.1
		c0,3.1-1.9,4.7-5.8,4.7c-1.2,0-2.6-0.1-4.4-0.3c-6.6-0.5-11.4-0.8-14.2-0.8h-3.6l-0.1,24.4l0.4,48.8l0.3,26.1
		c0,6.1,0.5,10.4,1.4,12.8c0.9,2.4,2.5,3.6,4.8,3.6c3,0,6.3-1.8,9.7-5.3c3.4-3.5,6-7.8,8-13c1.8-4.9,3.9-7.3,6.3-7.3
		c2.8,0,4.3,1.6,4.3,4.8c0,3.2-1.4,7.1-4.3,11.9c-2.8,4.7-6.3,8.9-10.3,12.4c-9.9,8.6-22.7,13-38.5,13c-14.8,0-26.3-4.5-34.5-13.4
		c-4.2-4.5-7.1-9.6-8.7-15.1c-1.6-5.6-2.4-13.3-2.4-23.2v-9.4l0.1-26.5v-45c-1.2-0.1-2-0.1-2.5-0.1c-0.8,0-2.5,0.1-5,0.3
		c-2.1,0.2-3.9,0.3-5.3,0.3c-4.1,0-6.2-1.6-6.2-4.7c0-3.1,2-4.6,5.9-4.6c1.8,0,3.1,0,3.9,0.1l9.2,0.6v-14.2
		C513.1,290.4,534.8,280.6,553.2,269.9z"/>
	<path class="st2" d="M660.1,314.1v3.6l-0.3,19.6l-0.3,30.4l-0.4,46.3l0.5,26l0.3,11.3h-64.6l0.6-46.3l0.4-40.9l-0.3-21.5l-0.4-23.9
		l0.1-4.8H660.1z M627.5,270.1c22.1,0,33.2,5.8,33.2,17.4c0,5.6-2.9,10-8.7,13.1s-14,4.7-24.6,4.7c-21,0-31.6-6-31.6-17.9
		C595.8,276.1,606.4,270.3,627.5,270.1z"/>
	<path class="st2" d="M752.7,310.7c13.5,0,26.3,3.7,38.3,11.2c11.1,6.9,19.7,16.3,25.5,28.2c5.2,10.5,7.8,21.6,7.8,33.3
		c0,8-1.5,16.1-4.6,24.3c-3.1,8.1-7.2,15.3-12.5,21.6c-7.4,8.6-16.4,15.1-27,19.5c-8.7,3.6-17.8,5.4-27.3,5.4
		c-15.8,0-30.1-4.7-42.7-14.1c-9.9-7.2-17.4-16.5-22.5-27.8c-4.3-9.6-6.4-19.7-6.4-30.3c0-20.8,7.5-38.1,22.6-51.8
		C718.1,317.5,734.4,311,752.7,310.7z M749.1,318.8l-0.4,126.9c2.6,0.2,4.4,0.3,5.4,0.3c11.7,0,22.8-3.3,33.4-9.8
		c10.2-6.4,17.9-14.9,23-25.4c4-8.4,6-17.6,6-27.7c0-20.2-7.5-36.6-22.4-49.2c-12.1-10.2-25.2-15.2-39.4-15.2
		C753.7,318.5,751.8,318.6,749.1,318.8z"/>
	<path class="st2" d="M908.5,314.1v17.5c9.8-7,19.4-12.2,28.8-15.7c9.4-3.5,18.5-5.2,27.4-5.2c11.9,0,22,2.7,30.2,8.2
		c6.2,4.1,10.4,9.2,12.5,15.3c2.1,6.1,3.2,16,3.2,29.7l-0.3,58.2l0.4,29.3h-63.9l0.4-35l0.3-25.6l-0.1-38.7c-0.1-9-0.2-14.3-0.3-16
		c-0.1-1.7-0.5-3.2-1.2-4.6c-1.3-2.7-4.2-4-8.7-4c-4.1,0-8.5,1.2-13.3,3.5c-4.8,2.3-9.9,5.9-15.5,10.6l-0.1,5.2l-0.3,35.3l-0.3,27
		l0.4,37l0.1,5.4h-64.2l0.4-49.3l0.4-32.6l-0.4-28.2l-0.4-27.3H908.5z"/>
	<path class="st2" d="M111.5,673.8c-0.5,24.9-8.5,45.7-23.9,62.4c-8.6,9.3-18.9,16.5-30.7,21.7C45,763,32.7,765.6,20,765.6
		c-11.1,0-22-2.1-32.7-6.3c-10.7-4.2-20.2-10.1-28.5-17.6c-10.6-9.7-18.5-21.4-23.6-35.1c-4-10.9-6-21.7-6-32.4
		c0-19.9,6.2-38.1,18.5-54.3c8.5-11.3,19.1-20.2,31.9-26.6s26.3-9.6,40.4-9.6c24.7,0,46,8.5,63.9,25.5c8,7.6,11.9,13,11.9,16.2
		c0,1.1-0.4,2-1.3,2.8c-0.9,0.8-1.9,1.1-3.2,1.1c-1.9,0-4-1.5-6.2-4.4c-16.8-22.4-38.4-33.6-64.8-33.6c-3.2,0-6.4,0.2-9.7,0.6
		l-0.8,89.3l0.6,75.8c3.2,0.6,6.4,0.9,9.5,0.9c9.5,0,18.6-1.6,27.5-4.8c22.4-8,38.5-22.6,48.3-43.9c4.2-9,6.7-18.1,7.4-27.4H37.6
		c-5.8-0.2-9.3-0.5-10.4-0.9c-1.2-0.4-1.8-1.5-1.8-3.3c0-2.7,2-4,6-4l7.5,0.1H111.5z"/>
	<path class="st2" d="M196.4,662.1l-0.3,48.3l0.5,50H132l0.2-6.9l0.2-25.6l0.5-46.1l-0.6-51.3l-0.2-7.3h64.5V649
		c9.6-10.2,16.3-16.7,20.1-19.4c8.7-6.1,16.9-9.2,24.6-9.2c4.7,0,8.6,1,11.6,3c3.1,2,4.6,4.6,4.6,7.7c0,2.4-0.9,4.4-2.8,6
		c-1.8,1.6-4.1,2.4-6.9,2.4c-1.8,0-3.7-0.5-5.9-1.5c-3.7-1.8-6.7-2.6-9.2-2.6c-6,0-11.8,2.1-17.4,6.2
		C209.6,645.7,203.3,652.5,196.4,662.1z"/>
	<path class="st2" d="M351.2,676.7v-15.3c-0.1-10.6-0.3-17.2-0.5-19.6c-0.3-2.4-1-4.6-2.3-6.5c-3-4.7-10.1-7-21.2-7
		c-17.1,0-30.4,5.4-39.7,16.1c-3.8,4.4-7,6.5-9.6,6.5c-1.9,0-3.6-0.7-5-2c-1.4-1.3-2.1-2.9-2.1-4.7c0-5.3,6.2-10.7,18.7-16.3
		c11.9-5.4,27.3-8,46.1-8c31,0,52.9,4.7,65.6,14.1c5.5,4.1,9.1,8.7,10.8,13.8c1.7,5.1,2.5,14.1,2.5,27v49.9
		c-0.3,9.2-0.1,16.2,0.8,20.8c0.9,4.7,2.9,9.7,6,15H351v-13.2c-7.7,5.3-15.4,9.3-22.9,11.9c-7.6,2.7-15.1,4-22.4,4
		c-12.5,0-23.6-3.6-33.3-10.9c-12.7-9.6-19-22-19-37.2c0-13.5,5.1-24.4,15.4-32.7c11.9-9.8,26.7-14.7,44.3-14.7
		c7.2,0,13.6,0.6,19.1,1.9C337.7,670.9,344,673.2,351.2,676.7z M351.2,685.7c-10.6-5.3-18.7-7.9-24.5-7.9c-4.9,0-8,1.9-9.6,5.8
		c-0.8,2.1-1.3,8.2-1.3,18.2v30c0.1,6.6,0.3,10.6,0.6,12.1c0.8,3.9,3.7,5.8,8.5,5.8c3.9,0,8.2-1.2,12.9-3.5c4.7-2.3,9.1-5.3,13-9.1
		L351.2,685.7z"/>
	<path class="st2" d="M443.2,623.1h64.2l-0.4,16.5c8.5-7.3,16.2-12.4,23.3-15.4c7-3,14.8-4.5,23.3-4.5c17.4,0,31.4,6.5,42.2,19.4
		c9.7,11.6,14.6,26.3,14.6,44.1c0,19-5.6,34.7-16.7,46.9c-10.3,11.3-23.2,17-38.6,17c-8.1,0-16.2-1.7-24.3-5.1
		c-8-3.4-16.1-8.5-24-15.3l0.1,4.7l0.1,16.5l0.3,13.7l0.1,4.7h-64.2l0.1-35.8l0.3-33.3l-0.4-69.5V623.1z M507.1,650.9v65.6
		c6.1,5.7,11.6,10,16.5,12.9c4.9,2.9,9.1,4.3,12.7,4.3c3.4,0,5.3-1.6,5.9-4.9c0.2-1.1,0.3-6.7,0.4-17v-61.5c0-7.3-0.1-11.6-0.4-13.1
		c-0.6-3.5-2.3-5.3-5.3-5.3c-3.8,0-8.3,1.7-13.7,5.1C517.8,640.5,512.4,645.1,507.1,650.9z"/>
	<path class="st2" d="M695.3,640.8c8-5.4,14.6-9.4,19.7-11.9c12.6-6.1,25-9.2,37.3-9.2c8.9,0,16.9,1.6,24,4.8
		c7.1,3.2,12.4,7.5,15.8,13.1c4.1,6.6,6.2,18.8,6.2,36.5l-0.3,18.7l-0.3,24.8l1,42.9h-64.6l0.5-77.7L734,643
		c-0.8-4.4-3.9-6.5-9.3-6.5c-3.9,0-8.3,1.2-13.2,3.6c-4.9,2.4-10.3,6-16.2,10.9l-0.3,31.6l0.4,54.7l0.3,23.3h-64.6l0.3-53.1v-60.5
		l-0.4-52.3l0.1-5.8h64.1v3.5l0.1,21.5l-0.1,13.3V640.8z"/>
	<path class="st2" d="M891,623.1v3.6l-0.3,19.6l-0.3,30.4l-0.4,46.3l0.5,26l0.3,11.3h-64.6l0.6-46.3l0.4-40.9l-0.3-21.5l-0.4-23.9
		l0.1-4.8H891z M858.5,579.1c22.1,0,33.2,5.8,33.2,17.4c0,5.6-2.9,10-8.7,13.1s-14,4.7-24.6,4.7c-21,0-31.6-6-31.6-17.9
		C826.8,585.1,837.4,579.3,858.5,579.1z"/>
	<path class="st2" d="M979.9,650.4v84l-0.1,8c0,5.2,0.6,8.7,1.9,10.4c1.3,1.7,3.9,2.6,7.9,2.6c9.9,0,19.6-3,29.2-9.1
		c9.6-6.1,17.4-14.2,23.4-24.5c1.8-3.1,3.6-4.7,5.4-4.7c1.3,0,2.4,0.6,3.5,1.7c1,1.1,1.6,2.3,1.6,3.6c0,3-2.4,7.3-7.3,12.8
		c-4.9,5.5-10.5,10.4-17,14.8c-13.2,8.8-27.2,13.2-42.2,13.2c-20.5,0-37.5-6.4-50.9-19.1c-15.3-14.3-22.9-31.9-22.9-52.7
		c0-21.5,8-39.3,24.1-53.6c13.5-12.1,30.1-18.1,49.9-18.1c15.8,0,29.5,3.7,41.4,11.2c5,3.2,9.1,6.6,12.3,10.2
		c3.2,3.6,4.8,6.7,4.8,9.2c0,1.3-0.5,2.3-1.4,3.2c-0.9,0.9-2.1,1.3-3.4,1.3c-1.8,0-4-2-6.7-6c-3.9-5.6-9.9-10.5-18.2-14.6
		c-8.3-4.1-16.1-6.2-23.5-6.2c-4.9,0-8.1,1.4-9.6,4.1C980.6,634.9,979.9,641,979.9,650.4z"/>
	<path class="st2" d="M1063.7,737.2c1.7,0,3.8,1.3,6.4,3.8c4.2,4,10.1,7.4,17.9,10.2c7.7,2.8,14.9,4.2,21.6,4.2c3.1,0,5.4-0.5,7-1.6
		s2.3-2.6,2.3-4.6c0-2-1.1-4.5-3.2-7.3c-2.1-2.8-6.9-8.2-14.3-16.2c-18-19.3-29.7-32.8-35-40.7c-5.3-7.8-8-15.4-8-22.6
		c0-6.3,1.8-12.3,5.5-18c3.6-5.7,8.7-10.6,15.3-14.6c10.8-6.7,23.2-10.1,37.2-10.1c10.3,0,21.2,2.2,32.7,6.5
		c9,3.4,13.5,7.2,13.5,11.2c0,1.3-0.5,2.4-1.6,3.4s-2.2,1.5-3.6,1.5c-1.6,0-4.6-1.6-8.9-4.7c-8.9-6.4-18.6-9.6-29-9.6
		c-3.7,0-6.5,0.6-8.4,1.8c-1.9,1.2-2.8,3-2.8,5.4c0,2.8,1.7,6.5,5.2,10.8c3.5,4.4,10.5,11.7,21.2,22.1c10.4,10.1,17,16.8,19.8,19.9
		c2.8,3.1,5.5,6.8,8.1,10.9c4.4,7,6.7,14.7,6.7,22.9c0,12.9-6.2,23.3-18.7,31.3c-10.2,6.6-22.8,9.9-37.7,9.9
		c-16.6,0-31.3-3.7-44.1-11.1c-3.8-2.3-6.3-4.1-7.7-5.5c-1.4-1.4-2.1-3-2.1-4.7C1058.8,738.8,1060.4,737.2,1063.7,737.2z"/>
</g>
<circle class="st0" cx="540" cy="540" r="189"/>
<polygon class="st3" points="627,541 493.3,618.2 493.3,463.8 "/>
</svg>
