<?xml version="1.0" encoding="utf-8"?>
<!-- Generator: Adobe Illustrator 25.1.0, SVG Export Plug-In . SVG Version: 6.00 Build 0)  -->
<svg version="1.1" id="Layer_1" xmlns="http://www.w3.org/2000/svg" xmlns:xlink="http://www.w3.org/1999/xlink" x="0px" y="0px"
	 viewBox="0 0 1080 1080" style="enable-background:new 0 0 1080 1080;" xml:space="preserve">
<style type="text/css">
	.st0{opacity:0.49;fill:#243F90;}
	.st1{fill:none;stroke:#FFFFFF;stroke-width:3;stroke-miterlimit:10;}
	.st2{opacity:0.21;}
	.st3{opacity:0.39;}
	.st4{opacity:0.5;}
	.st5{opacity:0.7;}
	.st6{opacity:0.49;}
	.st7{opacity:0.22;}
	.st8{opacity:0.31;}
	.st9{opacity:0.71;}
	.st10{fill:#FFFFFF;}
</style>
<image style="overflow:visible;" width="750" height="751" xlink:href="services1.png"  transform="matrix(0.4634 0 0 0.4634 1149.3658 67.6131)">
</image>
<rect x="-9" y="-11.8" class="st0" width="1098" height="1103.6"/>
<image style="overflow:visible;" width="600" height="319" xlink:href="../../../../../006-hardcover-inside-book-stationery-mockup-psd-presentation-isometric-free_grande.jpg"  transform="matrix(1.1031 0 0 1.1031 1239.1936 658.7999)">
</image>
<rect x="216.4" y="109.5" class="st1" width="647.2" height="860.9"/>
<g class="st2">
	<path class="st1" d="M317.2,900.4c-1.6,13.1-7.1,23.6-16.3,31.4c-9.2,7.8-20.7,11.7-34.4,11.7l-3.3,20.9l-37.5-0.1l3.9-51.1
		c0.9-13.3,2.1-31.6,3.4-55c7.3-1.4,17.9-2.1,31.8-2.1c16.9,0,30,3.5,39.4,10.3C314.7,874,319,885.4,317.2,900.4z M287.2,912
		c0.9-7.2-2.9-10.8-11.4-10.8c-1,0-2,0.1-3.1,0.2l-3.6,24.2C280.1,925.2,286.2,920.7,287.2,912z"/>
	<path class="st1" d="M412.7,909.5c-2.2,16.3-8.2,29.9-18.1,41.1c-10.3,11.6-22.2,17.4-35.7,17.4c-14,0-24.5-5.9-31.7-17.6
		c-6.8-11.1-9.1-24.7-7.1-41c2.2-17.4,8.4-31.1,18.6-41.1c9.7-9.4,21.4-14.1,35.1-14.1c13.5,0,23.8,4.8,31,14.3
		C412.5,878.4,415.1,892.1,412.7,909.5z M378,921.6c1.7-12.8-1.8-19.2-10.4-19.2c-8.4,0-13.4,6.4-15.1,19.3
		c-0.7,5.1-0.2,9.9,1.4,14.4c1.8,5,4.5,7.5,8.1,7.5c3.5,0,6.9-2.5,10.3-7.6C375.5,931.3,377.4,926.5,378,921.6z"/>
	<path class="st1" d="M484.4,902.2c-3.3-0.8-5.8-1.2-7.5-1.2c-2.2,0-4.2,0.7-6.2,2.2c-2.4,1.8-3.8,4.1-4.2,7
		c-0.3,2.2,1,6.5,4.1,12.8c3,6.3,4.2,12.1,3.4,17.4c-1.1,7.6-4.9,13.9-11.4,18.8c-6.2,4.7-13.3,7-21.4,7c-7.5,0-12.9-0.5-16.3-1.6
		c-0.1-2.1-0.3-5.5-0.7-10.3c-0.3-2.6-0.7-6-1.2-10.2c4.8,1.2,8.1,1.9,9.9,1.9c6.8,0,10.6-2.6,11.3-7.7c0.5-3.8-0.4-7.1-2.7-10.1
		c-3.9-4-7.9-7.9-11.8-12c-7.6-7.8-10.7-17-9.2-27.7c1.5-11.2,6.8-19.7,15.9-25.5c7.9-5,17.9-7.5,30-7.5c6.8,0,14.3,1,22.5,3
		L484.4,902.2z"/>
	<path class="st1" d="M580.7,858.5l-8.9,43.9c-1.7-0.3-4.6-0.6-8.4-1.1c-2.4-0.1-6.3-0.3-11.8-0.4c-0.7,2.7-2.2,9.3-4.5,19.7
		c-2.1,10.1-5.1,24.8-9.2,44.2l-33.1-0.1c1-9.2,2.5-23.7,4.4-43.6c0.6-6.9,1.1-13.7,1.6-20.3l-10.9,0.4l-10,1l4.7-43.9L580.7,858.5z
		"/>
	<path class="st1" d="M657.6,858.6l-10.3,44.2c-1.7-0.3-5.2-0.8-10.8-1.5c-3.8-0.4-8-0.6-12.6-0.7l-3.2,13.2c5,0.1,13.3,0,24.8-0.3
		c-0.8,1.7-2.1,4.9-4,9.5c-1.1,2.8-2.2,6-3.3,9.7c-1.3-0.3-4.5-0.7-9.8-1.3c-2.4-0.1-6.1-0.2-11-0.2l-3.2,15.3
		c3.4,0,9.8-0.3,19.1-0.9c1.8-0.1,4.7-0.7,8.8-1.6c-0.6,1.4-2,4.8-4.2,10.2c-1.1,2.8-2.5,6.3-4.1,10.5l-61.2-0.1l6.5-53.9
		c1.6-12.4,3.4-29.9,5.5-52.4L657.6,858.6z"/>
	<path class="st1" d="M749.5,898.9c-1.5,8.5-5.2,16-11.1,22.6c-5.2,5.7-11.1,9.8-17.8,12.3c1,2.1,3.5,6.4,7.5,13c2.1,3,5.3,7,9.8,12
		c-2.3,0.8-7.4,2.7-15.2,5.9c-5.5,2.3-10.7,4.6-15.6,6.8c-1-1.6-3.2-5.9-6.6-12.7c-1.5-3.5-3.6-9.3-6.2-17.6l-0.1,0l-4.8,24
		l-38.5-0.1c1.2-9.9,3.2-26.4,6.1-49.4c1.9-13.6,4.1-32.6,6.7-56.9c12.9-1.3,24.6-2,35.1-2C737.6,856.7,754.5,870.8,749.5,898.9z
		 M715.6,913.8c0.8-4.4-0.5-7.5-3.9-9.4c-2.5-1.4-5.8-2-9.9-1.8l-4.5,23.7c3.8,0,7.3-0.8,10.6-2.5
		C712.3,921.5,714.8,918.2,715.6,913.8z"/>
</g>
<g class="st3">
	<path class="st1" d="M329.8,802.7c-1.7,13.4-7.2,24.1-16.6,32.1c-9.4,8-21,12-34.8,12l-3.4,21.4l-38-0.1l4-52.4
		c1-13.6,2.1-32.4,3.6-56.4c7.4-1.5,18.2-2.2,32.2-2.2c17.1,0,30.4,3.5,39.8,10.6C327.3,775.7,331.7,787.4,329.8,802.7z
		 M299.5,814.6c0.9-7.4-2.9-11.1-11.5-11.1c-1,0-2.1,0.1-3.2,0.2l-3.6,24.8C292.3,828.1,298.4,823.5,299.5,814.6z"/>
	<path class="st1" d="M426.4,812c-2.3,16.6-8.4,30.7-18.4,42.1c-10.4,11.9-22.5,17.8-36.2,17.8c-14.1,0-24.8-6-32-18
		c-6.8-11.3-9.2-25.3-7.1-42c2.2-17.8,8.5-31.9,18.9-42.1c9.8-9.6,21.6-14.5,35.5-14.5c13.6,0,24.1,4.9,31.4,14.6
		C426.3,780.2,428.9,794.2,426.4,812z M391.3,824.4c1.7-13.1-1.7-19.7-10.5-19.7c-8.5,0-13.6,6.6-15.3,19.8
		c-0.7,5.3-0.2,10.2,1.4,14.7c1.8,5.1,4.6,7.7,8.2,7.7c3.6,0,7-2.6,10.4-7.8C388.8,834.4,390.7,829.5,391.3,824.4z"/>
	<path class="st1" d="M499.1,804.5c-3.3-0.8-5.9-1.2-7.6-1.2c-2.2,0-4.3,0.8-6.3,2.3c-2.4,1.8-3.9,4.2-4.3,7.2
		c-0.3,2.3,1,6.6,4.1,13.1c3,6.5,4.2,12.4,3.4,17.8c-1.1,7.8-5,14.2-11.6,19.2c-6.3,4.8-13.5,7.2-21.7,7.2c-7.6,0-13-0.6-16.5-1.6
		c-0.1-2.1-0.3-5.6-0.7-10.5c-0.3-2.6-0.7-6.1-1.2-10.5c4.9,1.3,8.2,1.9,10,1.9c6.9,0,10.7-2.6,11.4-7.9c0.5-3.8-0.4-7.3-2.7-10.4
		c-4-4.1-7.9-8.1-11.9-12.2c-7.7-7.9-10.8-17.4-9.3-28.3c1.6-11.5,7-20.2,16.2-26.1c8-5.2,18.2-7.7,30.4-7.7c6.9,0,14.5,1,22.8,3.1
		L499.1,804.5z"/>
	<path class="st1" d="M596.6,759.7l-9.1,44.9c-1.8-0.3-4.6-0.6-8.5-1.1c-2.4-0.1-6.4-0.3-11.9-0.4c-0.7,2.8-2.2,9.5-4.6,20.2
		c-2.1,10.3-5.2,25.4-9.4,45.2l-33.5,0c1-9.4,2.6-24.3,4.6-44.7c0.6-7.1,1.1-14,1.6-20.8l-11.1,0.4l-10.1,1.1l4.8-44.9L596.6,759.7z
		"/>
	<path class="st1" d="M674.4,759.8L663.9,805c-1.7-0.3-5.3-0.8-10.9-1.5c-3.8-0.4-8.1-0.6-12.7-0.7l-3.3,13.6
		c5.1,0.1,13.4,0,25.1-0.3c-0.8,1.7-2.2,5-4.1,9.8c-1.1,2.9-2.3,6.2-3.4,10c-1.3-0.3-4.6-0.8-9.9-1.3c-2.5-0.1-6.2-0.2-11.1-0.2
		l-3.2,15.7c3.5,0,9.9-0.3,19.3-0.9c1.8-0.1,4.8-0.7,9-1.7c-0.6,1.5-2,4.9-4.3,10.5c-1.1,2.9-2.5,6.4-4.1,10.8l-61.9-0.1l6.7-55.2
		c1.6-12.7,3.5-30.6,5.7-53.7L674.4,759.8z"/>
	<path class="st1" d="M767.4,801c-1.6,8.7-5.3,16.4-11.3,23.1c-5.3,5.8-11.3,10-18.1,12.6c1,2.1,3.5,6.6,7.6,13.3
		c2.1,3.1,5.4,7.2,9.9,12.2c-2.3,0.8-7.5,2.8-15.4,6c-5.6,2.4-10.9,4.7-15.8,7c-1-1.7-3.3-6-6.7-13c-1.5-3.6-3.6-9.6-6.3-18l-0.1,0
		l-4.9,24.6l-39-0.1c1.2-10.2,3.3-27,6.3-50.6c1.9-14,4.2-33.4,6.9-58.3c13.1-1.4,25-2.1,35.6-2.1
		C755.4,757.8,772.5,772.2,767.4,801z M733,816.3c0.8-4.5-0.5-7.7-3.9-9.7c-2.5-1.4-5.8-2-10-1.9l-4.6,24.2c3.8,0,7.4-0.9,10.8-2.6
		C729.6,824.2,732.2,820.8,733,816.3z"/>
</g>
<g class="st4">
	<path class="st1" d="M341.4,707.2c-1.7,13.7-7.3,24.7-16.8,32.9c-9.5,8.2-21.2,12.3-35.2,12.2l-3.4,21.9l-38.4,0l4.1-53.6
		c1-13.9,2.2-33.1,3.7-57.7c7.5-1.5,18.4-2.3,32.6-2.3c17.3,0,30.7,3.6,40.3,10.8C338.9,679.6,343.3,691.5,341.4,707.2z
		 M310.7,719.3c0.9-7.5-3-11.3-11.6-11.3c-1,0-2.1,0.1-3.2,0.2l-3.7,25.3C303.4,733.2,309.6,728.5,310.7,719.3z"/>
	<path class="st1" d="M439.2,716.6c-2.3,17-8.5,31.4-18.6,43.1c-10.5,12.2-22.7,18.2-36.6,18.2c-14.3,0-25.1-6.2-32.4-18.4
		c-6.9-11.6-9.3-25.9-7.1-42.9c2.3-18.3,8.7-32.7,19.2-43.1c9.9-9.9,21.9-14.8,35.9-14.8c13.8,0,24.4,5,31.7,14.9
		C439,684.1,441.7,698.4,439.2,716.6z M403.6,729.3c1.8-13.4-1.7-20.2-10.6-20.2c-8.6,0-13.8,6.8-15.5,20.3
		c-0.7,5.4-0.2,10.4,1.4,15.1c1.8,5.2,4.6,7.8,8.3,7.9c3.6,0,7.1-2.7,10.6-8C401,739.6,403,734.5,403.6,729.3z"/>
	<path class="st1" d="M512.7,709c-3.4-0.8-5.9-1.2-7.7-1.2c-2.2,0-4.3,0.8-6.4,2.3c-2.5,1.9-3.9,4.3-4.4,7.3
		c-0.3,2.3,1,6.8,4.1,13.4c3.1,6.6,4.2,12.7,3.4,18.2c-1.2,8-5.1,14.6-11.7,19.7c-6.3,4.9-13.7,7.4-22,7.4c-7.6,0-13.2-0.6-16.7-1.7
		c-0.1-2.2-0.3-5.8-0.7-10.7c-0.3-2.7-0.7-6.2-1.2-10.7c5,1.3,8.3,1.9,10.1,2c7,0,10.8-2.7,11.6-8.1c0.6-3.9-0.3-7.5-2.7-10.6
		c-4-4.1-8-8.3-12-12.5c-7.8-8.1-10.9-17.8-9.4-29c1.6-11.7,7.1-20.6,16.4-26.7c8.1-5.3,18.4-7.9,30.7-7.9c7,0,14.7,1.1,23.1,3.2
		L512.7,709z"/>
	<path class="st1" d="M611.4,663l-9.3,46c-1.8-0.3-4.7-0.7-8.6-1.1c-2.5-0.1-6.5-0.3-12.1-0.4c-0.7,2.9-2.3,9.8-4.7,20.7
		c-2.1,10.6-5.4,26-9.6,46.3l-33.9,0c1.1-9.6,2.6-24.9,4.7-45.7c0.6-7.2,1.2-14.3,1.7-21.3l-11.2,0.4l-10.2,1.1l5-46L611.4,663z"/>
	<path class="st1" d="M690.2,663.1l-10.7,46.3c-1.7-0.3-5.4-0.8-11-1.5c-3.9-0.4-8.2-0.6-12.9-0.7l-3.3,13.9
		c5.1,0.1,13.6,0,25.4-0.3c-0.8,1.8-2.2,5.1-4.1,10c-1.1,2.9-2.3,6.3-3.4,10.2c-1.3-0.3-4.6-0.8-10-1.3c-2.5-0.1-6.2-0.2-11.2-0.2
		l-3.3,16.1c3.5,0,10-0.4,19.5-0.9c1.8-0.1,4.8-0.7,9.1-1.7c-0.6,1.5-2.1,5.1-4.4,10.7c-1.1,2.9-2.5,6.6-4.2,11l-62.6-0.1l6.9-56.5
		c1.7-13,3.6-31.3,5.9-54.9L690.2,663.1z"/>
	<path class="st1" d="M784.2,705.2c-1.6,8.9-5.4,16.8-11.5,23.7c-5.3,6-11.4,10.3-18.3,12.9c1,2.2,3.5,6.7,7.7,13.6
		c2.1,3.2,5.4,7.3,10,12.5c-2.3,0.8-7.5,2.9-15.6,6.2c-5.7,2.4-11,4.8-16,7.1c-1.1-1.7-3.3-6.2-6.7-13.3c-1.5-3.6-3.6-9.8-6.3-18.4
		l-0.1,0l-5,25.1l-39.4,0c1.2-10.4,3.4-27.7,6.5-51.8c2-14.3,4.3-34.2,7.1-59.7c13.3-1.4,25.3-2.1,36-2.1
		C772.1,661,789.4,675.8,784.2,705.2z M749.3,720.9c0.8-4.6-0.5-7.9-3.9-9.9c-2.5-1.5-5.9-2.1-10.1-1.9l-4.7,24.8
		c3.9,0,7.5-0.9,10.9-2.7C745.9,729,748.5,725.5,749.3,720.9z"/>
</g>
<g class="st5">
	<path class="st1" d="M350.9,598.9c-1.8,14.1-7.5,25.3-17.1,33.8c-9.6,8.4-21.5,12.6-35.7,12.6l-3.5,22.4l-38.9,0l4.2-55
		c1-14.3,2.3-34,3.8-59.2c7.6-1.6,18.6-2.3,33-2.3c17.5,0,31.1,3.7,40.8,11.1C348.4,570.6,352.9,582.8,350.9,598.9z M319.8,611.4
		c0.9-7.7-3-11.6-11.8-11.6c-1,0-2.1,0.1-3.2,0.2l-3.8,26C312.4,625.6,318.6,620.8,319.8,611.4z"/>
	<path class="st1" d="M449.9,608.5c-2.4,17.5-8.7,32.2-18.9,44.2c-10.7,12.5-23.1,18.7-37.1,18.7c-14.5,0-25.4-6.3-32.8-18.9
		c-7-11.9-9.4-26.6-7.2-44.1c2.3-18.7,8.8-33.5,19.5-44.3c10.1-10.1,22.2-15.2,36.4-15.2c14,0,24.7,5.1,32.1,15.3
		C449.8,575.1,452.5,589.9,449.9,608.5z M413.9,621.6c1.8-13.8-1.7-20.7-10.7-20.7c-8.7,0-13.9,7-15.7,20.8
		c-0.7,5.5-0.2,10.7,1.4,15.5c1.9,5.4,4.7,8.1,8.4,8.1c3.6,0,7.2-2.7,10.7-8.2C411.2,632.1,413.2,626.9,413.9,621.6z"/>
	<path class="st1" d="M524.4,600.7c-3.4-0.8-6-1.3-7.8-1.3c-2.2,0-4.4,0.8-6.5,2.4c-2.5,1.9-4,4.4-4.4,7.5c-0.3,2.4,1,7,4.2,13.8
		c3.1,6.8,4.2,13,3.4,18.7c-1.2,8.2-5.2,14.9-11.9,20.2c-6.4,5-13.9,7.6-22.3,7.6c-7.7,0-13.4-0.6-16.9-1.7c-0.1-2.3-0.3-5.9-0.7-11
		c-0.3-2.7-0.7-6.4-1.2-11c5,1.3,8.4,2,10.2,2c7,0,11-2.8,11.7-8.3c0.6-4-0.3-7.7-2.7-10.9c-4.1-4.3-8.1-8.5-12.2-12.8
		c-7.9-8.3-11-18.3-9.5-29.8c1.6-12,7.2-21.2,16.7-27.4c8.3-5.4,18.6-8.1,31.1-8.1c7.1,0,14.9,1.1,23.4,3.2L524.4,600.7z"/>
	<path class="st1" d="M624.5,553.5l-9.4,47.2c-1.8-0.3-4.7-0.7-8.8-1.1c-2.5-0.1-6.6-0.3-12.2-0.5c-0.7,2.9-2.3,10-4.8,21.2
		c-2.2,10.8-5.5,26.7-9.8,47.5l-34.3,0c1.1-9.9,2.7-25.5,4.8-46.9c0.6-7.4,1.2-14.7,1.7-21.8l-11.4,0.4l-10.4,1.1l5.1-47.2
		L624.5,553.5z"/>
	<path class="st1" d="M704.3,553.5L693.4,601c-1.7-0.3-5.4-0.8-11.2-1.6c-3.9-0.4-8.3-0.6-13-0.7l-3.4,14.2c5.2,0.2,13.8,0,25.7-0.4
		c-0.8,1.8-2.2,5.3-4.2,10.3c-1.2,3-2.3,6.5-3.5,10.5c-1.3-0.3-4.7-0.8-10.1-1.3c-2.5-0.1-6.3-0.2-11.4-0.2l-3.4,16.5
		c3.6,0,10.2-0.4,19.8-1c1.8-0.1,4.9-0.7,9.2-1.8c-0.6,1.5-2.1,5.2-4.4,11c-1.2,3-2.6,6.8-4.3,11.3l-63.5,0l7-58
		c1.7-13.4,3.7-32.2,6.1-56.4L704.3,553.5z"/>
	<path class="st1" d="M799.5,596.7c-1.6,9.2-5.5,17.3-11.7,24.3c-5.4,6.1-11.6,10.5-18.6,13.2c1,2.2,3.6,6.9,7.7,14
		c2.1,3.2,5.5,7.5,10.1,12.8c-2.4,0.8-7.6,2.9-15.8,6.3c-5.7,2.5-11.2,4.9-16.3,7.3c-1.1-1.8-3.3-6.3-6.8-13.7
		c-1.5-3.7-3.6-10-6.3-18.9l-0.1,0l-5.1,25.8l-39.9,0c1.3-10.7,3.5-28.4,6.7-53.2c2-14.7,4.4-35.1,7.3-61.3
		c13.4-1.5,25.6-2.2,36.5-2.2C787.4,551.3,804.8,566.5,799.5,596.7z M764.2,612.8c0.8-4.7-0.5-8.1-4-10.1c-2.6-1.5-6-2.1-10.3-1.9
		l-4.8,25.5c3.9,0,7.6-0.9,11-2.7C760.7,621,763.3,617.5,764.2,612.8z"/>
</g>
<g>
	<g class="st6">
		<path class="st1" d="M393.8,331.9c-2.6,14.2-8.9,25.6-19.1,34.2c-10.2,8.6-22.4,12.9-36.6,12.9l-5.1,23.1h-39.2l8.6-56.3
			c2.1-14.4,4.9-34.2,8.3-59.2c7.6-1.5,18.5-2.3,32.7-2.3c17.2,0,30.4,3.7,39.4,11C393,303.6,396.7,315.8,393.8,331.9z M362.1,344.6
			c1.4-7.8-2.2-11.7-10.9-11.7c-1,0-2.1,0.1-3.2,0.2l-5.6,26.3C353.8,359,360.4,354.1,362.1,344.6z"/>
		<path class="st1" d="M491.7,341.6c-3.1,17.7-10,32.8-20.7,45.1c-11.3,12.9-24,19.4-38.2,19.4c-14.6,0-25.2-6.5-31.9-19.5
			c-6.3-12.2-7.8-27.2-4.6-44.9c3.4-18.9,10.7-33.6,21.8-44.4c10.5-10,22.7-15.1,36.6-15.1c13.7,0,24,5,30.9,15.1
			C492.9,308.1,494.9,322.9,491.7,341.6z M455.3,354.9c2.5-14-0.8-20.9-9.6-20.9c-8.6,0-14.2,7-16.7,21.1c-1,5.6-0.8,10.9,0.6,15.8
			c1.6,5.5,4.2,8.2,8,8.2c3.6,0,7.4-2.8,11.1-8.4C452.1,365.6,454.3,360.3,455.3,354.9z"/>
		<path class="st1" d="M565.8,333.7c-3.4-0.9-5.9-1.3-7.7-1.3c-2.2,0-4.4,0.8-6.5,2.4c-2.5,2-4.1,4.5-4.6,7.6
			c-0.4,2.4,0.8,7,3.8,13.9c2.9,6.9,3.9,13.2,2.9,19c-1.4,8.4-5.6,15.3-12.5,20.8c-6.6,5.2-14.2,7.8-22.6,7.8
			c-7.8,0-13.4-0.6-16.9-1.7c0-2.3-0.1-6.1-0.3-11.4c-0.2-2.8-0.5-6.6-0.8-11.3c5,1.4,8.4,2,10.2,2c7.1,0,11.1-2.9,12-8.5
			c0.7-4.1-0.1-7.8-2.4-11.1c-3.9-4.3-7.8-8.7-11.7-13c-7.5-8.4-10.3-18.4-8.3-30c2.1-12,7.9-21.1,17.4-27.3c8.3-5.4,18.6-8,30.8-8
			c7,0,14.6,1.1,22.9,3.2L565.8,333.7z"/>
		<path class="st1" d="M665.3,286.6l-9.5,47.1c-1.8-0.3-4.7-0.7-8.7-1.1c-2.5-0.2-6.5-0.3-12.1-0.5c-0.8,3-2.4,10.1-4.9,21.4
			c-2.3,11-5.8,27.2-10.4,48.6h-34.5c1.3-10.2,3.2-26.3,5.8-48c0.8-7.5,1.5-14.9,2.1-22l-11.3,0.5l-10.3,1.1l6.1-47.1H665.3z"/>
		<path class="st1" d="M743.5,286.6L733.3,334c-1.7-0.3-5.4-0.8-11.1-1.6c-3.9-0.4-8.2-0.7-12.9-0.8L706,346
			c5.2,0.2,13.7,0,25.5-0.4c-0.8,1.9-2.2,5.3-4.1,10.4c-1.1,3.1-2.3,6.6-3.4,10.6c-1.3-0.4-4.7-0.8-10.1-1.4
			c-2.5-0.2-6.3-0.2-11.3-0.2l-3.3,16.9c3.6,0,10.2-0.4,19.8-1c1.8-0.2,4.9-0.8,9.2-1.8c-0.6,1.6-2.1,5.3-4.4,11.3
			c-1.1,3.1-2.5,7-4.2,11.7H656l7.3-59.3c1.8-13.5,3.8-32.3,6.2-56.3H743.5z"/>
		<path class="st1" d="M838.1,329.6c-1.3,9.2-4.9,17.4-10.8,24.5c-5.2,6.2-11.2,10.7-18.1,13.4c1,2.3,3.7,7,8.1,14.3
			c2.2,3.3,5.7,7.7,10.5,13.2c-2.4,0.9-7.6,3-15.7,6.5c-5.7,2.6-11.1,5.1-16.1,7.6c-1.1-1.8-3.5-6.5-7.1-14.1
			c-1.6-3.8-3.9-10.3-6.7-19.4h-0.1l-4.6,26.5h-40.1c1.1-11,3.2-29.2,6-54.4c1.8-14.8,3.9-35.2,6.4-61.2c13.1-1.4,25-2.2,35.7-2.2
			C824.8,284.5,842.5,299.5,838.1,329.6z M803.6,345.9c0.7-4.8-0.7-8.2-4.2-10.2c-2.6-1.5-6-2.2-10.2-2l-4.2,25.7
			c3.9,0,7.6-0.9,10.9-2.8C800.4,354.2,802.9,350.6,803.6,345.9z"/>
	</g>
	<g>
		<g class="st7">
			<path class="st1" d="M417.7,157.8c-2.5,13.8-8.8,24.9-18.7,33.2c-10,8.3-22,12.5-36,12.5l-5,22.4h-38.7l8.3-54.7
				c2-14,4.7-33.2,8-57.5c7.5-1.5,18.2-2.2,32.2-2.2c17,0,30,3.5,38.9,10.6C416.8,130.3,420.5,142.1,417.7,157.8z M386.5,170.1
				c1.4-7.6-2.2-11.4-10.8-11.4c-1,0-2.1,0.1-3.2,0.2l-5.4,25.6C378.3,184.1,384.8,179.3,386.5,170.1z"/>
			<path class="st1" d="M514.2,167.2c-3,17.2-9.8,31.8-20.3,43.7c-11.1,12.5-23.7,18.8-37.6,18.8c-14.4,0-24.9-6.3-31.5-18.9
				c-6.2-11.9-7.8-26.4-4.6-43.6c3.3-18.3,10.5-32.7,21.4-43.1c10.3-9.8,22.3-14.6,36-14.6c13.5,0,23.7,4.9,30.5,14.7
				C515.3,134.7,517.3,149,514.2,167.2z M478.3,180.1c2.4-13.5-0.8-20.3-9.5-20.3c-8.5,0-14,6.8-16.4,20.5c-1,5.5-0.8,10.6,0.6,15.3
				c1.6,5.3,4.2,8,7.9,8c3.6,0,7.2-2.7,11-8.1C475.2,190.5,477.4,185.4,478.3,180.1z"/>
			<path class="st1" d="M587.2,159.5c-3.3-0.8-5.8-1.2-7.6-1.2c-2.2,0-4.3,0.8-6.4,2.3c-2.5,1.9-4,4.4-4.5,7.4
				c-0.4,2.3,0.8,6.8,3.7,13.5c2.9,6.7,3.9,12.8,2.9,18.5c-1.4,8.2-5.5,14.9-12.3,20.2c-6.5,5.1-13.9,7.6-22.3,7.6
				c-7.7,0-13.2-0.6-16.7-1.7c0-2.3-0.1-5.9-0.3-11.1c-0.2-2.7-0.5-6.4-0.8-11c4.9,1.3,8.2,2,10,2c7,0,10.9-2.8,11.8-8.3
				c0.7-4-0.1-7.6-2.4-10.8c-3.8-4.2-7.7-8.4-11.5-12.7c-7.4-8.2-10.2-17.9-8.2-29.1c2-11.7,7.7-20.5,17.1-26.5
				c8.2-5.2,18.3-7.8,30.4-7.8c6.9,0,14.4,1,22.5,3.1L587.2,159.5z"/>
			<path class="st1" d="M685.1,113.8l-9.3,45.7c-1.8-0.3-4.6-0.7-8.5-1.1c-2.4-0.1-6.4-0.3-11.9-0.4c-0.7,2.9-2.4,9.8-4.8,20.8
				c-2.2,10.7-5.6,26.4-10.2,47.2h-34c1.3-9.9,3.1-25.5,5.6-46.6c0.7-7.3,1.4-14.4,2.1-21.4l-11.1,0.4l-10.2,1.1l5.9-45.7H685.1z"/>
			<path class="st1" d="M762.2,113.8l-10,46c-1.7-0.3-5.3-0.8-10.9-1.5c-3.8-0.4-8.1-0.6-12.7-0.7l-3.2,13.9
				c5.1,0.1,13.5,0,25.1-0.4c-0.8,1.8-2.1,5.2-4,10.1c-1.1,3-2.2,6.4-3.3,10.3c-1.3-0.3-4.6-0.8-9.9-1.3c-2.5-0.1-6.2-0.2-11.2-0.1
				l-3.2,16.4c3.5,0,10-0.4,19.5-1c1.8-0.1,4.8-0.7,9-1.8c-0.6,1.5-2,5.2-4.3,11c-1.1,3-2.5,6.8-4.1,11.3h-62.8l7.1-57.5
				c1.7-13.1,3.7-31.3,6-54.7H762.2z"/>
			<path class="st1" d="M855.5,155.6c-1.3,8.9-4.8,16.9-10.6,23.8c-5.1,6.1-11.1,10.4-17.8,13c1,2.2,3.7,6.8,8,13.9
				c2.2,3.2,5.6,7.5,10.3,12.8c-2.3,0.8-7.5,2.9-15.4,6.3c-5.6,2.5-10.9,5-15.9,7.4c-1.1-1.8-3.4-6.3-7-13.7
				c-1.6-3.7-3.8-10-6.7-18.8h-0.1l-4.5,25.8h-39.5c1.1-10.7,3.1-28.3,5.9-52.8c1.8-14.4,3.8-34.2,6.2-59.4
				c12.9-1.4,24.7-2.1,35.2-2.1C842.3,111.7,859.7,126.3,855.5,155.6z M821.5,171.3c0.7-4.6-0.7-7.9-4.1-9.9
				c-2.5-1.5-5.9-2.1-10-1.9l-4.1,25c3.9,0,7.4-0.9,10.7-2.7C818.3,179.4,820.8,176,821.5,171.3z"/>
		</g>
		<g class="st8">
			<path class="st1" d="M409.6,222.6c-2.5,14-8.8,25.2-18.9,33.6c-10.1,8.4-22.1,12.7-36.2,12.7l-5.1,22.7h-38.9l8.4-55.3
				c2.1-14.2,4.8-33.6,8.1-58.1c7.6-1.5,18.3-2.3,32.3-2.3c17.1,0,30.1,3.6,39.1,10.8C408.8,194.7,412.5,206.7,409.6,222.6z
				 M378.3,235c1.4-7.7-2.2-11.5-10.9-11.5c-1,0-2.1,0.1-3.2,0.2l-5.5,25.9C370,249.1,376.5,244.3,378.3,235z"/>
			<path class="st1" d="M506.7,232.1c-3,17.4-9.8,32.2-20.5,44.2c-11.2,12.7-23.8,19-37.8,19c-14.4,0-25-6.4-31.6-19.1
				c-6.2-12-7.8-26.7-4.6-44.1c3.4-18.5,10.5-33,21.5-43.5c10.3-9.9,22.4-14.8,36.3-14.8c13.6,0,23.8,4.9,30.7,14.9
				C507.8,199.2,509.9,213.7,506.7,232.1z M470.6,245.1c2.4-13.7-0.8-20.5-9.6-20.5c-8.6,0-14.1,6.9-16.5,20.7
				c-1,5.5-0.8,10.7,0.6,15.5c1.6,5.4,4.2,8.1,7.9,8.1c3.6,0,7.3-2.7,11-8.2C467.5,255.6,469.7,250.4,470.6,245.1z"/>
			<path class="st1" d="M580.1,224.3c-3.3-0.8-5.9-1.3-7.6-1.3c-2.2,0-4.3,0.8-6.4,2.4c-2.5,1.9-4,4.4-4.6,7.5
				c-0.4,2.4,0.8,6.9,3.7,13.7c2.9,6.8,3.9,13,2.9,18.7c-1.4,8.3-5.5,15.1-12.4,20.4c-6.6,5.1-14,7.7-22.4,7.7
				c-7.7,0-13.3-0.6-16.8-1.7c0-2.3-0.1-6-0.3-11.2c-0.2-2.8-0.5-6.5-0.8-11.1c4.9,1.3,8.3,2,10.1,2c7,0,11-2.8,11.9-8.4
				c0.7-4.1-0.1-7.7-2.4-10.9c-3.9-4.2-7.7-8.5-11.6-12.8c-7.5-8.3-10.2-18.1-8.3-29.4c2-11.8,7.8-20.7,17.2-26.8
				c8.2-5.3,18.4-7.9,30.6-7.9c6.9,0,14.4,1,22.7,3.1L580.1,224.3z"/>
			<path class="st1" d="M678.6,178.1l-9.4,46.2c-1.8-0.3-4.6-0.7-8.6-1.1c-2.5-0.1-6.5-0.3-12-0.4c-0.7,2.9-2.4,9.9-4.9,21
				c-2.3,10.8-5.7,26.7-10.2,47.8h-34.1c1.3-10,3.2-25.8,5.6-47.2c0.7-7.4,1.4-14.6,2.1-21.6l-11.2,0.4l-10.2,1.1l5.9-46.2H678.6z"
				/>
			<path class="st1" d="M756.1,178.1L746,224.6c-1.7-0.3-5.3-0.8-11-1.5c-3.9-0.4-8.1-0.6-12.8-0.7l-3.2,14.1
				c5.1,0.1,13.5,0,25.3-0.4c-0.8,1.8-2.1,5.2-4,10.2c-1.1,3-2.2,6.5-3.4,10.4c-1.3-0.3-4.6-0.8-10-1.3c-2.5-0.1-6.3-0.2-11.2-0.1
				l-3.3,16.5c3.5,0,10.1-0.4,19.6-1c1.8-0.1,4.8-0.7,9.1-1.8c-0.6,1.5-2,5.2-4.3,11.1c-1.1,3-2.5,6.9-4.2,11.5h-63.1l7.2-58.2
				c1.7-13.2,3.7-31.7,6-55.3H756.1z"/>
			<path class="st1" d="M849.9,220.3c-1.3,9-4.9,17.1-10.7,24.1c-5.2,6.1-11.1,10.5-17.9,13.2c1,2.2,3.7,6.9,8,14
				c2.2,3.3,5.7,7.6,10.4,12.9c-2.3,0.8-7.5,3-15.5,6.4c-5.6,2.5-11,5-16,7.5c-1.1-1.8-3.5-6.4-7.1-13.9c-1.6-3.8-3.8-10.1-6.7-19
				h-0.1l-4.6,26H750c1.1-10.8,3.1-28.6,5.9-53.4c1.8-14.5,3.9-34.6,6.3-60.1c13-1.4,24.8-2.1,35.4-2.1
				C836.7,175.9,854.1,190.7,849.9,220.3z M815.7,236.2c0.7-4.7-0.7-8-4.1-10c-2.5-1.5-5.9-2.1-10.1-1.9l-4.2,25.3
				c3.9,0,7.5-0.9,10.8-2.7C812.5,244.4,815,240.9,815.7,236.2z"/>
		</g>
		<g class="st9">
			<path class="st1" d="M375.9,432.6c-2.6,14.5-9.1,26.1-19.3,34.8c-10.3,8.7-22.6,13.1-36.9,13.1l-5.2,23.5h-39.6l8.7-57.3
				c2.1-14.7,5-34.8,8.4-60.2c7.7-1.6,18.7-2.3,32.9-2.3c17.4,0,30.6,3.7,39.8,11.1C375.1,403.8,378.8,416.2,375.9,432.6z
				 M343.9,445.5c1.5-8-2.2-11.9-11-11.9c-1,0-2.1,0.1-3.3,0.2l-5.7,26.8C335.5,460.2,342.1,455.1,343.9,445.5z"/>
			<path class="st1" d="M474.6,442.5c-3.1,18-10.1,33.3-21,45.8c-11.4,13.1-24.3,19.7-38.5,19.7c-14.7,0-25.4-6.6-32.1-19.8
				c-6.3-12.4-7.8-27.7-4.6-45.7c3.5-19.2,10.8-34.2,22-45.1c10.6-10.2,22.9-15.3,36.9-15.3c13.8,0,24.2,5.1,31.2,15.4
				C475.9,408.4,477.9,423.4,474.6,442.5z M437.9,456c2.5-14.2-0.7-21.3-9.7-21.3c-8.7,0-14.3,7.1-16.9,21.4c-1,5.7-0.8,11.1,0.6,16
				c1.6,5.6,4.3,8.4,8,8.4c3.7,0,7.4-2.8,11.2-8.5C434.7,466.8,436.9,461.5,437.9,456z"/>
			<path class="st1" d="M549.4,434.4c-3.4-0.9-6-1.3-7.8-1.3c-2.2,0-4.4,0.8-6.5,2.4c-2.6,2-4.1,4.6-4.7,7.7
				c-0.4,2.4,0.8,7.2,3.8,14.2c2.9,7,3.9,13.5,2.9,19.4c-1.4,8.6-5.6,15.6-12.6,21.1c-6.7,5.3-14.3,8-22.8,8
				c-7.9,0-13.5-0.6-17.1-1.8c0-2.4-0.1-6.2-0.2-11.6c-0.2-2.9-0.5-6.7-0.8-11.5c5,1.4,8.4,2.1,10.3,2.1c7.1,0,11.2-2.9,12.2-8.7
				c0.7-4.2-0.1-8-2.4-11.3c-3.9-4.4-7.8-8.8-11.8-13.3c-7.6-8.6-10.4-18.7-8.3-30.5c2.1-12.2,8-21.5,17.6-27.7
				c8.4-5.5,18.7-8.2,31.1-8.2c7,0,14.7,1.1,23.1,3.3L549.4,434.4z"/>
			<path class="st1" d="M649.7,386.5l-9.7,47.8c-1.8-0.3-4.7-0.7-8.7-1.1c-2.5-0.2-6.6-0.3-12.2-0.5c-0.8,3-2.4,10.3-5,21.8
				c-2.3,11.2-5.8,27.7-10.5,49.5h-34.8c1.3-10.4,3.3-26.7,5.9-48.9c0.8-7.7,1.5-15.1,2.2-22.4l-11.4,0.5l-10.4,1.1l6.2-47.8H649.7z
				"/>
			<path class="st1" d="M728.6,386.5l-10.4,48.2c-1.7-0.3-5.4-0.8-11.2-1.6c-3.9-0.4-8.3-0.7-13-0.8l-3.3,14.6
				c5.2,0.2,13.8,0,25.7-0.4c-0.8,1.9-2.2,5.4-4.1,10.6c-1.1,3.1-2.3,6.7-3.4,10.8c-1.3-0.4-4.7-0.8-10.2-1.4
				c-2.6-0.2-6.4-0.2-11.4-0.2l-3.4,17.1c3.6-0.1,10.2-0.4,19.9-1c1.8-0.2,4.9-0.8,9.2-1.8c-0.6,1.6-2.1,5.4-4.4,11.5
				c-1.1,3.1-2.6,7.1-4.3,11.9h-64.3l7.5-60.3c1.8-13.7,3.9-32.8,6.3-57.3H728.6z"/>
			<path class="st1" d="M824,430.3c-1.3,9.4-5,17.7-11,24.9c-5.3,6.3-11.4,10.9-18.3,13.7c1,2.3,3.8,7.1,8.1,14.5
				c2.2,3.4,5.7,7.9,10.5,13.4c-2.4,0.9-7.6,3.1-15.8,6.6c-5.7,2.6-11.2,5.2-16.3,7.7c-1.1-1.9-3.5-6.6-7.2-14.4
				c-1.6-3.9-3.9-10.5-6.8-19.7h-0.1l-4.7,27h-40.4c1.2-11.2,3.2-29.7,6.2-55.3c1.9-15,4-35.8,6.5-62.2c13.3-1.5,25.3-2.2,36-2.2
				C810.6,384.4,828.4,399.6,824,430.3z M789.1,446.8c0.7-4.8-0.7-8.3-4.2-10.4c-2.6-1.5-6-2.2-10.3-2l-4.3,26.2c4,0,7.6-0.9,11-2.8
				C785.9,455.3,788.4,451.6,789.1,446.8z"/>
		</g>
	</g>
</g>
<g>
	<path class="st10" d="M361.2,537.8c0,13.6-4.3,24.5-13,32.7c-8.7,8.2-20.2,12.2-34.6,12.2l-0.9,21.9h-39.6l-2.1-53.5
		c-0.6-13.8-1.6-32.7-2.9-56.8c7.5-1.5,18.4-2.2,32.8-2.2c17.6,0,31.7,3.5,42.2,10.6C355.2,510.6,361.2,522.3,361.2,537.8z
		 M331.4,549.8c0-7.5-4.4-11.2-13.3-11.2c-1.1,0-2.1,0.1-3.2,0.2l-0.7,25.1C325.6,563.6,331.4,558.9,331.4,549.8z"/>
	<path class="st10" d="M462.3,547c0,16.9-4.4,31.2-13.1,42.9c-9.1,12.2-20.9,18.3-35.1,18.3c-14.7,0-26.6-6.2-35.7-18.5
		c-8.6-11.6-12.9-25.8-12.9-42.7c0-18.1,4.7-32.2,14-42.5c8.8-9.7,20.3-14.5,34.6-14.5c14,0,25.4,4.9,34.2,14.6
		C457.6,514.9,462.3,529.1,462.3,547z M427.7,559.7c0-13.3-4.5-20-13.5-20c-8.8,0-13.1,6.7-13.1,20.1c0,5.4,1.1,10.4,3.4,15
		c2.6,5.2,5.8,7.8,9.6,7.8c3.7,0,6.9-2.7,9.8-8C426.4,569.9,427.7,564.9,427.7,559.7z"/>
	<path class="st10" d="M536.2,539.4c-3.5-0.8-6.2-1.2-8-1.2c-2.3,0-4.3,0.8-6.2,2.3c-2.3,1.9-3.4,4.3-3.4,7.3
		c0,2.3,2.1,6.7,6.2,13.3c4.1,6.6,6.2,12.6,6.2,18.1c0,8-3,14.6-9.1,19.7c-5.8,4.9-13,7.4-21.5,7.4c-7.9,0-13.7-0.6-17.4-1.7
		c-0.4-2.2-1.2-5.8-2.2-10.8c-0.7-2.7-1.6-6.3-2.8-10.7c5.3,1.3,8.8,1.9,10.6,1.9c7.1,0,10.7-2.7,10.7-8.1c0-3.9-1.4-7.4-4.3-10.6
		c-4.7-4.1-9.4-8.3-14.1-12.4c-9.1-8-13.7-17.6-13.7-28.7c0-11.5,4.3-20.3,12.9-26.2c7.5-5.2,17.5-7.8,30-7.8c7.1,0,15,1,23.9,3.1
		L536.2,539.4z"/>
	<path class="st10" d="M629.5,494.2l-2.1,45.2c-1.9-0.3-4.9-0.6-9-1.1c-2.5-0.1-6.7-0.3-12.4-0.4c-0.3,2.8-0.8,9.7-1.5,20.5
		c-0.5,10.5-1.4,25.9-2.6,46.2h-34.8c-0.4-9.7-1.1-24.9-2.2-45.6c-0.5-7.2-1-14.2-1.5-21.1l-11.4,0.4l-10.3,1.1l-1.8-45.2H629.5z"/>
	<path class="st10" d="M709.2,494.2l-3.1,45.5c-1.8-0.3-5.6-0.8-11.5-1.5c-4-0.4-8.4-0.6-13.2-0.7l-1.1,13.7
		c5.3,0.1,13.9,0,25.8-0.4c-0.5,1.8-1.4,5.1-2.5,9.9c-0.7,2.9-1.3,6.3-1.8,10.1c-1.4-0.3-4.9-0.8-10.4-1.3
		c-2.6-0.1-6.4-0.2-11.5-0.1l-0.7,16c3.6,0,10.2-0.4,19.8-0.9c1.8-0.1,4.8-0.7,9-1.7c-0.4,1.5-1.3,5.1-2.7,10.7
		c-0.7,2.9-1.5,6.6-2.4,11.1h-64.3l-2.1-56.3c-0.4-12.9-1.3-30.9-2.8-54H709.2z"/>
	<path class="st10" d="M811.9,535.5c0,8.8-2.5,16.6-7.4,23.4c-4.4,5.9-9.8,10.2-16.4,12.8c1.4,2.2,4.8,6.7,10.3,13.6
		c2.7,3.2,6.9,7.3,12.5,12.5c-2.3,0.8-7.2,2.9-14.9,6.2c-5.4,2.4-10.4,4.8-15.2,7.2c-1.4-1.7-4.5-6.2-9.3-13.4
		c-2.2-3.6-5.4-9.8-9.7-18.4h-0.1l-0.7,25.1h-40.4c-0.5-10.4-1.3-27.7-2.2-51.7c-0.4-14.1-1.4-33.7-2.9-58.7
		c13.2-1.4,25.2-2.1,36.1-2.1C791.8,492.2,811.9,506.6,811.9,535.5z M779.3,551.1c0-4.6-1.9-7.8-5.7-9.8c-2.8-1.4-6.4-2.1-10.6-1.9
		l-0.4,24.6c4,0,7.5-0.9,10.6-2.7C777.2,559,779.3,555.6,779.3,551.1z"/>
</g>
</svg>
