<?xml version="1.0" encoding="utf-8"?>
<!-- Generator: Adobe Illustrator 25.1.0, SVG Export Plug-In . SVG Version: 6.00 Build 0)  -->
<svg version="1.1" id="Layer_1" xmlns="http://www.w3.org/2000/svg" xmlns:xlink="http://www.w3.org/1999/xlink" x="0px" y="0px"
	 viewBox="0 0 612 792" style="enable-background:new 0 0 612 792;" xml:space="preserve">
<style type="text/css">
	.st0{fill:#234190;}
	.st1{opacity:0.89;fill:#234190;}
	.st2{font-family:'Avenir-BlackOblique';}
	.st3{font-size:15px;}
	.st4{font-family:'MinionPro-Regular';}
	.st5{font-size:14px;}
	.st6{font-family:'MyriadPro-Bold';}
	.st7{font-size:40px;}
	.st8{fill:#FFFFFF;}
	.st9{font-family:'Avenir-Black';}
	.st10{font-size:12px;}
	.st11{font-family:'Avenir-Light';}
	.st12{font-size:9px;}
	.st13{font-size:8px;}
	.st14{opacity:0.5;}
	.st15{fill:none;stroke:#234190;stroke-width:3.934;stroke-miterlimit:10;}
</style>
<rect x="0.25" y="41.82" class="st0" width="37.88" height="114.2"/>
<rect x="299.75" y="41.32" class="st0" width="311.5" height="114.7"/>
<text transform="matrix(1 0 0 1 65.6743 229.5977)" class="st1 st2 st3">PROFILE</text>
<text transform="matrix(1 0 0 1 124.1645 199.5975)" class="st4 st3"> </text>
<text transform="matrix(1 0 0 1 66.6743 401.3176)" class="st1 st2 st5">EDUCATION</text>
<text transform="matrix(1 0 0 1 65.92 600.4404)" class="st1 st2 st5">EDUCATION</text>
<text transform="matrix(1 0 0 1 349.6743 228.3473)" class="st1 st2 st5">EXPRIENCE </text>
<text transform="matrix(1 0 0 1 349.6743 401.4768)" class="st1 st2 st5">EXPRIENCE </text>
<text transform="matrix(1 0 0 1 347.0427 600.4417)" class="st1 st2 st5">EXPRIENCE </text>
<text transform="matrix(1 0 0 1 61.6743 72.3978)" class="st0 st6 st7">DANIEL</text>
<text transform="matrix(1 0 0 1 61.6743 113.3177)" class="st0 st6 st7">KESETE</text>
<path d="M70.1,149.63h-0.76c-0.03-0.25-0.06-0.51-0.06-0.95c-0.29,0.61-0.73,1.08-1.77,1.08c-1.91,0-2.41-1.97-2.41-4.54
	c0-3.04,0.93-4.55,2.73-4.55c2.12,0,2.26,1.88,2.28,2.41h-0.97c-0.03-0.31-0.1-1.56-1.34-1.56c-1.25,0-1.69,1.47-1.69,3.69
	c0,2.21,0.33,3.71,1.57,3.71c1.19,0,1.46-1,1.46-2.85v-0.43h-1.53v-0.85h2.49V149.63z M73.49,145.57v4.07h-0.96v-8.83h2.3
	c1.48,0,2.26,0.84,2.26,2.28c0,1.32-0.65,1.88-1.18,2.06c0.82,0.29,1.07,1.01,1.07,2.25v0.35c0,0.82,0.03,1.41,0.13,1.88h-0.96
	c-0.12-0.4-0.13-1.19-0.13-1.9v-0.3c0-1.26-0.26-1.86-1.45-1.86H73.49z M73.49,144.74h1.13c1.07,0,1.48-0.61,1.48-1.63
	c0-0.89-0.41-1.48-1.39-1.48h-1.22V144.74z M79.77,149.63H78.8c0,0,2.13-8.83,2.13-8.83h1.26l2.2,8.83h-1.03l-0.65-2.8h-2.3
	L79.77,149.63z M82.51,145.97c-0.51-2.17-0.84-3.55-0.96-4.25h-0.03c-0.12,0.77-0.48,2.36-0.91,4.25H82.51z M86.21,140.8h2.28
	c1.39,0,2.34,0.87,2.34,2.46c0,1.57-0.86,2.55-2.49,2.55h-1.17v3.82h-0.97V140.8z M87.18,145h1.06c1.06,0,1.6-0.56,1.6-1.74
	c0-0.98-0.51-1.63-1.49-1.63h-1.17V145z M92.86,140.8h0.97v3.73h2.87v-3.73h0.97v8.83H96.7v-4.24h-2.87v4.24h-0.97V140.8z
	 M101.24,140.8v8.83h-0.97v-8.83H101.24z M108.45,147.19c-0.04,0.51-0.26,2.58-2.4,2.58c-2.35,0-2.53-2.48-2.53-4.61
	c0-2.57,0.68-4.48,2.64-4.48c2.13,0,2.25,1.99,2.27,2.53h-0.98c-0.02-0.3-0.07-1.67-1.31-1.67c-1.39,0-1.61,1.9-1.61,3.62
	c0,1.86,0.21,3.75,1.54,3.75c1.18,0,1.36-1.27,1.39-1.72H108.45z M113.88,140.8h1.96c2.04,0,2.95,1.42,2.95,4.18
	c0,3-0.83,4.65-3.09,4.65h-1.82V140.8z M114.86,148.8h0.81c1.61,0,2.13-1.28,2.13-3.79c0-2.34-0.6-3.38-2.11-3.38h-0.82V148.8z
	 M122.01,145.39v3.38h3.27l-0.13,0.86h-4.1v-8.83h4.05v0.87h-3.09v2.87h2.95v0.86H122.01z M127.83,147.31
	c0.07,0.91,0.51,1.63,1.47,1.63c0.93,0,1.39-0.51,1.39-1.52c0-0.93-0.38-1.42-1.58-2c-1.38-0.66-1.99-1.27-1.99-2.55
	c0-1.21,0.78-2.18,2.22-2.18c1.71,0,2.17,1.22,2.19,2.26h-0.95c-0.04-0.43-0.17-1.45-1.27-1.45c-0.85,0-1.21,0.58-1.21,1.29
	c0,0.85,0.38,1.24,1.48,1.77c1.54,0.74,2.11,1.47,2.11,2.79c0,1.39-0.79,2.41-2.41,2.41c-1.77,0-2.35-1.16-2.42-2.44H127.83z
	 M134.78,140.8v8.83h-0.97v-8.83H134.78z M142.06,149.63h-0.76c-0.03-0.25-0.06-0.51-0.06-0.95c-0.29,0.61-0.73,1.08-1.77,1.08
	c-1.91,0-2.41-1.97-2.41-4.54c0-3.04,0.93-4.55,2.73-4.55c2.12,0,2.26,1.88,2.28,2.41h-0.97c-0.03-0.31-0.1-1.56-1.34-1.56
	c-1.25,0-1.69,1.47-1.69,3.69c0,2.21,0.33,3.71,1.57,3.71c1.19,0,1.46-1,1.46-2.85v-0.43h-1.53v-0.85h2.49V149.63z M144.49,140.8
	h1.19c2.44,6.11,2.78,6.94,2.9,7.33h0.01c-0.06-1.19-0.08-2.52-0.08-3.95v-3.38h0.91v8.83h-1.14c-2.54-6.42-2.85-7.23-2.95-7.58
	h-0.01c0.07,1.1,0.07,2.55,0.07,4.14v3.44h-0.9V140.8z M152.99,145.39v3.38h3.27l-0.13,0.86h-4.1v-8.83h4.05v0.87h-3.09v2.87h2.95
	v0.86H152.99z M159.15,145.57v4.07h-0.96v-8.83h2.3c1.48,0,2.26,0.84,2.26,2.28c0,1.32-0.65,1.88-1.18,2.06
	c0.82,0.29,1.07,1.01,1.07,2.25v0.35c0,0.82,0.03,1.41,0.13,1.88h-0.96c-0.12-0.4-0.13-1.19-0.13-1.9v-0.3
	c0-1.26-0.26-1.86-1.45-1.86H159.15z M159.15,144.74h1.13c1.07,0,1.48-0.61,1.48-1.63c0-0.89-0.41-1.48-1.39-1.48h-1.22V144.74z"/>
<text transform="matrix(1 0 0 1 326.6741 72.3978)" class="st8 st9 st10">236 833 7291</text>
<text transform="matrix(1 0 0 1 325.2347 102.3978)" class="st8 st9 st10">KESETEDANIELKIBROM@GMAIL.COM</text>
<text transform="matrix(1 0 0 1 325.2347 136.4734)" class="st8 st9 st10">5388 201A  ST LANGLEY </text>
<text transform="matrix(1 0 0 1 40.3664 264.2818)" class="st4 st10">I believe i’m a strong candidate  i have  ex</text>
<text transform="matrix(1 0 0 1 215.8237 264.2818)" class="st4 st10">-</text>
<text transform="matrix(1 0 0 1 40.3664 278.6817)" class="st4 st10">perience in Graphic Design and Alumuinim </text>
<text transform="matrix(1 0 0 1 40.3664 293.0816)" class="st4 st10">fabricaction .Although i’m certifed for OFA </text>
<text transform="matrix(1 0 0 1 40.3664 307.482)" class="st4 st10">level 1and WHMIS.</text>
<text transform="matrix(1 0 0 1 40.1945 439.8976)" class="st6 st10">Graphic Design </text>
<text transform="matrix(1 0 0 1 40.1945 454.297)" class="st11 st10">vancouver career colllage </text>
<text transform="matrix(1 0 0 1 40.1945 468.6974)" class="st11 st10">Canada , bc </text>
<text transform="matrix(1 0 0 1 40.1945 483.0978)" class="st6 st10">Performing Aluminum work</text>
<path d="M41.07,487.53h3.9v0.54h-3.3v2.27h3.1v0.54h-3.1v2.48h3.45v0.54h-4.04V487.53z M46.34,487.53h0.89l2.32,5.35l2.32-5.35h0.85
	v6.37h-0.59v-5.62h-0.02l-2.43,5.62h-0.26l-2.47-5.62h-0.02v5.62h-0.59V487.53z M54.32,487.53h1.97c0.55,0,1.02,0.07,1.4,0.2
	c0.38,0.14,0.7,0.31,0.96,0.52c0.25,0.21,0.46,0.44,0.6,0.7c0.15,0.26,0.25,0.5,0.32,0.73c0.07,0.23,0.11,0.45,0.13,0.63
	c0.02,0.19,0.03,0.32,0.03,0.4c0,0.08-0.01,0.21-0.03,0.4c-0.02,0.19-0.06,0.4-0.13,0.63c-0.07,0.23-0.18,0.48-0.32,0.73
	c-0.15,0.26-0.35,0.49-0.6,0.7c-0.26,0.21-0.57,0.38-0.96,0.52c-0.38,0.13-0.85,0.2-1.4,0.2h-1.97V487.53z M54.92,493.36h1.22
	c0.42,0,0.81-0.05,1.18-0.16c0.37-0.1,0.68-0.27,0.95-0.48s0.48-0.49,0.64-0.82c0.16-0.33,0.23-0.73,0.23-1.18
	c0-0.46-0.08-0.85-0.23-1.18c-0.16-0.33-0.37-0.61-0.64-0.82s-0.59-0.38-0.95-0.48c-0.37-0.1-0.76-0.16-1.18-0.16h-1.22V493.36z
	 M63.14,487.1h0.54v3.38h0.02c0.08-0.14,0.19-0.27,0.31-0.37c0.13-0.1,0.26-0.19,0.41-0.26c0.15-0.07,0.3-0.12,0.46-0.15
	c0.16-0.03,0.32-0.05,0.48-0.05c0.32,0,0.61,0.05,0.88,0.16c0.27,0.11,0.5,0.26,0.69,0.45c0.19,0.2,0.35,0.43,0.45,0.69
	c0.11,0.27,0.16,0.56,0.16,0.88c0,0.32-0.05,0.61-0.16,0.88c-0.11,0.27-0.26,0.5-0.45,0.69c-0.2,0.2-0.43,0.35-0.69,0.45
	c-0.27,0.11-0.56,0.16-0.88,0.16c-0.16,0-0.31-0.02-0.48-0.05c-0.16-0.03-0.32-0.08-0.46-0.15c-0.15-0.07-0.28-0.16-0.41-0.26
	c-0.13-0.1-0.23-0.23-0.31-0.37h-0.02v0.73h-0.54V487.1z M63.63,491.82c0,0.23,0.04,0.45,0.13,0.66s0.21,0.39,0.37,0.54
	c0.16,0.15,0.34,0.27,0.55,0.36c0.21,0.09,0.44,0.14,0.68,0.14c0.25,0,0.48-0.05,0.68-0.14c0.2-0.09,0.38-0.21,0.52-0.36
	c0.14-0.15,0.25-0.33,0.33-0.54c0.07-0.21,0.11-0.43,0.11-0.66c0-0.23-0.04-0.45-0.11-0.66c-0.08-0.21-0.18-0.39-0.33-0.54
	c-0.14-0.15-0.32-0.27-0.52-0.36c-0.2-0.09-0.43-0.14-0.68-0.14c-0.25,0-0.47,0.05-0.68,0.14c-0.21,0.09-0.39,0.21-0.55,0.36
	c-0.16,0.15-0.28,0.33-0.37,0.54S63.63,491.59,63.63,491.82z M72.28,492.73c0,0.08,0,0.17,0.01,0.28c0.01,0.11,0.01,0.22,0.01,0.34
	c0,0.11,0.01,0.22,0.01,0.32c0.01,0.1,0.01,0.18,0.01,0.23h-0.54c-0.01-0.16-0.01-0.31-0.01-0.45c0-0.14-0.01-0.24-0.02-0.28h-0.03
	c-0.11,0.23-0.29,0.42-0.54,0.59s-0.55,0.25-0.88,0.25c-0.32,0-0.59-0.05-0.8-0.15c-0.21-0.1-0.37-0.24-0.49-0.4
	c-0.12-0.16-0.2-0.36-0.24-0.57c-0.04-0.22-0.06-0.44-0.06-0.67v-2.48h0.54v2.45c0,0.17,0.01,0.33,0.04,0.49
	c0.03,0.16,0.08,0.3,0.16,0.43c0.07,0.13,0.18,0.23,0.32,0.3c0.14,0.08,0.31,0.11,0.53,0.11c0.2,0,0.39-0.03,0.56-0.1
	c0.18-0.07,0.33-0.17,0.46-0.31c0.13-0.14,0.23-0.32,0.31-0.53c0.07-0.21,0.11-0.46,0.11-0.75v-2.08h0.54V492.73z M73.85,487.1h0.54
	v6.8h-0.54V487.1z M79.56,493.17h-0.02c-0.08,0.14-0.19,0.27-0.32,0.37c-0.13,0.11-0.26,0.19-0.41,0.26
	c-0.15,0.07-0.3,0.12-0.46,0.15c-0.16,0.03-0.32,0.05-0.48,0.05c-0.32,0-0.61-0.05-0.88-0.16c-0.27-0.11-0.5-0.26-0.69-0.45
	c-0.19-0.19-0.34-0.43-0.45-0.69c-0.11-0.27-0.16-0.56-0.16-0.88c0-0.32,0.05-0.61,0.16-0.88c0.11-0.27,0.26-0.5,0.45-0.69
	c0.19-0.19,0.42-0.35,0.69-0.45c0.27-0.11,0.56-0.16,0.88-0.16c0.16,0,0.32,0.02,0.48,0.05c0.16,0.03,0.32,0.08,0.46,0.15
	c0.15,0.07,0.28,0.16,0.41,0.26c0.13,0.11,0.23,0.23,0.32,0.37h0.02v-3.38h0.54v6.8h-0.54V493.17z M79.61,491.82
	c0-0.23-0.04-0.45-0.13-0.66c-0.09-0.21-0.21-0.39-0.37-0.54c-0.16-0.15-0.34-0.27-0.55-0.36c-0.21-0.09-0.44-0.14-0.68-0.14
	c-0.25,0-0.48,0.05-0.68,0.14c-0.2,0.09-0.38,0.21-0.52,0.36c-0.14,0.15-0.25,0.33-0.33,0.54c-0.08,0.21-0.11,0.43-0.11,0.66
	c0,0.23,0.04,0.45,0.11,0.66c0.07,0.21,0.18,0.39,0.33,0.54c0.14,0.15,0.32,0.27,0.52,0.36c0.2,0.09,0.43,0.14,0.68,0.14
	c0.25,0,0.47-0.05,0.68-0.14c0.21-0.09,0.39-0.21,0.55-0.36c0.16-0.15,0.28-0.33,0.37-0.54C79.57,492.28,79.61,492.06,79.61,491.82z
	 M81.39,488.1c0-0.11,0.04-0.21,0.12-0.29c0.08-0.08,0.17-0.12,0.29-0.12c0.11,0,0.21,0.04,0.29,0.12c0.08,0.08,0.12,0.17,0.12,0.29
	c0,0.11-0.04,0.21-0.12,0.29c-0.08,0.08-0.17,0.12-0.29,0.12c-0.11,0-0.21-0.04-0.29-0.12C81.43,488.31,81.39,488.21,81.39,488.1z
	 M81.52,489.74h0.54v4.16h-0.54V489.74z M83.59,490.91c0-0.08,0-0.17-0.01-0.28c-0.01-0.11-0.01-0.22-0.01-0.34
	c0-0.11-0.01-0.22-0.01-0.32c-0.01-0.1-0.01-0.18-0.01-0.23h0.54c0.01,0.16,0.01,0.31,0.01,0.45c0,0.14,0.01,0.24,0.02,0.28h0.03
	c0.11-0.23,0.29-0.42,0.54-0.59c0.25-0.16,0.55-0.25,0.88-0.25c0.32,0,0.59,0.05,0.79,0.15c0.2,0.1,0.36,0.24,0.48,0.4
	c0.12,0.17,0.2,0.36,0.24,0.57s0.07,0.44,0.07,0.67v2.48h-0.54v-2.45c0-0.17-0.02-0.33-0.05-0.49c-0.03-0.16-0.08-0.3-0.16-0.43
	c-0.08-0.13-0.18-0.23-0.31-0.3c-0.14-0.07-0.31-0.11-0.53-0.11c-0.2,0-0.39,0.03-0.56,0.1c-0.18,0.07-0.33,0.17-0.46,0.32
	c-0.13,0.14-0.23,0.32-0.31,0.53c-0.08,0.21-0.11,0.46-0.11,0.75v2.08h-0.54V490.91z M92.77,493.63c0,0.52-0.08,0.93-0.22,1.25
	c-0.15,0.32-0.34,0.56-0.56,0.74c-0.22,0.17-0.47,0.29-0.72,0.35c-0.26,0.06-0.49,0.09-0.7,0.09c-0.21,0-0.42-0.02-0.62-0.06
	c-0.2-0.04-0.39-0.1-0.57-0.17c-0.18-0.08-0.34-0.17-0.49-0.27c-0.15-0.11-0.27-0.23-0.38-0.37l0.42-0.4
	c0.19,0.27,0.43,0.47,0.72,0.59c0.29,0.13,0.59,0.19,0.92,0.19c0.28,0,0.51-0.04,0.7-0.11c0.19-0.07,0.34-0.17,0.47-0.28
	c0.12-0.12,0.22-0.25,0.29-0.39c0.07-0.14,0.12-0.28,0.15-0.42c0.03-0.14,0.05-0.27,0.06-0.4c0.01-0.13,0.01-0.23,0.01-0.31v-0.58
	h-0.02c-0.16,0.25-0.37,0.45-0.63,0.59c-0.27,0.14-0.58,0.22-0.94,0.22c-0.31,0-0.59-0.06-0.86-0.17c-0.27-0.11-0.51-0.26-0.71-0.46
	c-0.2-0.19-0.36-0.42-0.48-0.68c-0.12-0.26-0.18-0.53-0.18-0.83c0-0.29,0.06-0.57,0.18-0.83c0.12-0.26,0.28-0.48,0.48-0.67
	c0.2-0.19,0.44-0.34,0.71-0.46c0.27-0.11,0.56-0.17,0.86-0.17c0.36,0,0.67,0.07,0.94,0.22c0.27,0.14,0.48,0.34,0.63,0.59h0.02v-0.7
	h0.54V493.63z M92.25,491.77c0-0.23-0.04-0.44-0.13-0.64c-0.09-0.2-0.2-0.37-0.35-0.52c-0.15-0.15-0.32-0.26-0.52-0.35
	c-0.2-0.09-0.42-0.13-0.64-0.13c-0.23,0-0.44,0.04-0.64,0.13c-0.2,0.09-0.38,0.2-0.52,0.35c-0.15,0.15-0.26,0.32-0.35,0.52
	c-0.09,0.2-0.13,0.42-0.13,0.64c0,0.23,0.04,0.44,0.13,0.64c0.09,0.2,0.2,0.38,0.35,0.52c0.15,0.15,0.32,0.26,0.52,0.35
	c0.2,0.09,0.42,0.13,0.64,0.13c0.23,0,0.44-0.04,0.64-0.13c0.2-0.09,0.37-0.2,0.52-0.35c0.15-0.15,0.26-0.32,0.35-0.52
	C92.21,492.21,92.25,492,92.25,491.77z M99.92,493.29c-0.2,0.25-0.44,0.43-0.69,0.54c-0.26,0.12-0.54,0.18-0.84,0.18
	c-0.32,0-0.61-0.05-0.88-0.16c-0.27-0.11-0.5-0.26-0.69-0.45c-0.19-0.19-0.34-0.43-0.45-0.69c-0.11-0.27-0.16-0.56-0.16-0.88
	c0-0.32,0.05-0.61,0.16-0.88c0.11-0.27,0.26-0.5,0.45-0.69c0.19-0.19,0.42-0.35,0.69-0.45c0.27-0.11,0.56-0.16,0.88-0.16
	c0.31,0,0.59,0.06,0.85,0.19s0.49,0.3,0.7,0.53l-0.43,0.32c-0.16-0.17-0.33-0.31-0.51-0.41c-0.19-0.1-0.39-0.15-0.6-0.15
	c-0.25,0-0.48,0.05-0.68,0.14c-0.2,0.09-0.38,0.21-0.52,0.36c-0.14,0.15-0.25,0.33-0.33,0.54c-0.08,0.21-0.11,0.43-0.11,0.66
	c0,0.23,0.04,0.45,0.11,0.66c0.07,0.21,0.18,0.39,0.33,0.54c0.14,0.15,0.32,0.27,0.52,0.36c0.2,0.09,0.43,0.14,0.68,0.14
	c0.23,0,0.44-0.05,0.63-0.16c0.19-0.1,0.35-0.24,0.49-0.42L99.92,493.29z M100.53,491.82c0-0.32,0.05-0.61,0.16-0.88
	c0.11-0.27,0.26-0.5,0.45-0.69c0.19-0.19,0.42-0.35,0.69-0.45c0.27-0.11,0.56-0.16,0.88-0.16c0.32,0,0.61,0.05,0.88,0.16
	c0.27,0.11,0.5,0.26,0.69,0.45c0.19,0.2,0.35,0.43,0.45,0.69c0.11,0.27,0.16,0.56,0.16,0.88c0,0.32-0.05,0.61-0.16,0.88
	c-0.11,0.27-0.26,0.5-0.45,0.69c-0.2,0.2-0.43,0.35-0.69,0.45c-0.27,0.11-0.56,0.16-0.88,0.16c-0.32,0-0.61-0.05-0.88-0.16
	c-0.27-0.11-0.5-0.26-0.69-0.45c-0.19-0.19-0.34-0.43-0.45-0.69C100.58,492.43,100.53,492.14,100.53,491.82z M101.07,491.82
	c0,0.23,0.04,0.45,0.11,0.66c0.07,0.21,0.18,0.39,0.33,0.54c0.14,0.15,0.32,0.27,0.52,0.36c0.2,0.09,0.43,0.14,0.68,0.14
	c0.25,0,0.48-0.05,0.68-0.14c0.2-0.09,0.38-0.21,0.52-0.36c0.14-0.15,0.25-0.33,0.33-0.54c0.07-0.21,0.11-0.43,0.11-0.66
	c0-0.23-0.04-0.45-0.11-0.66c-0.08-0.21-0.18-0.39-0.33-0.54c-0.14-0.15-0.32-0.27-0.52-0.36c-0.2-0.09-0.43-0.14-0.68-0.14
	c-0.25,0-0.48,0.05-0.68,0.14c-0.2,0.09-0.38,0.21-0.52,0.36c-0.14,0.15-0.25,0.33-0.33,0.54
	C101.11,491.37,101.07,491.59,101.07,491.82z M106.11,490.91c0-0.08,0-0.17-0.01-0.28c-0.01-0.11-0.01-0.22-0.01-0.34
	c0-0.11-0.01-0.22-0.01-0.32c-0.01-0.1-0.01-0.18-0.01-0.23h0.54c0.01,0.16,0.01,0.31,0.01,0.45c0,0.14,0.01,0.24,0.02,0.28h0.03
	c0.11-0.23,0.29-0.42,0.54-0.59c0.25-0.16,0.55-0.25,0.88-0.25c0.32,0,0.59,0.05,0.79,0.15c0.2,0.1,0.36,0.24,0.48,0.4
	c0.12,0.17,0.2,0.36,0.24,0.57s0.07,0.44,0.07,0.67v2.48h-0.54v-2.45c0-0.17-0.02-0.33-0.05-0.49c-0.03-0.16-0.08-0.3-0.16-0.43
	c-0.08-0.13-0.18-0.23-0.31-0.3c-0.14-0.07-0.31-0.11-0.53-0.11c-0.2,0-0.39,0.03-0.56,0.1c-0.18,0.07-0.33,0.17-0.46,0.32
	c-0.13,0.14-0.23,0.32-0.31,0.53c-0.08,0.21-0.11,0.46-0.11,0.75v2.08h-0.54V490.91z M111.12,492.84c0.11,0.22,0.28,0.39,0.5,0.51
	c0.22,0.12,0.46,0.18,0.7,0.18c0.11,0,0.23-0.02,0.34-0.05c0.11-0.04,0.22-0.09,0.31-0.15c0.09-0.07,0.16-0.15,0.22-0.24
	c0.06-0.09,0.09-0.2,0.09-0.32c0-0.19-0.06-0.34-0.18-0.43c-0.12-0.1-0.27-0.17-0.45-0.23c-0.18-0.05-0.38-0.1-0.59-0.14
	c-0.22-0.04-0.41-0.1-0.59-0.18c-0.18-0.08-0.33-0.19-0.45-0.34c-0.12-0.14-0.18-0.35-0.18-0.61c0-0.2,0.04-0.38,0.13-0.53
	c0.08-0.15,0.19-0.27,0.33-0.37c0.13-0.1,0.29-0.17,0.45-0.22c0.17-0.05,0.34-0.07,0.51-0.07c0.34,0,0.64,0.06,0.89,0.19
	c0.25,0.13,0.44,0.32,0.58,0.59l-0.49,0.29c-0.1-0.19-0.23-0.34-0.38-0.44s-0.35-0.15-0.6-0.15c-0.1,0-0.2,0.02-0.3,0.05
	c-0.11,0.03-0.2,0.07-0.28,0.13c-0.08,0.05-0.15,0.12-0.21,0.21c-0.06,0.08-0.09,0.18-0.09,0.29c0,0.19,0.06,0.32,0.18,0.41
	c0.12,0.09,0.27,0.16,0.45,0.21c0.18,0.05,0.38,0.09,0.59,0.13c0.22,0.04,0.41,0.09,0.59,0.18s0.33,0.2,0.45,0.35
	c0.12,0.15,0.18,0.37,0.18,0.65c0,0.22-0.04,0.4-0.12,0.56c-0.08,0.16-0.19,0.29-0.33,0.4c-0.14,0.11-0.3,0.19-0.48,0.24
	c-0.18,0.05-0.37,0.08-0.57,0.08c-0.36,0-0.69-0.07-0.99-0.21c-0.3-0.14-0.53-0.35-0.69-0.64L111.12,492.84z M116.98,490.23h-1.19
	v2.71c0,0.19,0.05,0.33,0.15,0.43c0.1,0.1,0.24,0.15,0.42,0.15c0.1,0,0.21-0.01,0.31-0.04c0.1-0.03,0.21-0.06,0.3-0.1l0.04,0.49
	c-0.1,0.04-0.22,0.07-0.35,0.1c-0.13,0.03-0.25,0.04-0.35,0.04c-0.19,0-0.36-0.03-0.5-0.09c-0.14-0.06-0.25-0.13-0.33-0.23
	c-0.08-0.1-0.15-0.21-0.18-0.34c-0.04-0.13-0.06-0.27-0.06-0.42v-2.71h-0.9v-0.49h0.9v-1.2h0.54v1.2h1.19V490.23z M117.94,490.91
	c0-0.08,0-0.17-0.01-0.28c-0.01-0.11-0.01-0.22-0.01-0.34c0-0.11-0.01-0.22-0.01-0.32c-0.01-0.1-0.01-0.18-0.01-0.23h0.54
	c0.01,0.16,0.01,0.31,0.01,0.45c0,0.14,0.01,0.24,0.02,0.28c0.14-0.25,0.32-0.45,0.53-0.6c0.22-0.16,0.48-0.23,0.79-0.23
	c0.05,0,0.11,0,0.16,0.01c0.05,0.01,0.1,0.02,0.16,0.03l-0.06,0.53c-0.07-0.02-0.14-0.04-0.21-0.04c-0.23,0-0.44,0.04-0.61,0.11
	c-0.17,0.08-0.31,0.18-0.42,0.31c-0.11,0.13-0.19,0.29-0.25,0.46c-0.05,0.18-0.08,0.37-0.08,0.57v2.27h-0.54V490.91z M124.17,492.16
	c0,0.2,0,0.39,0,0.55c0,0.16,0.01,0.31,0.01,0.45c0.01,0.14,0.01,0.27,0.02,0.39c0.01,0.12,0.02,0.24,0.04,0.36h-0.5
	c-0.04-0.2-0.05-0.43-0.05-0.67h-0.02c-0.16,0.27-0.35,0.47-0.58,0.59c-0.23,0.13-0.52,0.19-0.88,0.19c-0.18,0-0.36-0.02-0.53-0.07
	c-0.17-0.04-0.33-0.12-0.47-0.22c-0.14-0.1-0.25-0.23-0.34-0.38c-0.09-0.16-0.13-0.34-0.13-0.57c0-0.32,0.08-0.57,0.24-0.76
	c0.16-0.19,0.36-0.33,0.6-0.42c0.24-0.09,0.49-0.15,0.76-0.18c0.27-0.03,0.5-0.04,0.71-0.04h0.63v-0.25c0-0.36-0.11-0.62-0.33-0.77
	c-0.22-0.16-0.5-0.23-0.84-0.23c-0.48,0-0.9,0.16-1.27,0.47l-0.32-0.37c0.2-0.19,0.44-0.34,0.74-0.44c0.29-0.1,0.58-0.15,0.85-0.15
	c0.5,0,0.91,0.12,1.21,0.36c0.3,0.24,0.45,0.62,0.45,1.15V492.16z M123.09,491.81c-0.23,0-0.45,0.02-0.66,0.04
	c-0.21,0.03-0.41,0.08-0.58,0.15c-0.17,0.07-0.31,0.17-0.41,0.29c-0.1,0.12-0.15,0.27-0.15,0.45c0,0.13,0.03,0.24,0.09,0.34
	c0.06,0.1,0.13,0.18,0.22,0.24c0.09,0.06,0.19,0.11,0.3,0.14c0.11,0.03,0.22,0.05,0.34,0.05c0.29,0,0.52-0.04,0.71-0.13
	c0.19-0.08,0.33-0.19,0.45-0.33c0.11-0.14,0.19-0.29,0.23-0.46c0.04-0.17,0.06-0.34,0.06-0.52v-0.28H123.09z M129.1,493.29
	c-0.2,0.25-0.44,0.43-0.69,0.54c-0.26,0.12-0.54,0.18-0.84,0.18c-0.32,0-0.61-0.05-0.88-0.16c-0.27-0.11-0.5-0.26-0.69-0.45
	c-0.19-0.19-0.34-0.43-0.45-0.69c-0.11-0.27-0.16-0.56-0.16-0.88c0-0.32,0.05-0.61,0.16-0.88c0.11-0.27,0.26-0.5,0.45-0.69
	c0.19-0.19,0.42-0.35,0.69-0.45c0.27-0.11,0.56-0.16,0.88-0.16c0.31,0,0.59,0.06,0.85,0.19s0.49,0.3,0.7,0.53l-0.43,0.32
	c-0.16-0.17-0.33-0.31-0.51-0.41c-0.19-0.1-0.39-0.15-0.6-0.15c-0.25,0-0.48,0.05-0.68,0.14c-0.2,0.09-0.38,0.21-0.52,0.36
	c-0.14,0.15-0.25,0.33-0.33,0.54c-0.08,0.21-0.11,0.43-0.11,0.66c0,0.23,0.04,0.45,0.11,0.66c0.07,0.21,0.18,0.39,0.33,0.54
	c0.14,0.15,0.32,0.27,0.52,0.36c0.2,0.09,0.43,0.14,0.68,0.14c0.23,0,0.44-0.05,0.63-0.16c0.19-0.1,0.35-0.24,0.49-0.42
	L129.1,493.29z M131.98,490.23h-1.19v2.71c0,0.19,0.05,0.33,0.15,0.43c0.1,0.1,0.24,0.15,0.42,0.15c0.1,0,0.21-0.01,0.31-0.04
	c0.1-0.03,0.21-0.06,0.3-0.1l0.04,0.49c-0.1,0.04-0.22,0.07-0.35,0.1c-0.13,0.03-0.25,0.04-0.35,0.04c-0.19,0-0.36-0.03-0.49-0.09
	c-0.14-0.06-0.25-0.13-0.33-0.23c-0.08-0.1-0.15-0.21-0.18-0.34c-0.04-0.13-0.06-0.27-0.06-0.42v-2.71h-0.9v-0.49h0.9v-1.2h0.54v1.2
	h1.19V490.23z M132.9,488.1c0-0.11,0.04-0.21,0.12-0.29c0.08-0.08,0.17-0.12,0.29-0.12c0.11,0,0.21,0.04,0.29,0.12
	c0.08,0.08,0.12,0.17,0.12,0.29c0,0.11-0.04,0.21-0.12,0.29c-0.08,0.08-0.17,0.12-0.29,0.12c-0.11,0-0.21-0.04-0.29-0.12
	C132.94,488.31,132.9,488.21,132.9,488.1z M133.04,489.74h0.54v4.16h-0.54V489.74z M134.87,491.82c0-0.32,0.05-0.61,0.16-0.88
	c0.11-0.27,0.26-0.5,0.45-0.69c0.19-0.19,0.42-0.35,0.69-0.45s0.56-0.16,0.88-0.16c0.32,0,0.61,0.05,0.88,0.16
	c0.27,0.11,0.5,0.26,0.69,0.45c0.19,0.2,0.35,0.43,0.45,0.69c0.11,0.27,0.16,0.56,0.16,0.88c0,0.32-0.05,0.61-0.16,0.88
	c-0.11,0.27-0.26,0.5-0.45,0.69c-0.2,0.2-0.43,0.35-0.69,0.45c-0.27,0.11-0.56,0.16-0.88,0.16c-0.32,0-0.61-0.05-0.88-0.16
	s-0.5-0.26-0.69-0.45c-0.19-0.19-0.34-0.43-0.45-0.69C134.93,492.43,134.87,492.14,134.87,491.82z M135.41,491.82
	c0,0.23,0.04,0.45,0.11,0.66c0.07,0.21,0.18,0.39,0.33,0.54c0.14,0.15,0.32,0.27,0.52,0.36c0.2,0.09,0.43,0.14,0.68,0.14
	s0.48-0.05,0.68-0.14c0.2-0.09,0.38-0.21,0.52-0.36c0.14-0.15,0.25-0.33,0.33-0.54c0.07-0.21,0.11-0.43,0.11-0.66
	c0-0.23-0.04-0.45-0.11-0.66c-0.08-0.21-0.18-0.39-0.33-0.54c-0.14-0.15-0.32-0.27-0.52-0.36c-0.2-0.09-0.43-0.14-0.68-0.14
	s-0.48,0.05-0.68,0.14c-0.2,0.09-0.38,0.21-0.52,0.36c-0.14,0.15-0.25,0.33-0.33,0.54C135.45,491.37,135.41,491.59,135.41,491.82z
	 M140.45,490.91c0-0.08,0-0.17-0.01-0.28c-0.01-0.11-0.01-0.22-0.01-0.34c0-0.11-0.01-0.22-0.01-0.32c-0.01-0.1-0.01-0.18-0.01-0.23
	h0.54c0.01,0.16,0.01,0.31,0.01,0.45c0,0.14,0.01,0.24,0.02,0.28h0.03c0.11-0.23,0.29-0.42,0.54-0.59c0.25-0.16,0.55-0.25,0.88-0.25
	c0.32,0,0.59,0.05,0.79,0.15c0.2,0.1,0.36,0.24,0.48,0.4c0.12,0.17,0.2,0.36,0.24,0.57s0.07,0.44,0.07,0.67v2.48h-0.54v-2.45
	c0-0.17-0.02-0.33-0.04-0.49c-0.03-0.16-0.08-0.3-0.16-0.43c-0.08-0.13-0.18-0.23-0.32-0.3c-0.13-0.07-0.31-0.11-0.53-0.11
	c-0.2,0-0.39,0.03-0.56,0.1c-0.18,0.07-0.33,0.17-0.46,0.32c-0.13,0.14-0.23,0.32-0.31,0.53c-0.08,0.21-0.11,0.46-0.11,0.75v2.08
	h-0.54V490.91z M151.03,492.16c0,0.2,0,0.39,0,0.55c0,0.16,0.01,0.31,0.01,0.45c0.01,0.14,0.01,0.27,0.02,0.39
	c0.01,0.12,0.02,0.24,0.04,0.36h-0.5c-0.04-0.2-0.05-0.43-0.05-0.67h-0.02c-0.16,0.27-0.35,0.47-0.58,0.59
	c-0.23,0.13-0.52,0.19-0.88,0.19c-0.18,0-0.36-0.02-0.53-0.07c-0.17-0.04-0.33-0.12-0.47-0.22c-0.14-0.1-0.25-0.23-0.34-0.38
	c-0.09-0.16-0.13-0.34-0.13-0.57c0-0.32,0.08-0.57,0.24-0.76c0.16-0.19,0.36-0.33,0.6-0.42c0.24-0.09,0.49-0.15,0.76-0.18
	c0.27-0.03,0.5-0.04,0.71-0.04h0.63v-0.25c0-0.36-0.11-0.62-0.33-0.77c-0.22-0.16-0.5-0.23-0.84-0.23c-0.48,0-0.9,0.16-1.27,0.47
	l-0.32-0.37c0.2-0.19,0.44-0.34,0.74-0.44c0.29-0.1,0.58-0.15,0.85-0.15c0.5,0,0.91,0.12,1.21,0.36c0.3,0.24,0.45,0.62,0.45,1.15
	V492.16z M149.95,491.81c-0.23,0-0.45,0.02-0.66,0.04c-0.21,0.03-0.4,0.08-0.58,0.15c-0.17,0.07-0.31,0.17-0.41,0.29
	c-0.1,0.12-0.15,0.27-0.15,0.45c0,0.13,0.03,0.24,0.09,0.34c0.06,0.1,0.13,0.18,0.22,0.24c0.09,0.06,0.19,0.11,0.3,0.14
	c0.11,0.03,0.22,0.05,0.34,0.05c0.29,0,0.52-0.04,0.71-0.13c0.19-0.08,0.33-0.19,0.45-0.33c0.11-0.14,0.19-0.29,0.23-0.46
	c0.04-0.17,0.06-0.34,0.06-0.52v-0.28H149.95z M152.47,490.91c0-0.08,0-0.17-0.01-0.28c-0.01-0.11-0.01-0.22-0.01-0.34
	c0-0.11-0.01-0.22-0.01-0.32c-0.01-0.1-0.01-0.18-0.01-0.23h0.54c0.01,0.16,0.01,0.31,0.01,0.45c0,0.14,0.01,0.24,0.02,0.28h0.03
	c0.11-0.23,0.29-0.42,0.54-0.59c0.25-0.16,0.55-0.25,0.88-0.25c0.32,0,0.59,0.05,0.79,0.15c0.2,0.1,0.36,0.24,0.48,0.4
	c0.12,0.17,0.2,0.36,0.24,0.57c0.04,0.22,0.07,0.44,0.07,0.67v2.48h-0.54v-2.45c0-0.17-0.02-0.33-0.04-0.49
	c-0.03-0.16-0.08-0.3-0.16-0.43c-0.08-0.13-0.18-0.23-0.32-0.3c-0.13-0.07-0.31-0.11-0.53-0.11c-0.2,0-0.39,0.03-0.56,0.1
	c-0.18,0.07-0.33,0.17-0.46,0.32c-0.13,0.14-0.23,0.32-0.31,0.53c-0.08,0.21-0.11,0.46-0.11,0.75v2.08h-0.54V490.91z M161.11,493.17
	h-0.02c-0.08,0.14-0.19,0.27-0.32,0.37c-0.13,0.11-0.26,0.19-0.41,0.26c-0.15,0.07-0.3,0.12-0.46,0.15
	c-0.16,0.03-0.32,0.05-0.48,0.05c-0.32,0-0.61-0.05-0.88-0.16s-0.5-0.26-0.69-0.45c-0.19-0.19-0.34-0.43-0.45-0.69
	c-0.11-0.27-0.16-0.56-0.16-0.88c0-0.32,0.05-0.61,0.16-0.88c0.11-0.27,0.26-0.5,0.45-0.69c0.19-0.19,0.42-0.35,0.69-0.45
	s0.56-0.16,0.88-0.16c0.16,0,0.32,0.02,0.48,0.05c0.16,0.03,0.32,0.08,0.46,0.15c0.15,0.07,0.28,0.16,0.41,0.26
	c0.13,0.11,0.23,0.23,0.32,0.37h0.02v-3.38h0.54v6.8h-0.54V493.17z M161.16,491.82c0-0.23-0.04-0.45-0.14-0.66
	c-0.09-0.21-0.21-0.39-0.37-0.54c-0.16-0.15-0.34-0.27-0.55-0.36c-0.21-0.09-0.44-0.14-0.68-0.14c-0.25,0-0.48,0.05-0.68,0.14
	c-0.2,0.09-0.38,0.21-0.52,0.36c-0.14,0.15-0.25,0.33-0.33,0.54c-0.08,0.21-0.11,0.43-0.11,0.66c0,0.23,0.04,0.45,0.11,0.66
	c0.07,0.21,0.18,0.39,0.33,0.54c0.14,0.15,0.32,0.27,0.52,0.36c0.2,0.09,0.43,0.14,0.68,0.14c0.25,0,0.47-0.05,0.68-0.14
	c0.21-0.09,0.39-0.21,0.55-0.36c0.16-0.15,0.28-0.33,0.37-0.54C161.12,492.28,161.16,492.06,161.16,491.82z M165.62,490.23h-0.86
	v-0.49h0.86v-1.36c0-0.27,0.04-0.49,0.12-0.67c0.08-0.18,0.18-0.32,0.3-0.43c0.12-0.11,0.25-0.18,0.4-0.23
	c0.15-0.05,0.29-0.07,0.42-0.07c0.25,0,0.46,0.04,0.62,0.11l-0.11,0.47c-0.12-0.06-0.28-0.09-0.49-0.09c-0.49,0-0.73,0.37-0.73,1.11
	v1.16h0.97v0.49h-0.97v3.67h-0.54V490.23z M167.78,488.1c0-0.11,0.04-0.21,0.12-0.29c0.08-0.08,0.17-0.12,0.29-0.12
	c0.11,0,0.21,0.04,0.29,0.12c0.08,0.08,0.12,0.17,0.12,0.29c0,0.11-0.04,0.21-0.12,0.29c-0.08,0.08-0.17,0.12-0.29,0.12
	c-0.11,0-0.21-0.04-0.29-0.12C167.82,488.31,167.78,488.21,167.78,488.1z M167.91,489.74h0.54v4.16h-0.54V489.74z M169.98,490.91
	c0-0.08,0-0.17-0.01-0.28c-0.01-0.11-0.01-0.22-0.01-0.34c0-0.11-0.01-0.22-0.01-0.32c-0.01-0.1-0.01-0.18-0.01-0.23h0.54
	c0.01,0.16,0.01,0.31,0.01,0.45c0,0.14,0.01,0.24,0.02,0.28h0.03c0.11-0.23,0.29-0.42,0.54-0.59c0.25-0.16,0.55-0.25,0.88-0.25
	c0.32,0,0.59,0.05,0.79,0.15c0.2,0.1,0.36,0.24,0.48,0.4c0.12,0.17,0.2,0.36,0.24,0.57c0.04,0.22,0.07,0.44,0.07,0.67v2.48h-0.54
	v-2.45c0-0.17-0.02-0.33-0.04-0.49c-0.03-0.16-0.08-0.3-0.16-0.43c-0.08-0.13-0.18-0.23-0.32-0.3c-0.13-0.07-0.31-0.11-0.53-0.11
	c-0.2,0-0.39,0.03-0.56,0.1c-0.18,0.07-0.33,0.17-0.46,0.32c-0.13,0.14-0.23,0.32-0.31,0.53c-0.08,0.21-0.11,0.46-0.11,0.75v2.08
	h-0.54V490.91z M174.99,492.84c0.11,0.22,0.28,0.39,0.5,0.51c0.22,0.12,0.46,0.18,0.7,0.18c0.11,0,0.23-0.02,0.34-0.05
	c0.11-0.04,0.22-0.09,0.31-0.15c0.09-0.07,0.16-0.15,0.22-0.24c0.06-0.09,0.09-0.2,0.09-0.32c0-0.19-0.06-0.34-0.18-0.43
	c-0.12-0.1-0.27-0.17-0.45-0.23c-0.18-0.05-0.38-0.1-0.59-0.14c-0.22-0.04-0.41-0.1-0.59-0.18c-0.18-0.08-0.33-0.19-0.45-0.34
	c-0.12-0.14-0.18-0.35-0.18-0.61c0-0.2,0.04-0.38,0.13-0.53c0.08-0.15,0.19-0.27,0.33-0.37c0.13-0.1,0.29-0.17,0.45-0.22
	c0.17-0.05,0.34-0.07,0.51-0.07c0.34,0,0.64,0.06,0.89,0.19c0.25,0.13,0.44,0.32,0.58,0.59l-0.49,0.29
	c-0.1-0.19-0.23-0.34-0.38-0.44s-0.35-0.15-0.6-0.15c-0.1,0-0.2,0.02-0.3,0.05c-0.11,0.03-0.2,0.07-0.28,0.13
	c-0.08,0.05-0.15,0.12-0.21,0.21c-0.06,0.08-0.09,0.18-0.09,0.29c0,0.19,0.06,0.32,0.18,0.41c0.12,0.09,0.27,0.16,0.45,0.21
	c0.18,0.05,0.38,0.09,0.59,0.13c0.22,0.04,0.41,0.09,0.59,0.18c0.18,0.08,0.33,0.2,0.45,0.35c0.12,0.15,0.18,0.37,0.18,0.65
	c0,0.22-0.04,0.4-0.12,0.56c-0.08,0.16-0.19,0.29-0.33,0.4c-0.14,0.11-0.3,0.19-0.48,0.24c-0.18,0.05-0.37,0.08-0.57,0.08
	c-0.36,0-0.69-0.07-0.99-0.21c-0.3-0.14-0.53-0.35-0.69-0.64L174.99,492.84z M178.82,487.1h0.54v3.38h0.02
	c0.11-0.23,0.29-0.42,0.54-0.59c0.25-0.16,0.55-0.25,0.88-0.25c0.32,0,0.59,0.05,0.79,0.15c0.2,0.1,0.36,0.24,0.48,0.4
	c0.12,0.17,0.2,0.36,0.24,0.57c0.04,0.22,0.07,0.44,0.07,0.67v2.48h-0.54v-2.45c0-0.17-0.02-0.33-0.04-0.49
	c-0.03-0.16-0.08-0.3-0.16-0.43c-0.08-0.13-0.18-0.23-0.32-0.3c-0.13-0.07-0.31-0.11-0.53-0.11c-0.2,0-0.39,0.03-0.56,0.1
	c-0.18,0.07-0.33,0.17-0.46,0.32c-0.13,0.14-0.23,0.32-0.31,0.53c-0.08,0.21-0.11,0.46-0.11,0.75v2.08h-0.54V487.1z M183.78,488.1
	c0-0.11,0.04-0.21,0.12-0.29c0.08-0.08,0.17-0.12,0.29-0.12c0.11,0,0.21,0.04,0.29,0.12c0.08,0.08,0.12,0.17,0.12,0.29
	c0,0.11-0.04,0.21-0.12,0.29c-0.08,0.08-0.17,0.12-0.29,0.12c-0.11,0-0.21-0.04-0.29-0.12C183.82,488.31,183.78,488.21,183.78,488.1
	z M183.91,489.74h0.54v4.16h-0.54V489.74z M185.98,490.91c0-0.08,0-0.17-0.01-0.28c-0.01-0.11-0.01-0.22-0.01-0.34
	c0-0.11-0.01-0.22-0.01-0.32c-0.01-0.1-0.01-0.18-0.01-0.23h0.54c0.01,0.16,0.01,0.31,0.01,0.45c0,0.14,0.01,0.24,0.02,0.28h0.03
	c0.11-0.23,0.29-0.42,0.54-0.59c0.25-0.16,0.55-0.25,0.88-0.25c0.32,0,0.59,0.05,0.79,0.15c0.2,0.1,0.36,0.24,0.48,0.4
	c0.12,0.17,0.2,0.36,0.24,0.57c0.04,0.22,0.07,0.44,0.07,0.67v2.48h-0.54v-2.45c0-0.17-0.02-0.33-0.04-0.49
	c-0.03-0.16-0.08-0.3-0.16-0.43c-0.08-0.13-0.18-0.23-0.32-0.3c-0.13-0.07-0.31-0.11-0.53-0.11c-0.2,0-0.39,0.03-0.56,0.1
	c-0.18,0.07-0.33,0.17-0.46,0.32c-0.13,0.14-0.23,0.32-0.31,0.53c-0.08,0.21-0.11,0.46-0.11,0.75v2.08h-0.54V490.91z M195.16,493.63
	c0,0.52-0.08,0.93-0.22,1.25c-0.15,0.32-0.34,0.56-0.56,0.74c-0.23,0.17-0.47,0.29-0.72,0.35c-0.26,0.06-0.49,0.09-0.7,0.09
	c-0.21,0-0.42-0.02-0.62-0.06c-0.2-0.04-0.39-0.1-0.57-0.17c-0.18-0.08-0.34-0.17-0.49-0.27c-0.15-0.11-0.27-0.23-0.38-0.37
	l0.42-0.4c0.19,0.27,0.43,0.47,0.72,0.59c0.29,0.13,0.59,0.19,0.92,0.19c0.28,0,0.51-0.04,0.7-0.11s0.34-0.17,0.47-0.28
	c0.12-0.12,0.22-0.25,0.29-0.39c0.07-0.14,0.12-0.28,0.15-0.42c0.03-0.14,0.05-0.27,0.06-0.4c0.01-0.13,0.01-0.23,0.01-0.31v-0.58
	h-0.02c-0.16,0.25-0.37,0.45-0.63,0.59c-0.27,0.14-0.58,0.22-0.94,0.22c-0.31,0-0.59-0.06-0.86-0.17c-0.27-0.11-0.51-0.26-0.71-0.46
	c-0.2-0.19-0.36-0.42-0.48-0.68c-0.12-0.26-0.18-0.53-0.18-0.83c0-0.29,0.06-0.57,0.18-0.83c0.12-0.26,0.28-0.48,0.48-0.67
	c0.2-0.19,0.44-0.34,0.71-0.46c0.27-0.11,0.56-0.17,0.86-0.17c0.36,0,0.67,0.07,0.94,0.22c0.27,0.14,0.48,0.34,0.63,0.59h0.02v-0.7
	h0.54V493.63z M194.64,491.77c0-0.23-0.04-0.44-0.13-0.64c-0.09-0.2-0.2-0.37-0.35-0.52c-0.15-0.15-0.32-0.26-0.52-0.35
	c-0.2-0.09-0.42-0.13-0.64-0.13c-0.23,0-0.44,0.04-0.64,0.13c-0.2,0.09-0.38,0.2-0.52,0.35c-0.15,0.15-0.26,0.32-0.35,0.52
	c-0.09,0.2-0.13,0.42-0.13,0.64c0,0.23,0.04,0.44,0.13,0.64c0.09,0.2,0.2,0.38,0.35,0.52c0.15,0.15,0.32,0.26,0.52,0.35
	c0.2,0.09,0.42,0.13,0.64,0.13c0.23,0,0.44-0.04,0.64-0.13c0.2-0.09,0.37-0.2,0.52-0.35c0.15-0.15,0.26-0.32,0.35-0.52
	C194.6,492.21,194.64,492,194.64,491.77z M198.24,489.74h0.59l1.01,3.48h0.02l1.16-3.48h0.51l1.23,3.48h0.02l0.98-3.48h0.54
	l-1.22,4.16h-0.56l-1.24-3.4h-0.02l-1.16,3.4h-0.56L198.24,489.74z M204.93,491.82c0-0.32,0.05-0.61,0.16-0.88
	c0.11-0.27,0.26-0.5,0.45-0.69c0.19-0.19,0.42-0.35,0.69-0.45s0.56-0.16,0.88-0.16c0.32,0,0.61,0.05,0.88,0.16
	c0.27,0.11,0.5,0.26,0.69,0.45c0.19,0.2,0.35,0.43,0.45,0.69c0.11,0.27,0.16,0.56,0.16,0.88c0,0.32-0.05,0.61-0.16,0.88
	c-0.11,0.27-0.26,0.5-0.45,0.69c-0.2,0.2-0.43,0.35-0.69,0.45c-0.27,0.11-0.56,0.16-0.88,0.16c-0.32,0-0.61-0.05-0.88-0.16
	s-0.5-0.26-0.69-0.45c-0.19-0.19-0.34-0.43-0.45-0.69C204.98,492.43,204.93,492.14,204.93,491.82z M205.47,491.82
	c0,0.23,0.04,0.45,0.11,0.66c0.07,0.21,0.18,0.39,0.33,0.54c0.14,0.15,0.32,0.27,0.52,0.36c0.2,0.09,0.43,0.14,0.68,0.14
	s0.48-0.05,0.68-0.14c0.2-0.09,0.38-0.21,0.52-0.36c0.14-0.15,0.25-0.33,0.33-0.54c0.07-0.21,0.11-0.43,0.11-0.66
	c0-0.23-0.04-0.45-0.11-0.66c-0.08-0.21-0.18-0.39-0.33-0.54c-0.14-0.15-0.32-0.27-0.52-0.36c-0.2-0.09-0.43-0.14-0.68-0.14
	s-0.48,0.05-0.68,0.14c-0.2,0.09-0.38,0.21-0.52,0.36c-0.14,0.15-0.25,0.33-0.33,0.54C205.51,491.37,205.47,491.59,205.47,491.82z
	 M210.51,490.91c0-0.08,0-0.17-0.01-0.28c-0.01-0.11-0.01-0.22-0.01-0.34c0-0.11-0.01-0.22-0.01-0.32c-0.01-0.1-0.01-0.18-0.01-0.23
	H211c0.01,0.16,0.01,0.31,0.01,0.45c0,0.14,0.01,0.24,0.02,0.28c0.14-0.25,0.31-0.45,0.53-0.6c0.22-0.16,0.48-0.23,0.79-0.23
	c0.05,0,0.11,0,0.16,0.01c0.05,0.01,0.1,0.02,0.16,0.03l-0.06,0.53c-0.07-0.02-0.14-0.04-0.21-0.04c-0.23,0-0.44,0.04-0.61,0.11
	c-0.17,0.08-0.31,0.18-0.42,0.31c-0.11,0.13-0.19,0.29-0.25,0.46c-0.05,0.18-0.08,0.37-0.08,0.57v2.27h-0.54V490.91z M213.5,487.1
	h0.54v4.54l2.05-1.88h0.79l-2.14,1.9l2.39,2.25h-0.82l-2.28-2.2v2.2h-0.54V487.1z M220.13,488.1c0-0.11,0.04-0.21,0.12-0.29
	c0.08-0.08,0.17-0.12,0.29-0.12c0.11,0,0.21,0.04,0.29,0.12c0.08,0.08,0.12,0.17,0.12,0.29c0,0.11-0.04,0.21-0.12,0.29
	c-0.08,0.08-0.17,0.12-0.29,0.12c-0.11,0-0.21-0.04-0.29-0.12C220.17,488.31,220.13,488.21,220.13,488.1z M220.26,489.74h0.54v4.16
	h-0.54V489.74z M222.33,490.91c0-0.08,0-0.17-0.01-0.28c-0.01-0.11-0.01-0.22-0.01-0.34c0-0.11-0.01-0.22-0.01-0.32
	c-0.01-0.1-0.01-0.18-0.01-0.23h0.54c0.01,0.16,0.01,0.31,0.01,0.45c0,0.14,0.01,0.24,0.02,0.28h0.03c0.11-0.23,0.29-0.42,0.54-0.59
	c0.25-0.16,0.55-0.25,0.88-0.25c0.32,0,0.59,0.05,0.79,0.15c0.2,0.1,0.36,0.24,0.48,0.4c0.12,0.17,0.2,0.36,0.24,0.57
	c0.04,0.22,0.07,0.44,0.07,0.67v2.48h-0.54v-2.45c0-0.17-0.02-0.33-0.04-0.49c-0.03-0.16-0.08-0.3-0.16-0.43
	c-0.08-0.13-0.18-0.23-0.32-0.3c-0.13-0.07-0.31-0.11-0.53-0.11c-0.2,0-0.39,0.03-0.56,0.1c-0.18,0.07-0.33,0.17-0.46,0.32
	c-0.13,0.14-0.23,0.32-0.31,0.53c-0.08,0.21-0.11,0.46-0.11,0.75v2.08h-0.54V490.91z M227.35,492.84c0.11,0.22,0.28,0.39,0.5,0.51
	c0.22,0.12,0.46,0.18,0.7,0.18c0.11,0,0.23-0.02,0.34-0.05c0.11-0.04,0.22-0.09,0.31-0.15c0.09-0.07,0.16-0.15,0.22-0.24
	c0.06-0.09,0.09-0.2,0.09-0.32c0-0.19-0.06-0.34-0.18-0.43c-0.12-0.1-0.27-0.17-0.45-0.23c-0.18-0.05-0.38-0.1-0.59-0.14
	c-0.22-0.04-0.41-0.1-0.59-0.18c-0.18-0.08-0.33-0.19-0.45-0.34c-0.12-0.14-0.18-0.35-0.18-0.61c0-0.2,0.04-0.38,0.13-0.53
	c0.08-0.15,0.19-0.27,0.33-0.37c0.13-0.1,0.29-0.17,0.45-0.22c0.17-0.05,0.34-0.07,0.51-0.07c0.34,0,0.64,0.06,0.89,0.19
	c0.25,0.13,0.44,0.32,0.58,0.59l-0.49,0.29c-0.1-0.19-0.23-0.34-0.38-0.44s-0.35-0.15-0.6-0.15c-0.1,0-0.2,0.02-0.3,0.05
	c-0.11,0.03-0.2,0.07-0.28,0.13c-0.08,0.05-0.15,0.12-0.21,0.21c-0.06,0.08-0.09,0.18-0.09,0.29c0,0.19,0.06,0.32,0.18,0.41
	c0.12,0.09,0.27,0.16,0.45,0.21c0.18,0.05,0.38,0.09,0.59,0.13c0.22,0.04,0.41,0.09,0.59,0.18c0.18,0.08,0.33,0.2,0.45,0.35
	c0.12,0.15,0.18,0.37,0.18,0.65c0,0.22-0.04,0.4-0.12,0.56c-0.08,0.16-0.19,0.29-0.33,0.4c-0.14,0.11-0.3,0.19-0.48,0.24
	c-0.18,0.05-0.37,0.08-0.57,0.08c-0.36,0-0.69-0.07-0.99-0.21c-0.3-0.14-0.53-0.35-0.69-0.64L227.35,492.84z M233.21,490.23h-1.19
	v2.71c0,0.19,0.05,0.33,0.15,0.43c0.1,0.1,0.24,0.15,0.42,0.15c0.1,0,0.21-0.01,0.31-0.04c0.1-0.03,0.21-0.06,0.3-0.1l0.04,0.49
	c-0.1,0.04-0.22,0.07-0.35,0.1c-0.13,0.03-0.25,0.04-0.35,0.04c-0.19,0-0.36-0.03-0.49-0.09c-0.14-0.06-0.25-0.13-0.33-0.23
	c-0.08-0.1-0.15-0.21-0.18-0.34c-0.04-0.13-0.06-0.27-0.06-0.42v-2.71h-0.9v-0.49h0.9v-1.2h0.54v1.2h1.19V490.23z M234.13,488.1
	c0-0.11,0.04-0.21,0.12-0.29c0.08-0.08,0.17-0.12,0.29-0.12c0.11,0,0.21,0.04,0.29,0.12c0.08,0.08,0.12,0.17,0.12,0.29
	c0,0.11-0.04,0.21-0.12,0.29c-0.08,0.08-0.17,0.12-0.29,0.12c-0.11,0-0.21-0.04-0.29-0.12C234.17,488.31,234.13,488.21,234.13,488.1
	z M234.27,489.74h0.54v4.16h-0.54V489.74z M238.37,490.23h-1.19v2.71c0,0.19,0.05,0.33,0.15,0.43c0.1,0.1,0.24,0.15,0.42,0.15
	c0.1,0,0.21-0.01,0.31-0.04c0.1-0.03,0.21-0.06,0.3-0.1l0.04,0.49c-0.1,0.04-0.22,0.07-0.35,0.1c-0.13,0.03-0.25,0.04-0.35,0.04
	c-0.19,0-0.36-0.03-0.49-0.09c-0.14-0.06-0.25-0.13-0.33-0.23c-0.08-0.1-0.15-0.21-0.18-0.34c-0.04-0.13-0.06-0.27-0.06-0.42v-2.71
	h-0.9v-0.49h0.9v-1.2h0.54v1.2h1.19V490.23z M242.85,492.73c0,0.08,0,0.17,0.01,0.28c0.01,0.11,0.01,0.22,0.01,0.34
	c0,0.11,0.01,0.22,0.01,0.32c0.01,0.1,0.01,0.18,0.01,0.23h-0.54c-0.01-0.16-0.01-0.31-0.01-0.45c0-0.14-0.01-0.24-0.02-0.28h-0.03
	c-0.11,0.23-0.29,0.42-0.54,0.59s-0.55,0.25-0.88,0.25c-0.32,0-0.59-0.05-0.8-0.15c-0.21-0.1-0.37-0.24-0.49-0.4
	c-0.12-0.16-0.2-0.36-0.24-0.57c-0.04-0.22-0.06-0.44-0.06-0.67v-2.48h0.54v2.45c0,0.17,0.01,0.33,0.04,0.49
	c0.03,0.16,0.08,0.3,0.16,0.43c0.07,0.13,0.18,0.23,0.32,0.3c0.13,0.08,0.31,0.11,0.53,0.11c0.2,0,0.39-0.03,0.56-0.1
	c0.18-0.07,0.33-0.17,0.46-0.31c0.13-0.14,0.23-0.32,0.31-0.53c0.07-0.21,0.11-0.46,0.11-0.75v-2.08h0.54V492.73z M246.37,490.23
	h-1.19v2.71c0,0.19,0.05,0.33,0.15,0.43c0.1,0.1,0.24,0.15,0.42,0.15c0.1,0,0.21-0.01,0.31-0.04c0.1-0.03,0.21-0.06,0.3-0.1
	l0.04,0.49c-0.1,0.04-0.22,0.07-0.35,0.1c-0.13,0.03-0.25,0.04-0.35,0.04c-0.19,0-0.36-0.03-0.49-0.09
	c-0.14-0.06-0.25-0.13-0.33-0.23c-0.08-0.1-0.15-0.21-0.18-0.34c-0.04-0.13-0.06-0.27-0.06-0.42v-2.71h-0.9v-0.49h0.9v-1.2h0.54v1.2
	h1.19V490.23z M251.01,493.12c-0.21,0.32-0.47,0.55-0.78,0.68c-0.31,0.14-0.65,0.21-1.02,0.21c-0.32,0-0.61-0.05-0.86-0.16
	c-0.26-0.11-0.48-0.26-0.67-0.45c-0.19-0.19-0.33-0.43-0.43-0.69c-0.1-0.27-0.15-0.56-0.15-0.89c0-0.31,0.05-0.6,0.15-0.86
	c0.1-0.26,0.25-0.49,0.43-0.69c0.19-0.19,0.4-0.35,0.66-0.46c0.25-0.11,0.53-0.17,0.84-0.17c0.32,0,0.6,0.06,0.84,0.17
	c0.24,0.11,0.45,0.26,0.61,0.44c0.16,0.18,0.29,0.39,0.37,0.63c0.08,0.23,0.13,0.47,0.13,0.71v0.38h-3.49
	c0,0.11,0.02,0.26,0.07,0.44c0.04,0.18,0.13,0.35,0.25,0.52c0.12,0.17,0.28,0.31,0.48,0.43c0.2,0.12,0.46,0.18,0.78,0.18
	c0.28,0,0.54-0.07,0.8-0.2c0.26-0.13,0.46-0.31,0.59-0.54L251.01,493.12z M250.59,491.47c0-0.19-0.04-0.36-0.11-0.52
	c-0.08-0.16-0.18-0.3-0.31-0.43c-0.13-0.12-0.28-0.22-0.46-0.29c-0.18-0.07-0.36-0.11-0.56-0.11c-0.29,0-0.54,0.06-0.73,0.18
	c-0.2,0.12-0.35,0.26-0.46,0.41c-0.11,0.16-0.2,0.31-0.24,0.45c-0.05,0.15-0.07,0.25-0.07,0.3H250.59z"/>
<text transform="matrix(1 0 0 1 40.1945 504.7013)" class="st11 st12">Ethiopia Addis Ababa</text>
<text transform="matrix(1 0 0 1 106.727 529.7015)" class="st11 st13"> </text>
<text transform="matrix(1 0 0 1 40.1945 519.1017)" class="st6 st10">Fast Track To Manufactureing program </text>
<text transform="matrix(1 0 0 1 40.1945 529.9016)" class="st11 st12">MOSIC </text>
<text transform="matrix(1 0 0 1 40.1945 540.7014)" class="st11 st12">Canada ,Bc</text>
<text transform="matrix(1 0 0 1 40.1945 638.6214)" class="st6 st10">Adobe</text>
<text transform="matrix(1 0 0 1 40.1945 653.0218)" class="st6 st10">Autocad </text>
<text transform="matrix(1 0 0 1 40.1945 667.4212)" class="st6 st10">Microsoft </text>
<text transform="matrix(1 0 0 1 40.1945 681.8216)" class="st6 st10">Assembly work </text>
<text transform="matrix(1 0 0 1 40.1945 696.222)" class="st6 st10">welding Steels and Aluminum</text>
<text transform="matrix(1 0 0 1 348.9546 441.9016)" class="st6 st10">Lamerger Aluminum and PVC Work  </text>
<text transform="matrix(1 0 0 1 348.9546 456.3019)" class="st6 st10">ETHIOPIA ,Addis Ababa , Saries  </text>
<text transform="matrix(1 0 0 1 348.9546 470.7014)" class="st4 st10">Alumunim Fabricator / Technicatin </text>
<text transform="matrix(1 0 0 1 350.5142 264.562)" class="st6 st10">Dekemhare  Metal Work</text>
<text transform="matrix(1 0 0 1 350.5142 278.9619)" class="st6 st10">ERITREA ,Dekemhare ,Hadamu </text>
<text transform="matrix(1 0 0 1 350.5142 293.3618)" class="st4 st10">Metal Fabricator </text>
<text transform="matrix(1 0 0 1 348.9546 638.6214)" class="st6 st10">Euroline Windows </text>
<text transform="matrix(1 0 0 1 348.9546 653.0218)" class="st6 st10">CANADA , Delta Bc</text>
<text transform="matrix(1 0 0 1 348.9546 667.4212)" class="st4 st10">PVC Assembler </text>
<g class="st14">
	<g>
		<line class="st15" x1="307.49" y1="229.63" x2="307.49" y2="696.3"/>
		<circle class="st0" cx="307.07" cy="224.37" r="8.33"/>
	</g>
	<circle class="st0" cx="308.32" cy="396.86" r="8.33"/>
	<circle class="st0" cx="308.32" cy="596.86" r="8.33"/>
</g>
</svg>
