<?xml version="1.0" encoding="utf-8"?>
<!-- Generator: Adobe Illustrator 25.1.0, SVG Export Plug-In . SVG Version: 6.00 Build 0)  -->
<svg version="1.1" id="Layer_1" xmlns="http://www.w3.org/2000/svg" xmlns:xlink="http://www.w3.org/1999/xlink" x="0px" y="0px"
	 viewBox="0 0 432.6 433.2" style="enable-background:new 0 0 432.6 433.2;" xml:space="preserve">
<style type="text/css">
	.st0{fill:#193059;}
	.st1{fill:#FFFFFF;}
</style>
<g>
	<circle class="st0" cx="216.3" cy="217.1" r="215.9"/>
	<g>
		<path class="st1" d="M219.1,89.8c38.8,46.5,81.8,90.7,107.4,144.7c-9.8,3.6-17,6.2-24.6,9c-12.1-8.5-19.9-20-26.3-32.3
			c-18.1-34.7-36.1-69.4-54-104.2c-2.6-5-3.9-10.4-5.9-15.7C216.9,90.8,218,90.3,219.1,89.8z"/>
		<path class="st1" d="M65.2,325.3c24.7-65,44.2-132.4,85.4-190.6c10.1,6.4,17.6,11.1,25.5,16c-1.2,16.4-8.6,30.9-17.5,44.7
			c-25.4,38.9-50.9,77.7-76.7,116.4c-3.7,5.6-8.6,10.4-13,15.5C67.7,326.6,66.4,326,65.2,325.3z"/>
		<path class="st1" d="M351.4,326.7c-4.8-15.6-14-25.1-25.1-34.1c-7.7-6.4-14.5-14.3-19.5-22.5c-4.2-7-3.2-15,4.6-20.1
			c10.2-6.6,19.4-6.9,28.8-1.4c26.3,15.4,34.1,38.2,21,61.6C358.5,315.1,355.5,319.9,351.4,326.7z"/>
		<path class="st1" d="M206.1,78.9c-4.7,7-9.4,14-14.2,21c-1.1-0.4-2.3-0.3-3.5,0.3c-1.9,1.2-2.6,3.6-1.4,5.6
			c1.1,1.9,3.6,2.6,5.6,1.4c1.9-1.2,2.6-3.7,1.4-5.5c-0.5-0.8-0.4-1.2,0.1-1.8c4.4-6.5,8.7-12.9,13.1-19.4c0.1-0.2,0.3-0.4,0.4-0.6
			c0.1,0,0.2,0.1,0.3,0.1c2.1,1.2,1.8,1.1,0.9,2.9c-2.4,4.7-3.1,9.7-3.2,14.9c-0.1,5.6,0.6,11.1,1.8,16.6c0.2,0.8,0,1.3-0.6,1.8
			c-7.4,5.5-14.7,11.1-22,16.7c-0.5,0.4-0.8,0.5-1.3,0.1c-5.9-4-11.9-8.1-17.8-12.1c-0.1-0.1-0.2-0.2-0.3-0.3
			c1.4-5.1,2.9-10.1,4.3-15.2c1.1-3.9,2.3-7.8,3.3-11.8c0.3-1.2,0.9-1.5,2-1.7c9.9-1.3,18.9-5,26.6-11.5c0.6-0.5,1.3-1.1,1.9-1.7
			c0.7-0.8,1.4-0.9,2.2-0.2C205.6,78.6,205.9,78.7,206.1,78.9z"/>
		<path class="st1" d="M183.6,144.2c-0.9,2.1-1.7,4.1-2.6,6.1c-0.4,1.1-0.8,1.2-1.7,0.5c-6.9-4.4-13.7-8.8-20.6-13.2
			c-2.6-1.7-5.3-3.4-7.9-5.1c-1-0.6-1-0.9-0.3-1.8c1.6-1.7,3.2-3.4,4.8-5.2C164.8,131.8,174.2,137.9,183.6,144.2z"/>
		<path class="st1" d="M184.2,142.8c-9.3-6.1-18.5-12.2-27.8-18.3c1.4-1.5,2.7-3,4.1-4.4c0.5-0.5,1-0.2,1.4,0.1
			c3.6,2.5,7.3,4.9,10.9,7.4c4.2,2.9,8.5,5.8,12.8,8.6c0.8,0.5,1,1,0.6,1.9C185.5,139.6,184.9,141.1,184.2,142.8z"/>
		<path class="st1" d="M145.5,300.2c39-1.1,79.7-2.2,121.9-3.4c-0.6,15.6-1.2,31.2-1.9,46c-38,0.6-79,1.3-120.6,2
			C145.1,331.6,145.3,315.7,145.5,300.2z"/>
		<path class="st1" d="M282.7,296.5c31.3-2.8,34.5-0.4,34.8,27.8c0.2,19.7-3.4,21.8-34.9,19.8C282.6,328.3,282.6,312.5,282.7,296.5z
			"/>
		<path class="st1" d="M126.5,346.2c-9.9-5.8-21.1-12.4-34.9-20.5c13.2-9.2,24.1-16.9,35.7-25C127,316.1,126.8,330.8,126.5,346.2z"
			/>
	</g>
</g>
</svg>
