<?xml version="1.0" encoding="utf-8"?>
<!-- Generator: Adobe Illustrator 25.1.0, SVG Export Plug-In . SVG Version: 6.00 Build 0)  -->
<svg version="1.1" id="Layer_1" xmlns="http://www.w3.org/2000/svg" xmlns:xlink="http://www.w3.org/1999/xlink" x="0px" y="0px"
	 viewBox="0 0 484.65 438.19" style="enable-background:new 0 0 484.65 438.19;" xml:space="preserve">
<style type="text/css">
	.st0{fill:#193059;}
	.st1{fill:#FFFFFF;}
</style>
<g>
	<circle class="st0" cx="242.32" cy="219.1" r="215.88"/>
	<g>
		<path class="st1" d="M245.05,91.82c38.78,46.45,81.78,90.71,107.42,144.67c-9.76,3.57-16.98,6.24-24.56,9.03
			c-12.14-8.46-19.92-20.03-26.34-32.28c-18.14-34.69-36.13-69.44-53.96-104.22c-2.57-5.02-3.94-10.44-5.85-15.68
			C242.86,92.82,243.96,92.32,245.05,91.82z"/>
		<path class="st1" d="M91.16,327.31c24.66-65.03,44.22-132.36,85.39-190.6c10.13,6.35,17.62,11.07,25.51,16.01
			c-1.2,16.38-8.57,30.9-17.53,44.65c-25.4,38.91-50.94,77.71-76.66,116.4c-3.7,5.59-8.63,10.35-13,15.49
			C93.66,328.62,92.4,327.98,91.16,327.31z"/>
		<path class="st1" d="M377.39,328.68c-4.76-15.57-14.03-25.06-25.06-34.15c-7.74-6.39-14.55-14.29-19.47-22.47
			c-4.22-7.02-3.2-15.01,4.59-20.09c10.18-6.61,19.38-6.9,28.84-1.35c26.3,15.44,34.06,38.17,20.97,61.61
			C384.51,317.15,381.46,321.94,377.39,328.68z"/>
		<path class="st1" d="M232.13,80.88c-4.74,7.03-9.42,13.98-14.16,20.97c-1.11-0.37-2.31-0.35-3.46,0.33
			c-1.94,1.15-2.59,3.63-1.44,5.55c1.15,1.93,3.65,2.57,5.55,1.43c1.94-1.15,2.63-3.67,1.37-5.53c-0.5-0.76-0.37-1.18,0.07-1.83
			c4.37-6.46,8.72-12.94,13.07-19.42c0.13-0.19,0.28-0.37,0.41-0.57c0.13,0.04,0.24,0.06,0.31,0.11c2.13,1.24,1.83,1.09,0.87,2.94
			c-2.41,4.66-3.11,9.72-3.22,14.9c-0.11,5.59,0.56,11.11,1.8,16.57c0.19,0.81,0.02,1.3-0.65,1.8c-7.37,5.53-14.7,11.09-22.03,16.66
			c-0.46,0.35-0.8,0.46-1.33,0.09c-5.91-4.04-11.85-8.05-17.75-12.09c-0.11-0.07-0.2-0.17-0.33-0.3c1.43-5.05,2.85-10.13,4.29-15.18
			c1.11-3.92,2.26-7.83,3.3-11.79c0.3-1.15,0.85-1.54,1.98-1.68c9.92-1.35,18.86-5,26.58-11.46c0.65-0.54,1.31-1.07,1.85-1.72
			c0.68-0.83,1.35-0.89,2.17-0.24C231.59,80.59,231.85,80.72,232.13,80.88z"/>
		<path class="st1" d="M209.65,146.17c-0.87,2.09-1.72,4.13-2.57,6.15c-0.44,1.07-0.76,1.17-1.74,0.54
			c-6.85-4.39-13.7-8.77-20.55-13.16c-2.65-1.68-5.29-3.39-7.92-5.09c-1-0.65-1.04-0.94-0.26-1.8c1.57-1.7,3.17-3.41,4.83-5.22
			C190.83,133.79,200.21,139.95,209.65,146.17z"/>
		<path class="st1" d="M210.25,144.75c-9.31-6.13-18.49-12.18-27.77-18.29c1.41-1.54,2.72-2.98,4.05-4.39
			c0.5-0.52,0.98-0.19,1.44,0.13c3.63,2.46,7.26,4.92,10.9,7.4c4.24,2.89,8.48,5.79,12.75,8.64c0.8,0.54,1,1.02,0.59,1.91
			C211.52,141.6,210.93,143.12,210.25,144.75z"/>
		<path class="st1" d="M171.52,302.17c38.97-1.07,79.73-2.22,121.94-3.39c-0.63,15.62-1.24,31.17-1.85,45.98
			c-38.04,0.63-79.03,1.3-120.6,1.98C171.15,333.62,171.33,317.72,171.52,302.17z"/>
		<path class="st1" d="M308.67,298.54c31.28-2.81,34.47-0.37,34.82,27.79c0.24,19.71-3.44,21.83-34.88,19.75
			C308.63,330.31,308.65,314.46,308.67,298.54z"/>
		<path class="st1" d="M152.53,348.21c-9.94-5.83-21.12-12.4-34.95-20.51c13.18-9.24,24.1-16.88,35.69-25.01
			C153.01,318.11,152.77,332.83,152.53,348.21z"/>
	</g>
</g>
</svg>
