<?xml version="1.0" encoding="utf-8"?>
<!-- Generator: Adobe Illustrator 25.1.0, SVG Export Plug-In . SVG Version: 6.00 Build 0)  -->
<svg version="1.1" id="Layer_1" xmlns="http://www.w3.org/2000/svg" xmlns:xlink="http://www.w3.org/1999/xlink" x="0px" y="0px"
	 viewBox="0 0 1080 261" style="enable-background:new 0 0 1080 261;" xml:space="preserve">
<style type="text/css">
	.st0{fill:#193059;}
	.st1{fill:#FFFFFF;}
	.st2{fill:none;stroke:#193059;stroke-width:2;stroke-miterlimit:10;}
</style>
<g>
	<circle class="st0" cx="399.96" cy="146.39" r="64.87"/>
	<g>
		<path class="st1" d="M402.15,104.15c11.65,13.96,24.57,27.25,32.28,43.48c-2.93,1.07-5.1,1.87-7.39,2.71
			c-3.65-2.55-5.98-6.03-7.91-9.7c-5.45-10.43-10.86-20.87-16.22-31.33c-0.77-1.51-1.18-3.14-1.76-4.72
			C401.49,104.45,401.82,104.3,402.15,104.15z"/>
		<path class="st1" d="M355.9,174.91c7.42-19.54,13.29-39.77,25.66-57.28c3.04,1.91,5.3,3.33,7.66,4.82
			c-0.36,4.93-2.57,9.29-5.27,13.41c-7.64,11.69-15.31,23.35-23.03,34.99c-1.11,1.68-2.6,3.11-3.91,4.66
			C356.65,175.31,356.28,175.12,355.9,174.91z"/>
		<path class="st1" d="M441.92,175.32c-1.43-4.68-4.22-7.54-7.53-10.26c-2.33-1.91-4.38-4.29-5.85-6.76
			c-1.27-2.1-0.96-4.51,1.38-6.04c3.05-1.98,5.83-2.08,8.67-0.41c7.9,4.64,10.24,11.47,6.3,18.52
			C444.05,171.85,443.13,173.3,441.92,175.32z"/>
		<path class="st1" d="M398.27,100.86c-1.43,2.12-2.83,4.2-4.25,6.3c-0.33-0.11-0.7-0.11-1.05,0.1c-0.58,0.34-0.78,1.09-0.44,1.66
			c0.34,0.58,1.09,0.77,1.66,0.43c0.58-0.34,0.78-1.1,0.41-1.66c-0.15-0.23-0.11-0.36,0.01-0.55c1.31-1.94,2.61-3.89,3.92-5.83
			c0.04-0.06,0.08-0.11,0.12-0.17c0.04,0.01,0.07,0.01,0.1,0.03c0.65,0.37,0.55,0.33,0.26,0.88c-0.73,1.4-0.94,2.92-0.96,4.47
			c-0.04,1.68,0.17,3.34,0.54,4.98c0.06,0.25,0,0.39-0.19,0.54c-2.22,1.66-4.42,3.33-6.62,5.01c-0.14,0.11-0.23,0.14-0.4,0.03
			c-1.77-1.21-3.56-2.42-5.34-3.63c-0.03-0.03-0.06-0.06-0.1-0.08c0.43-1.53,0.85-3.04,1.29-4.57c0.33-1.18,0.69-2.35,0.99-3.54
			c0.1-0.34,0.26-0.45,0.59-0.51c2.99-0.41,5.67-1.5,7.99-3.44c0.19-0.17,0.4-0.33,0.55-0.52c0.21-0.25,0.4-0.26,0.65-0.07
			C398.1,100.77,398.18,100.81,398.27,100.86z"/>
		<path class="st1" d="M391.51,120.48c-0.26,0.63-0.52,1.24-0.77,1.84c-0.14,0.32-0.23,0.36-0.52,0.17
			c-2.06-1.32-4.11-2.64-6.18-3.95c-0.8-0.51-1.6-1.02-2.38-1.53c-0.3-0.19-0.32-0.29-0.07-0.54c0.47-0.51,0.95-1.03,1.44-1.57
			C385.86,116.75,388.68,118.61,391.51,120.48z"/>
		<path class="st1" d="M391.69,120.05c-2.79-1.84-5.56-3.66-8.35-5.5c0.43-0.45,0.81-0.89,1.22-1.32c0.15-0.15,0.29-0.06,0.43,0.04
			c1.09,0.74,2.19,1.49,3.27,2.23c1.28,0.87,2.55,1.73,3.82,2.6c0.23,0.17,0.3,0.3,0.18,0.58
			C392.08,119.11,391.9,119.56,391.69,120.05z"/>
		<path class="st1" d="M380.05,167.36c11.71-0.33,23.97-0.66,36.64-1.02c-0.19,4.69-0.37,9.37-0.55,13.81
			c-11.43,0.19-23.75,0.39-36.24,0.59C379.94,176.81,380,172.03,380.05,167.36z"/>
		<path class="st1" d="M419.89,166.27c9.4-0.84,10.36-0.11,10.47,8.35c0.07,5.93-1.03,6.56-10.48,5.94
			C419.88,175.82,419.88,171.06,419.89,166.27z"/>
		<path class="st1" d="M375.72,181.2c-2.99-1.76-6.36-3.73-10.5-6.16c3.96-2.78,7.25-5.08,10.73-7.51
			C375.87,172.14,375.79,176.57,375.72,181.2z"/>
	</g>
</g>
<g>
	<path class="st2" d="M500.1,150.5v7.11h-5.48v28.4h-9.23v-28.4h-5.46v-7.11H500.1L500.1,150.5z"/>
	<path class="st2" d="M502.2,150.5h6.53c4.36,0,7.31,0.17,8.85,0.51c1.55,0.33,2.8,1.19,3.77,2.58c0.97,1.38,1.46,3.58,1.46,6.61
		c0,2.76-0.34,4.62-1.03,5.57c-0.69,0.95-2.04,1.52-4.05,1.71c1.83,0.45,3.06,1.06,3.68,1.82c0.63,0.76,1.02,1.46,1.18,2.1
		s0.24,2.39,0.24,5.25v9.36h-8.58v-11.8c0-1.9-0.15-3.07-0.45-3.54c-0.3-0.45-1.09-0.68-2.36-0.68v16.01h-9.23L502.2,150.5
		L502.2,150.5z M511.44,156.57v7.89c1.04,0,1.76-0.15,2.18-0.43c0.42-0.28,0.63-1.21,0.63-2.77v-1.95c0-1.13-0.21-1.86-0.61-2.21
		C513.24,156.75,512.51,156.57,511.44,156.57z"/>
	<path class="st2" d="M535.63,150.5v35.51h-9.23V150.5H535.63L535.63,150.5z"/>
	<path class="st2" d="M555.29,150.5l5.28,35.51h-9.43l-0.5-6.38h-3.3l-0.56,6.38h-9.55l4.71-35.51H555.29L555.29,150.5z
		 M550.4,173.32c-0.47-4.02-0.94-8.99-1.41-14.91c-0.94,6.8-1.53,11.77-1.77,14.91H550.4z"/>
	<path class="st2" d="M582.76,150.5v35.51h-8.09l-4.8-16.14v16.14h-7.72V150.5h7.72l5.18,15.99V150.5H582.76L582.76,150.5z"/>
	<path class="st2" d="M607.65,163.57h-9.23v-3.22c0-2.04-0.09-3.3-0.26-3.82c-0.18-0.52-0.59-0.76-1.25-0.76
		c-0.57,0-0.96,0.22-1.17,0.66c-0.21,0.44-0.3,1.57-0.3,3.38v17.04c0,1.6,0.1,2.64,0.3,3.14c0.21,0.51,0.62,0.75,1.22,0.75
		c0.68,0,1.13-0.28,1.37-0.85s0.36-1.68,0.36-3.33v-4.21h-1.86v-5.4h10.81v19.06h-5.8l-0.85-2.55c-0.63,1.1-1.42,1.92-2.38,2.47
		c-0.96,0.55-2.09,0.82-3.39,0.82c-1.56,0-3.01-0.37-4.36-1.13c-1.35-0.75-2.38-1.68-3.08-2.8c-0.71-1.11-1.14-2.28-1.31-3.5
		c-0.18-1.22-0.26-3.06-0.26-5.49v-10.55c0-3.39,0.19-5.86,0.55-7.39c0.36-1.54,1.41-2.94,3.14-4.22c1.73-1.28,3.98-1.92,6.72-1.92
		c2.7,0,4.95,0.56,6.74,1.66c1.79,1.11,2.95,2.43,3.49,3.96c0.54,1.53,0.81,3.75,0.81,6.66L607.65,163.57L607.65,163.57z"/>
	<path class="st2" d="M620.46,150.5v28.4h5.61v7.11h-14.85V150.5L620.46,150.5L620.46,150.5z"/>
	<path class="st2" d="M628.3,150.5h15.39v7.11h-6.16v6.74h5.77v6.76h-5.77v7.8h6.78v7.11H628.3V150.5z"/>
</g>
<g>
	<path class="st0" d="M479.92,106.79h6.9c4.46,0,7.47,0.21,9.05,0.62c1.57,0.41,2.77,1.08,3.58,2.02c0.81,0.94,1.33,1.98,1.54,3.12
		c0.21,1.15,0.3,3.4,0.3,6.77v12.44c0,3.18-0.15,5.32-0.45,6.39s-0.82,1.92-1.57,2.53c-0.74,0.61-1.66,1.03-2.76,1.27
		c-1.1,0.24-2.75,0.36-4.96,0.36h-11.64L479.92,106.79L479.92,106.79z M489.14,112.86v23.36c1.33,0,2.14-0.26,2.46-0.8
		c0.3-0.53,0.46-1.99,0.46-4.36v-13.8c0-1.61-0.05-2.63-0.16-3.09c-0.1-0.45-0.33-0.78-0.71-1
		C490.82,112.94,490.15,112.86,489.14,112.86z"/>
	<path class="st0" d="M504.74,106.79h15.39v7.11h-6.16v6.74h5.77v6.76h-5.77v7.8h6.78v7.11h-16.01V106.79z"/>
	<path class="st0" d="M542.96,117.53h-8.58v-2.63c0-1.22-0.11-2.01-0.33-2.35s-0.59-0.51-1.1-0.51c-0.56,0-0.98,0.23-1.26,0.68
		c-0.28,0.45-0.43,1.15-0.43,2.07c0,1.18,0.16,2.08,0.48,2.67c0.3,0.6,1.18,1.32,2.6,2.17c4.11,2.44,6.7,4.44,7.77,6
		c1.07,1.57,1.6,4.08,1.6,7.57c0,2.53-0.29,4.4-0.89,5.59c-0.59,1.19-1.73,2.2-3.43,3.02s-3.67,1.21-5.92,1.21
		c-2.47,0-4.58-0.47-6.33-1.4c-1.74-0.93-2.89-2.12-3.43-3.57s-0.81-3.51-0.81-6.16v-2.32h8.58v4.32c0,1.33,0.12,2.18,0.36,2.57
		c0.24,0.38,0.67,0.57,1.28,0.57s1.07-0.24,1.37-0.72c0.3-0.48,0.45-1.19,0.45-2.14c0-2.09-0.28-3.46-0.85-4.1
		c-0.59-0.65-2.03-1.71-4.32-3.22c-2.29-1.52-3.82-2.62-4.56-3.31s-1.36-1.64-1.85-2.85c-0.49-1.21-0.73-2.76-0.73-4.65
		c0-2.72,0.34-4.71,1.04-5.96c0.7-1.25,1.82-2.24,3.37-2.95c1.55-0.71,3.42-1.07,5.61-1.07c2.4,0,4.44,0.39,6.13,1.17
		c1.68,0.77,2.81,1.75,3.36,2.93c0.55,1.18,0.82,3.17,0.82,5.99L542.96,117.53L542.96,117.53z"/>
	<path class="st0" d="M555.86,106.79v35.51h-9.23v-35.51L555.86,106.79L555.86,106.79z"/>
	<path class="st0" d="M580.75,119.86h-9.23v-3.22c0-2.04-0.09-3.3-0.26-3.82c-0.18-0.52-0.59-0.76-1.25-0.76
		c-0.57,0-0.96,0.22-1.17,0.66c-0.21,0.44-0.3,1.57-0.3,3.38v17.04c0,1.6,0.1,2.64,0.3,3.14c0.21,0.51,0.62,0.75,1.22,0.75
		c0.68,0,1.13-0.28,1.37-0.85c0.24-0.57,0.36-1.68,0.36-3.33v-4.21h-1.86v-5.4h10.81v19.06h-5.8l-0.85-2.55
		c-0.63,1.1-1.42,1.92-2.38,2.47c-0.96,0.55-2.09,0.82-3.39,0.82c-1.56,0-3.01-0.37-4.36-1.13c-1.35-0.75-2.38-1.68-3.08-2.8
		c-0.71-1.11-1.14-2.28-1.31-3.5c-0.18-1.22-0.26-3.06-0.26-5.49v-10.55c0-3.39,0.19-5.86,0.55-7.39c0.36-1.54,1.41-2.94,3.14-4.22
		s3.98-1.92,6.72-1.92c2.7,0,4.95,0.56,6.74,1.66c1.79,1.11,2.95,2.43,3.49,3.96s0.81,3.75,0.81,6.66L580.75,119.86L580.75,119.86z"
		/>
	<path class="st0" d="M604.94,106.79v35.51h-8.09l-4.8-16.14v16.14h-7.72v-35.51h7.72l5.18,15.99v-15.99L604.94,106.79
		L604.94,106.79z"/>
</g>
</svg>
