<?xml version="1.0" encoding="utf-8"?>
<!-- Generator: Adobe Illustrator 25.1.0, SVG Export Plug-In . SVG Version: 6.00 Build 0)  -->
<svg version="1.1" id="Layer_1" xmlns="http://www.w3.org/2000/svg" xmlns:xlink="http://www.w3.org/1999/xlink" x="0px" y="0px"
	 viewBox="0 0 310 131" style="enable-background:new 0 0 310 131;" xml:space="preserve">
<style type="text/css">
	.st0{fill:#193059;}
	.st1{fill:#FFFFFF;}
	.st2{fill:none;stroke:#193059;stroke-width:2;stroke-miterlimit:10;}
</style>
<g>
	<circle class="st0" cx="65" cy="65.4" r="64.9"/>
	<g>
		<path class="st1" d="M67.1,23.2c11.6,14,24.6,27.2,32.3,43.5c-2.9,1.1-5.1,1.9-7.4,2.7c-3.6-2.6-6-6-7.9-9.7
			c-5.5-10.4-10.9-20.9-16.2-31.3c-0.8-1.5-1.2-3.1-1.8-4.7C66.5,23.4,66.8,23.3,67.1,23.2z"/>
		<path class="st1" d="M20.9,93.9c7.4-19.5,13.3-39.8,25.7-57.3c3,1.9,5.3,3.3,7.7,4.8c-0.4,4.9-2.6,9.3-5.3,13.4
			c-7.6,11.7-15.3,23.4-23,35c-1.1,1.7-2.6,3.1-3.9,4.7C21.6,94.3,21.3,94.1,20.9,93.9z"/>
		<path class="st1" d="M106.9,94.3c-1.4-4.7-4.2-7.5-7.5-10.3c-2.3-1.9-4.4-4.3-5.9-6.8c-1.3-2.1-1-4.5,1.4-6c3-2,5.8-2.1,8.7-0.4
			c7.9,4.6,10.2,11.5,6.3,18.5C109,90.9,108.1,92.3,106.9,94.3z"/>
		<path class="st1" d="M63.3,19.9c-1.4,2.1-2.8,4.2-4.2,6.3c-0.3-0.1-0.7-0.1-1,0.1c-0.6,0.3-0.8,1.1-0.4,1.7
			c0.3,0.6,1.1,0.8,1.7,0.4c0.6-0.3,0.8-1.1,0.4-1.7c-0.1-0.2-0.1-0.4,0-0.6c1.3-1.9,2.6-3.9,3.9-5.8c0-0.1,0.1-0.1,0.1-0.2
			c0,0,0.1,0,0.1,0c0.6,0.4,0.5,0.3,0.3,0.9c-0.7,1.4-0.9,2.9-1,4.5c0,1.7,0.2,3.3,0.5,5c0.1,0.2,0,0.4-0.2,0.5
			c-2.2,1.7-4.4,3.3-6.6,5c-0.1,0.1-0.2,0.1-0.4,0c-1.8-1.2-3.6-2.4-5.3-3.6c0,0-0.1-0.1-0.1-0.1c0.4-1.5,0.9-3,1.3-4.6
			c0.3-1.2,0.7-2.3,1-3.5c0.1-0.3,0.3-0.4,0.6-0.5c3-0.4,5.7-1.5,8-3.4c0.2-0.2,0.4-0.3,0.5-0.5c0.2-0.2,0.4-0.3,0.6-0.1
			C63.1,19.8,63.2,19.8,63.3,19.9z"/>
		<path class="st1" d="M56.5,39.5c-0.3,0.6-0.5,1.2-0.8,1.8c-0.1,0.3-0.2,0.4-0.5,0.2c-2.1-1.3-4.1-2.6-6.2-3.9
			c-0.8-0.5-1.6-1-2.4-1.5c-0.3-0.2-0.3-0.3-0.1-0.5c0.5-0.5,1-1,1.4-1.6C50.9,35.8,53.7,37.6,56.5,39.5z"/>
		<path class="st1" d="M56.7,39.1c-2.8-1.8-5.6-3.7-8.4-5.5c0.4-0.4,0.8-0.9,1.2-1.3c0.1-0.2,0.3-0.1,0.4,0c1.1,0.7,2.2,1.5,3.3,2.2
			c1.3,0.9,2.5,1.7,3.8,2.6c0.2,0.2,0.3,0.3,0.2,0.6C57.1,38.1,56.9,38.6,56.7,39.1z"/>
		<path class="st1" d="M45,86.4c11.7-0.3,24-0.7,36.6-1c-0.2,4.7-0.4,9.4-0.5,13.8c-11.4,0.2-23.8,0.4-36.2,0.6
			C44.9,95.8,45,91,45,86.4z"/>
		<path class="st1" d="M84.9,85.3c9.4-0.8,10.4-0.1,10.5,8.4c0.1,5.9-1,6.6-10.5,5.9C84.9,94.8,84.9,90.1,84.9,85.3z"/>
		<path class="st1" d="M40.7,100.2c-3-1.8-6.4-3.7-10.5-6.2c4-2.8,7.2-5.1,10.7-7.5C40.9,91.1,40.8,95.6,40.7,100.2z"/>
	</g>
</g>
<g>
	<path class="st2" d="M165.1,69.5v7.1h-5.5V105h-9.2V76.6h-5.5v-7.1H165.1L165.1,69.5z"/>
	<path class="st2" d="M167.2,69.5h6.5c4.4,0,7.3,0.2,8.9,0.5c1.5,0.3,2.8,1.2,3.8,2.6c1,1.4,1.5,3.6,1.5,6.6c0,2.8-0.3,4.6-1,5.6
		c-0.7,0.9-2,1.5-4,1.7c1.8,0.4,3.1,1.1,3.7,1.8c0.6,0.8,1,1.5,1.2,2.1s0.2,2.4,0.2,5.2v9.4h-8.6V93.2c0-1.9-0.2-3.1-0.5-3.5
		c-0.3-0.4-1.1-0.7-2.4-0.7v16h-9.2L167.2,69.5L167.2,69.5z M176.4,75.6v7.9c1,0,1.8-0.1,2.2-0.4s0.6-1.2,0.6-2.8v-1.9
		c0-1.1-0.2-1.9-0.6-2.2C178.2,75.8,177.5,75.6,176.4,75.6z"/>
	<path class="st2" d="M200.6,69.5V105h-9.2V69.5H200.6L200.6,69.5z"/>
	<path class="st2" d="M220.3,69.5l5.3,35.5h-9.4l-0.5-6.4h-3.3l-0.6,6.4h-9.5l4.7-35.5H220.3L220.3,69.5z M215.4,92.3
		c-0.5-4-0.9-9-1.4-14.9c-0.9,6.8-1.5,11.8-1.8,14.9H215.4z"/>
	<path class="st2" d="M247.8,69.5V105h-8.1l-4.8-16.1V105h-7.7V69.5h7.7l5.2,16v-16H247.8L247.8,69.5z"/>
	<path class="st2" d="M272.7,82.6h-9.2v-3.2c0-2-0.1-3.3-0.3-3.8c-0.2-0.5-0.6-0.8-1.2-0.8c-0.6,0-1,0.2-1.2,0.7
		c-0.2,0.4-0.3,1.6-0.3,3.4v17c0,1.6,0.1,2.6,0.3,3.1c0.2,0.5,0.6,0.8,1.2,0.8c0.7,0,1.1-0.3,1.4-0.9s0.4-1.7,0.4-3.3v-4.2h-1.9
		v-5.4h10.8V105h-5.8l-0.8-2.6c-0.6,1.1-1.4,1.9-2.4,2.5s-2.1,0.8-3.4,0.8c-1.6,0-3-0.4-4.4-1.1c-1.3-0.8-2.4-1.7-3.1-2.8
		c-0.7-1.1-1.1-2.3-1.3-3.5c-0.2-1.2-0.3-3.1-0.3-5.5V82.3c0-3.4,0.2-5.9,0.5-7.4c0.4-1.5,1.4-2.9,3.1-4.2c1.7-1.3,4-1.9,6.7-1.9
		c2.7,0,5,0.6,6.7,1.7c1.8,1.1,3,2.4,3.5,4c0.5,1.5,0.8,3.8,0.8,6.7L272.7,82.6L272.7,82.6z"/>
	<path class="st2" d="M285.5,69.5v28.4h5.6v7.1h-14.8V69.5H285.5L285.5,69.5z"/>
	<path class="st2" d="M293.3,69.5h15.4v7.1h-6.2v6.7h5.8v6.8h-5.8v7.8h6.8v7.1h-16V69.5z"/>
</g>
<g>
	<path class="st0" d="M144.9,25.8h6.9c4.5,0,7.5,0.2,9,0.6c1.6,0.4,2.8,1.1,3.6,2c0.8,0.9,1.3,2,1.5,3.1c0.2,1.2,0.3,3.4,0.3,6.8
		v12.4c0,3.2-0.1,5.3-0.5,6.4s-0.8,1.9-1.6,2.5c-0.7,0.6-1.7,1-2.8,1.3s-2.8,0.4-5,0.4h-11.6L144.9,25.8L144.9,25.8z M154.1,31.9
		v23.4c1.3,0,2.1-0.3,2.5-0.8c0.3-0.5,0.5-2,0.5-4.4V36.3c0-1.6,0-2.6-0.2-3.1c-0.1-0.4-0.3-0.8-0.7-1
		C155.8,31.9,155.1,31.9,154.1,31.9z"/>
	<path class="st0" d="M169.7,25.8h15.4v7.1H179v6.7h5.8v6.8H179v7.8h6.8v7.1h-16L169.7,25.8L169.7,25.8z"/>
	<path class="st0" d="M208,36.5h-8.6v-2.6c0-1.2-0.1-2-0.3-2.3S198.5,31,198,31c-0.6,0-1,0.2-1.3,0.7s-0.4,1.2-0.4,2.1
		c0,1.2,0.2,2.1,0.5,2.7c0.3,0.6,1.2,1.3,2.6,2.2c4.1,2.4,6.7,4.4,7.8,6c1.1,1.6,1.6,4.1,1.6,7.6c0,2.5-0.3,4.4-0.9,5.6
		c-0.6,1.2-1.7,2.2-3.4,3s-3.7,1.2-5.9,1.2c-2.5,0-4.6-0.5-6.3-1.4c-1.7-0.9-2.9-2.1-3.4-3.6s-0.8-3.5-0.8-6.2v-2.3h8.6v4.3
		c0,1.3,0.1,2.2,0.4,2.6c0.2,0.4,0.7,0.6,1.3,0.6s1.1-0.2,1.4-0.7s0.5-1.2,0.5-2.1c0-2.1-0.3-3.5-0.8-4.1c-0.6-0.6-2-1.7-4.3-3.2
		c-2.3-1.5-3.8-2.6-4.6-3.3s-1.4-1.6-1.8-2.8s-0.7-2.8-0.7-4.7c0-2.7,0.3-4.7,1-6c0.7-1.2,1.8-2.2,3.4-2.9s3.4-1.1,5.6-1.1
		c2.4,0,4.4,0.4,6.1,1.2c1.7,0.8,2.8,1.8,3.4,2.9s0.8,3.2,0.8,6V36.5L208,36.5z"/>
	<path class="st0" d="M220.9,25.8v35.5h-9.2V25.8L220.9,25.8L220.9,25.8z"/>
	<path class="st0" d="M245.8,38.9h-9.2v-3.2c0-2-0.1-3.3-0.3-3.8c-0.2-0.5-0.6-0.8-1.2-0.8c-0.6,0-1,0.2-1.2,0.7
		c-0.2,0.4-0.3,1.6-0.3,3.4v17c0,1.6,0.1,2.6,0.3,3.1c0.2,0.5,0.6,0.8,1.2,0.8c0.7,0,1.1-0.3,1.4-0.9s0.4-1.7,0.4-3.3v-4.2h-1.9
		v-5.4h10.8v19.1h-5.8l-0.8-2.6c-0.6,1.1-1.4,1.9-2.4,2.5s-2.1,0.8-3.4,0.8c-1.6,0-3-0.4-4.4-1.1c-1.3-0.8-2.4-1.7-3.1-2.8
		c-0.7-1.1-1.1-2.3-1.3-3.5c-0.2-1.2-0.3-3.1-0.3-5.5V38.6c0-3.4,0.2-5.9,0.5-7.4c0.4-1.5,1.4-2.9,3.1-4.2s4-1.9,6.7-1.9
		c2.7,0,5,0.6,6.7,1.7c1.8,1.1,3,2.4,3.5,4s0.8,3.8,0.8,6.7L245.8,38.9L245.8,38.9z"/>
	<path class="st0" d="M269.9,25.8v35.5h-8.1L257,45.2v16.1h-7.7V25.8h7.7l5.2,16v-16L269.9,25.8L269.9,25.8z"/>
</g>
</svg>
