<?xml version="1.0" encoding="utf-8"?>
<!-- Generator: Adobe Illustrator 25.1.0, SVG Export Plug-In . SVG Version: 6.00 Build 0)  -->
<svg version="1.1" id="Layer_1" xmlns="http://www.w3.org/2000/svg" xmlns:xlink="http://www.w3.org/1999/xlink" x="0px" y="0px"
	 viewBox="0 0 1080 261" style="enable-background:new 0 0 1080 261;" xml:space="preserve">
<style type="text/css">
	.st0{fill:#FFFFFF;}
	.st1{fill:#192F5A;}
	.st2{fill:none;stroke:#FFFFFF;stroke-width:2;stroke-miterlimit:10;}
</style>
<g>
	<g>
		<circle class="st0" cx="425.18" cy="131.77" r="79.39"/>
		<g>
			<path class="st1" d="M427.85,80.07c14.26,17.09,30.07,33.36,39.5,53.21c-3.59,1.31-6.25,2.29-9.04,3.32
				c-4.46-3.12-7.32-7.38-9.68-11.87c-6.67-12.76-13.29-25.54-19.85-38.34c-0.94-1.85-1.45-3.84-2.16-5.78
				C427.05,80.44,427.45,80.26,427.85,80.07z"/>
			<path class="st1" d="M371.26,166.67c9.08-23.91,16.27-48.68,31.4-70.1c3.72,2.34,6.48,4.07,9.38,5.89
				c-0.44,6.03-3.15,11.37-6.45,16.42c-9.35,14.31-18.74,28.57-28.19,42.82c-1.36,2.05-3.18,3.81-4.78,5.71
				C372.17,167.16,371.72,166.92,371.26,166.67z"/>
			<path class="st1" d="M476.53,167.17c-1.75-5.72-5.17-9.23-9.21-12.56c-2.85-2.34-5.35-5.25-7.16-8.27
				c-1.55-2.58-1.18-5.52,1.68-7.39c3.74-2.42,7.14-2.54,10.61-0.51c9.67,5.67,12.53,14.04,7.71,22.66
				C479.14,162.93,478.01,164.7,476.53,167.17z"/>
			<path class="st1" d="M423.11,76.05c-1.75,2.59-3.47,5.14-5.2,7.71c-0.4-0.13-0.86-0.13-1.28,0.12c-0.71,0.42-0.96,1.33-0.54,2.04
				c0.42,0.71,1.33,0.94,2.04,0.52c0.71-0.42,0.96-1.35,0.51-2.04c-0.19-0.29-0.13-0.44,0.02-0.67c1.6-2.37,3.2-4.77,4.8-7.14
				c0.05-0.07,0.1-0.13,0.15-0.2c0.05,0.02,0.08,0.02,0.12,0.03c0.79,0.45,0.67,0.4,0.32,1.08c-0.89,1.72-1.14,3.57-1.18,5.47
				c-0.05,2.05,0.2,4.09,0.66,6.1c0.07,0.3,0,0.47-0.24,0.66c-2.71,2.04-5.4,4.07-8.1,6.13c-0.17,0.13-0.29,0.17-0.49,0.03
				c-2.17-1.48-4.36-2.96-6.53-4.45c-0.03-0.03-0.07-0.07-0.12-0.1c0.52-1.87,1.04-3.72,1.58-5.59c0.4-1.45,0.84-2.88,1.21-4.33
				c0.12-0.42,0.32-0.56,0.72-0.62c3.65-0.51,6.94-1.84,9.78-4.21c0.24-0.2,0.49-0.4,0.67-0.64c0.25-0.3,0.49-0.32,0.79-0.08
				C422.9,75.93,423,75.98,423.11,76.05z"/>
			<path class="st1" d="M414.84,100.06c-0.32,0.77-0.64,1.52-0.94,2.26c-0.17,0.39-0.29,0.44-0.64,0.2
				c-2.53-1.62-5.03-3.23-7.56-4.83c-0.98-0.62-1.95-1.25-2.91-1.87c-0.37-0.24-0.39-0.35-0.08-0.66c0.57-0.62,1.16-1.26,1.77-1.92
				C407.92,95.49,411.37,97.77,414.84,100.06z"/>
			<path class="st1" d="M415.06,99.54c-3.42-2.26-6.8-4.48-10.22-6.74c0.52-0.56,0.99-1.09,1.5-1.62c0.19-0.19,0.35-0.07,0.52,0.05
				c1.33,0.91,2.68,1.82,4.01,2.73c1.57,1.06,3.12,2.12,4.68,3.18c0.29,0.2,0.37,0.37,0.22,0.71
				C415.53,98.37,415.31,98.93,415.06,99.54z"/>
			<path class="st1" d="M400.81,157.43c14.33-0.4,29.33-0.81,44.84-1.25c-0.24,5.74-0.45,11.47-0.67,16.91
				c-13.99,0.24-29.06,0.47-44.35,0.72C400.68,168.99,400.74,163.15,400.81,157.43z"/>
			<path class="st1" d="M449.57,156.09c11.5-1.03,12.68-0.13,12.81,10.22c0.08,7.26-1.26,8.03-12.83,7.27
				C449.56,167.78,449.56,161.95,449.57,156.09z"/>
			<path class="st1" d="M395.51,174.36c-3.65-2.16-7.78-4.56-12.85-7.54c4.85-3.4,8.87-6.21,13.13-9.19
				C395.69,163.28,395.59,168.71,395.51,174.36z"/>
		</g>
	</g>
	<g>
		<g>
			<path class="st2" d="M547.73,136.79v8.7h-6.71v34.76h-11.3V145.5h-6.69v-8.7H547.73L547.73,136.79z"/>
			<path class="st2" d="M550.31,136.79h7.99c5.33,0,8.94,0.2,10.83,0.62c1.89,0.41,3.43,1.46,4.61,3.15
				c1.19,1.69,1.79,4.39,1.79,8.09c0,3.38-0.42,5.66-1.26,6.82c-0.84,1.16-2.49,1.86-4.96,2.1c2.24,0.55,3.74,1.29,4.51,2.23
				s1.25,1.79,1.44,2.56s0.29,2.92,0.29,6.42v11.46h-10.5v-14.44c0-2.33-0.18-3.76-0.55-4.33c-0.37-0.55-1.33-0.83-2.89-0.83v19.59
				h-11.3L550.31,136.79L550.31,136.79z M561.61,144.23v9.66c1.27,0,2.16-0.18,2.67-0.53c0.52-0.35,0.77-1.49,0.77-3.39v-2.38
				c0-1.38-0.25-2.28-0.74-2.71S562.92,144.23,561.61,144.23z"/>
			<path class="st2" d="M591.21,136.79v43.46h-11.3v-43.46L591.21,136.79L591.21,136.79z"/>
			<path class="st2" d="M615.28,136.79l6.46,43.46H610.2l-0.61-7.81h-4.04l-0.68,7.81h-11.68l5.76-43.46L615.28,136.79
				L615.28,136.79z M609.3,164.73c-0.58-4.93-1.15-11-1.73-18.25c-1.15,8.32-1.87,14.41-2.17,18.25H609.3z"/>
			<path class="st2" d="M648.89,136.79v43.46H639l-5.87-19.75v19.75h-9.44v-43.46h9.44l6.34,19.57v-19.57L648.89,136.79
				L648.89,136.79z"/>
			<path class="st2" d="M679.36,152.79h-11.3v-3.94c0-2.49-0.11-4.04-0.32-4.67c-0.22-0.64-0.72-0.93-1.53-0.93
				c-0.7,0-1.17,0.26-1.43,0.8s-0.37,1.92-0.37,4.13v20.85c0,1.95,0.12,3.24,0.37,3.85c0.25,0.62,0.76,0.92,1.5,0.92
				c0.83,0,1.38-0.35,1.68-1.04c0.3-0.7,0.44-2.06,0.44-4.07v-5.15h-2.28v-6.6h13.23v23.32h-7.09l-1.04-3.12
				c-0.77,1.34-1.74,2.35-2.91,3.02c-1.17,0.67-2.55,1.01-4.15,1.01c-1.91,0-3.68-0.46-5.33-1.38c-1.65-0.92-2.91-2.06-3.78-3.43
				c-0.86-1.35-1.39-2.79-1.61-4.28c-0.22-1.5-0.32-3.74-0.32-6.72v-12.91c0-4.15,0.23-7.17,0.67-9.05c0.44-1.88,1.73-3.6,3.85-5.17
				s4.87-2.35,8.22-2.35c3.31,0,6.05,0.68,8.25,2.04c2.19,1.35,3.61,2.97,4.27,4.84c0.66,1.87,0.99,4.59,0.99,8.15L679.36,152.79
				L679.36,152.79z"/>
			<path class="st2" d="M695.04,136.79v34.76h6.87v8.7h-18.17v-43.46H695.04L695.04,136.79z"/>
			<path class="st2" d="M704.64,136.79h18.84v8.7h-7.54v8.25H723v8.27h-7.06v9.55h8.29v8.7h-19.59V136.79z"/>
		</g>
		<g>
			<path class="st0" d="M523.03,83.3h8.45c5.45,0,9.14,0.25,11.07,0.76c1.92,0.5,3.39,1.32,4.39,2.47s1.63,2.42,1.88,3.82
				s0.37,4.16,0.37,8.28v15.22c0,3.89-0.18,6.51-0.55,7.83s-1.01,2.35-1.92,3.09c-0.91,0.74-2.04,1.26-3.38,1.56
				c-1.34,0.3-3.37,0.44-6.06,0.44h-14.25L523.03,83.3L523.03,83.3z M534.32,90.73v28.58c1.63,0,2.62-0.32,3.01-0.98
				c0.37-0.65,0.56-2.43,0.56-5.33V96.11c0-1.97-0.06-3.22-0.19-3.79c-0.12-0.55-0.41-0.96-0.86-1.22
				C536.38,90.83,535.56,90.73,534.32,90.73z"/>
			<path class="st0" d="M553.41,83.3h18.84V92h-7.54v8.25h7.06v8.27h-7.06v9.55h8.29v8.7h-19.59V83.3z"/>
			<path class="st0" d="M600.19,96.44h-10.5v-3.22c0-1.5-0.13-2.46-0.41-2.88s-0.72-0.62-1.34-0.62c-0.68,0-1.2,0.28-1.55,0.83
				c-0.35,0.55-0.53,1.4-0.53,2.53c0,1.45,0.19,2.54,0.59,3.27c0.37,0.73,1.44,1.62,3.19,2.66c5.03,2.98,8.2,5.43,9.5,7.35
				c1.31,1.92,1.95,5,1.95,9.26c0,3.09-0.36,5.38-1.09,6.84c-0.72,1.46-2.12,2.7-4.19,3.69c-2.07,0.99-4.49,1.49-7.25,1.49
				c-3.02,0-5.61-0.58-7.74-1.71s-3.54-2.6-4.19-4.37c-0.66-1.77-0.99-4.29-0.99-7.54v-2.84h10.5v5.29c0,1.63,0.14,2.67,0.44,3.14
				s0.81,0.7,1.57,0.7c0.76,0,1.31-0.3,1.68-0.89c0.37-0.59,0.55-1.46,0.55-2.62c0-2.55-0.35-4.23-1.04-5.02
				c-0.72-0.79-2.48-2.1-5.29-3.94c-2.8-1.86-4.67-3.21-5.58-4.05c-0.91-0.84-1.67-2-2.27-3.49c-0.6-1.49-0.9-3.38-0.9-5.69
				c0-3.33,0.42-5.76,1.27-7.3c0.85-1.53,2.23-2.74,4.12-3.61c1.89-0.86,4.18-1.31,6.87-1.31c2.94,0,5.43,0.48,7.5,1.43
				c2.06,0.95,3.44,2.15,4.11,3.58s1.01,3.88,1.01,7.33L600.19,96.44L600.19,96.44z"/>
			<path class="st0" d="M615.97,83.3v43.46h-11.3V83.3L615.97,83.3L615.97,83.3z"/>
			<path class="st0" d="M646.44,99.3h-11.3v-3.94c0-2.49-0.11-4.04-0.32-4.67c-0.22-0.64-0.72-0.93-1.53-0.93
				c-0.7,0-1.17,0.26-1.43,0.8c-0.25,0.54-0.37,1.92-0.37,4.13v20.85c0,1.95,0.12,3.24,0.37,3.85c0.25,0.62,0.76,0.92,1.5,0.92
				c0.83,0,1.38-0.35,1.68-1.04c0.3-0.7,0.44-2.06,0.44-4.07v-5.15h-2.28v-6.6h13.23v23.32h-7.09l-1.04-3.12
				c-0.77,1.34-1.74,2.35-2.91,3.02c-1.17,0.67-2.55,1.01-4.15,1.01c-1.91,0-3.68-0.46-5.33-1.38c-1.65-0.92-2.91-2.06-3.78-3.43
				c-0.86-1.35-1.39-2.79-1.61-4.28c-0.22-1.5-0.32-3.74-0.32-6.72V98.95c0-4.15,0.23-7.17,0.67-9.05s1.73-3.6,3.85-5.17
				c2.12-1.57,4.87-2.35,8.22-2.35c3.31,0,6.05,0.68,8.25,2.04c2.19,1.35,3.61,2.97,4.27,4.84c0.66,1.87,0.99,4.59,0.99,8.15
				L646.44,99.3L646.44,99.3z"/>
			<path class="st0" d="M676.04,83.3v43.46h-9.9L660.27,107v19.75h-9.44V83.3h9.44l6.34,19.57V83.3L676.04,83.3L676.04,83.3z"/>
		</g>
	</g>
</g>
</svg>
